<?xml version="1.0" standalone="no"?>
<!DOCTYPE svg PUBLIC "-//W3C//DTD SVG 1.1//EN" "http://www.w3.org/Graphics/SVG/1.1/DTD/svg11.dtd" >
<svg xmlns="http://www.w3.org/2000/svg">
<metadata></metadata>
<defs>
<font id="houschkaroundedaltregular_10" horiz-adv-x="600" >
<font-face units-per-em="1000" ascent="750" descent="-250" />
<missing-glyph horiz-adv-x="251" />
<glyph unicode="&#xfb00;" horiz-adv-x="578" d="M143 448h207v87q0 155 125 155q51 0 91 -22q33 -17 33 -33q0 -17 -17 -17q-4 0 -7.5 2t-11 7.5t-15.5 9.5q-32 16 -66 16q-49 0 -68.5 -28t-19.5 -86v-91h147q7 0 12 -5t5 -12q0 -18 -17 -18h-147v-402q0 -9 -6.5 -15t-15.5 -6t-15.5 6t-6.5 15v402h-207v-402 q0 -9 -6.5 -15t-15.5 -6t-15.5 6t-6.5 15v402h-56q-17 0 -17 18q0 7 5 12t12 5h56v83q0 149 123 149q49 0 88 -21q31 -16 31 -34q0 -17 -15 -17q-3 0 -6 2l-10.5 7t-15.5 9q-27 15 -63 15q-49 0 -68.5 -28.5t-19.5 -83.5v-81z" />
<glyph unicode="&#xfb01;" horiz-adv-x="464" d="M143 448h223q22 0 22 -21v-416q0 -9 -6.5 -15t-15.5 -6t-15.5 6t-6.5 15v402h-201v-402q0 -9 -6.5 -15t-15.5 -6t-15.5 6t-6.5 15v402h-56q-17 0 -17 18q0 7 5 12t12 5h56v76q0 166 141 166q52 0 105 -21q35 -16 35 -33t-21 -17q-4 0 -34 15q-36 18 -80 18 q-55 0 -78.5 -34t-23.5 -99v-71z" />
<glyph unicode="&#xfb02;" horiz-adv-x="465" d="M389 606v-595q0 -9 -6.5 -15t-15.5 -6t-15 6t-6 15v594q0 18 -27.5 33t-72.5 15q-55 0 -79 -33.5t-24 -99.5v-72h149q7 0 12 -5t5 -12q0 -18 -17 -18h-149v-402q0 -9 -6.5 -15t-15.5 -6t-15.5 6t-6.5 15v402h-56q-17 0 -17 18q0 7 5 12t12 5h56v77q0 166 142 166 q64 0 104 -21q26 -13 35 -27t9 -37z" />
<glyph unicode="&#xfb03;" horiz-adv-x="715" d="M99 448v85q0 149 123 149q49 0 88 -21q31 -16 31 -34q0 -17 -15 -17q-3 0 -6 2l-10.5 7t-15.5 9q-27 15 -63 15q-49 0 -68.5 -28.5t-19.5 -83.5v-83h207v76q0 166 142 166q52 0 104 -21q35 -15 35 -33q0 -17 -20 -17q-4 0 -35 15q-36 18 -80 18q-55 0 -78.5 -34 t-23.5 -99v-71h223q22 0 22 -21v-416q0 -9 -6.5 -15t-15.5 -6t-15.5 6t-6.5 15v402h-201v-402q0 -9 -6.5 -15t-15.5 -6t-15.5 6t-6.5 15v402h-207v-402q0 -9 -6.5 -15t-15.5 -6t-15.5 6t-6.5 15v402h-56q-17 0 -17 18q0 7 5 12t12 5h56z" />
<glyph unicode="&#xfb04;" horiz-adv-x="717" d="M143 448h207v77q0 166 142 166q62 0 102 -21q27 -13 37 -27.5t10 -36.5v-595q0 -9 -6.5 -15t-15.5 -6t-15.5 6t-6.5 15v594q0 18 -27.5 33t-72.5 15q-103 0 -103 -133v-72h141q7 0 12 -5t5 -12q0 -18 -17 -18h-141v-402q0 -9 -6.5 -15t-15.5 -6t-15.5 6t-6.5 15v402h-207 v-402q0 -9 -6.5 -15t-15.5 -6t-15.5 6t-6.5 15v402h-56q-17 0 -17 18q0 7 5 12t12 5h56v85q0 149 123 149q49 0 88 -21q31 -16 31 -34q0 -17 -15 -17q-3 0 -6 2l-10.5 7t-15.5 9q-27 15 -63 15q-49 0 -68.5 -28.5t-19.5 -83.5v-83z" />
<glyph unicode="ffj" horiz-adv-x="715" d="M143 448h207v76q0 166 142 166q52 0 104 -21q35 -15 35 -33q0 -17 -20 -17q-4 0 -35 15q-36 18 -80 18q-55 0 -78.5 -34t-23.5 -99v-71h223q9 0 15.5 -6t6.5 -15v-478q0 -94 -33 -140q-28 -38 -63 -38q-23 0 -23 20q0 8 7 12t20 12.5t24 23.5q24 33 24 132v442h-201v-402 q0 -9 -6.5 -15t-15.5 -6t-15.5 6t-6.5 15v402h-207v-402q0 -9 -6.5 -15t-15.5 -6t-15.5 6t-6.5 15v402h-56q-17 0 -17 18q0 7 5 12t12 5h56v85q0 149 123 149q49 0 88 -21q31 -16 31 -34q0 -17 -15 -17q-3 0 -6 2l-10.5 7t-15.5 9q-27 15 -63 15q-49 0 -68.5 -28.5 t-19.5 -83.5v-83z" />
<glyph unicode="fj" horiz-adv-x="469" d="M143 448h223q9 0 15.5 -6t6.5 -15v-478q0 -94 -34 -140q-28 -38 -63 -38q-22 0 -22 20q0 8 7 12t20 12.5t24 23.5q24 33 24 132v442h-201v-402q0 -9 -6.5 -15t-15.5 -6t-15.5 6t-6.5 15v402h-56q-17 0 -17 18q0 7 5 12t12 5h56v76q0 166 141 166q52 0 105 -21 q35 -16 35 -33t-21 -17q-4 0 -34 15q-36 18 -80 18q-55 0 -78.5 -34t-23.5 -99v-71z" />
<glyph horiz-adv-x="0" />
<glyph unicode="&#xd;" horiz-adv-x="333" />
<glyph unicode=" "  horiz-adv-x="251" />
<glyph unicode="&#x09;" horiz-adv-x="251" />
<glyph unicode="&#xa0;" horiz-adv-x="251" />
<glyph unicode="!" horiz-adv-x="204" d="M131 21q0 -13 -8 -21.5t-21 -8.5t-21 8.5t-8 21.5q0 12 8 20t21 8t21 -8t8 -20zM134 620q0 -17 -2 -54t-2 -45l-12 -332q-1 -22 -16 -22q-14 0 -15 22l-12 332q0 8 -2 45t-2 54q0 70 31 70q32 0 32 -70z" />
<glyph unicode="&#x22;" horiz-adv-x="245" d="M181 488q-13 0 -15 18l-6 119q-1 22 -1 38q0 28 22 28q23 0 23 -28q0 -16 -1 -38l-6 -119q-1 -18 -16 -18zM63 488q-13 0 -15 18l-6 119q-1 22 -1 38q0 28 22 28q23 0 23 -28q0 -16 -1 -38l-6 -119q-1 -18 -16 -18z" />
<glyph unicode="#" horiz-adv-x="680" d="M214 169h209l42 203h-209zM473 409l42 196q2 8 8.5 12t13.5 2q7 -1 11 -7.5t2 -13.5l-40 -189h152q8 0 13 -5.5t5 -12.5q0 -8 -5.5 -13.5t-12.5 -5.5h-160l-42 -203h153q7 0 12.5 -5.5t5.5 -12.5t-5.5 -12.5t-12.5 -5.5h-161l-42 -198q-4 -16 -21 -13q-17 4 -14 21 l40 190h-209l-42 -198q-4 -16 -21 -13q-17 4 -14 21l40 190h-151q-8 0 -13 5.5t-5 12.5t5 12.5t13 5.5h159l42 203h-152q-7 0 -12.5 5.5t-5.5 13.5q0 7 5.5 12.5t12.5 5.5h160l41 196q2 8 8.5 12t13.5 2q18 -4 14 -21l-40 -189h209z" />
<glyph unicode="$" d="M287 645v61q0 13 14 13q13 0 13 -13v-61q76 -1 136 -28q34 -16 34 -31q0 -20 -21 -20q-5 0 -12.5 3.5t-20 9.5t-24.5 10q-56 18 -102 18q-170 0 -170 -125q0 -67 91 -104q23 -9 94.5 -30t108.5 -41q85 -46 85 -133q0 -83 -53.5 -130.5t-145.5 -52.5v-57q0 -14 -13 -14 q-14 0 -14 14v56q-109 3 -183 53q-20 13 -20 27q0 10 6.5 16.5t16.5 6.5q6 0 12.5 -5t21.5 -15.5t35 -19.5q51 -24 119 -24q82 0 126 38t44 103q0 70 -76 106q-27 13 -93 32t-103 35q-106 46 -106 139q0 75 51.5 117t148.5 46z" />
<glyph unicode="%" horiz-adv-x="631" d="M541 663l-425 -663q-8 -10 -15 -10q-15 0 -15 16q0 6 4 11l425 662q7 10 15 10q15 0 15 -15q0 -6 -4 -11zM303 536q0 52 -36.5 89t-88.5 37t-89 -37t-37 -89t37 -89t89 -37t88.5 37t36.5 89zM331 536q0 -63 -45.5 -108t-107.5 -45q-63 0 -108 44.5t-45 108.5q0 63 45 108 t108 45q62 0 107.5 -45t45.5 -108zM327 143q0 -53 36.5 -89.5t89.5 -36.5q52 0 88 36.5t36 89.5q0 52 -36 89t-88 37t-89 -37t-37 -89zM300 143q0 63 45 108t108 45q62 0 107.5 -45t45.5 -108t-45.5 -108t-107.5 -45q-63 0 -108 44.5t-45 108.5z" />
<glyph unicode="&#x26;" horiz-adv-x="639" d="M395 545q0 46 -25.5 72t-71.5 26t-75 -32.5t-29 -87.5q0 -52 42 -131l27 13.5t32 16.5t28 16.5t29.5 21.5t21 23t17 29.5t4.5 32.5zM424 87q-124 105 -209 251q-62 -32 -95 -67.5t-33 -86.5q0 -78 51.5 -118.5t136.5 -40.5q90 0 149 62zM616 31q15 -3 15 -18 q0 -23 -22 -23q-60 0 -152 72q-72 -72 -185 -72q-102 0 -165.5 50.5t-63.5 144.5q0 65 41 108.5t113 78.5q-46 89 -46 151q0 72 40.5 113.5t107.5 41.5q65 0 101.5 -36t36.5 -98q0 -15 -3.5 -29t-7 -24.5t-14 -23t-16 -20t-21 -18.5t-21 -16t-25 -15.5t-24 -13t-26 -14 t-24.5 -12.5q35 -63 88 -126.5t108 -109.5q46 63 53 186q2 19 20 19q9 0 15.5 -6t6.5 -16q0 -129 -59 -209q75 -57 129 -65z" />
<glyph unicode="'" horiz-adv-x="127" d="M63 488q-13 0 -15 18l-6 119q-1 22 -1 38q0 28 22 28q23 0 23 -28q0 -16 -1 -38l-6 -119q-1 -18 -16 -18z" />
<glyph unicode="(" horiz-adv-x="236" d="M190 -165q-12 0 -19 11q-119 179 -119 448t119 448q8 11 19 11q22 0 22 -22q0 -9 -5 -18q-107 -174 -107 -419q0 -247 107 -419q5 -9 5 -18q0 -22 -22 -22z" />
<glyph unicode=")" horiz-adv-x="236" d="M46 -165q-22 0 -22 22q0 9 5 18q107 172 107 419q0 245 -107 419q-5 9 -5 18q0 22 22 22q11 0 19 -11q118 -180 118 -448t-118 -448q-8 -11 -19 -11z" />
<glyph unicode="*" horiz-adv-x="420" d="M320 571l-87 -24l56 -71l26 -33q15 -18 1 -29q-15 -10 -28 8l-74 111l-50 -75l-23 -36q-16 -17 -29 -8q-13 10 1 29q7 11 25 33l57 71l-128 35q-21 8 -17 24q6 15 28 9q15 -5 40 -14l84 -32l-4 90q-1 23 -1 42q0 24 17 24t17 -24q0 -19 -1 -42l-4 -90l84 32q25 9 40 14 q22 6 27 -9q6 -16 -17 -24q-5 -2 -17.5 -5t-22.5 -6z" />
<glyph unicode="+" horiz-adv-x="553" d="M297 374h200q8 0 14 -6.5t6 -14.5q0 -9 -6 -15t-14 -6h-200v-200q0 -8 -6.5 -14t-14.5 -6q-9 0 -15 6t-6 14v200h-200q-8 0 -14 6t-6 15q0 8 6 14.5t14 6.5h200v200q0 8 6 14t15 6q8 0 14.5 -6t6.5 -14v-200z" />
<glyph unicode="," horiz-adv-x="157" d="M52 -61q0 5 10.5 16.5t10.5 23.5q0 8 -11.5 18t-11.5 23q0 12 8 20.5t22 8.5q36 0 36 -45q0 -29 -19.5 -51.5t-35.5 -22.5q-9 0 -9 9z" />
<glyph unicode="-" horiz-adv-x="489" d="M384 274h-279q-8 0 -14 6t-6 14q0 9 6 15t14 6h279q8 0 14 -6t6 -15q0 -8 -6 -14t-14 -6z" />
<glyph unicode="." horiz-adv-x="149" d="M108 20q0 -13 -8 -21t-20 -8q-13 0 -21.5 8t-8.5 21t8.5 21t21.5 8q12 0 20 -8t8 -21z" />
<glyph unicode="/" horiz-adv-x="354" d="M-10 27l333 647q7 16 22 16q9 0 15.5 -6t6.5 -15q0 -4 -5 -16l-333 -648q-7 -15 -23 -15q-8 0 -14.5 6t-6.5 14q0 9 5 17z" />
<glyph unicode="0" d="M550 340q0 -172 -64 -261t-186 -89q-123 0 -187 89t-64 261t64 261t187 89q122 0 186 -89t64 -261zM502 340q0 157 -53 232q-51 75 -149 75q-99 0 -150 -75q-53 -77 -53 -232t53 -231q52 -76 150 -76q97 0 149 76q53 75 53 231z" />
<glyph unicode="1" d="M339 42h132q8 0 14 -6.5t6 -14.5q0 -9 -6 -15t-14 -6h-321q-9 0 -15 6t-6 15q0 8 6 14.5t15 6.5h141v595l-132 -53q-9 -4 -14 -4q-20 0 -20 21q0 13 17 20l156 65q16 4 19 4q22 0 22 -23v-625z" />
<glyph unicode="2" d="M136 42h355q9 0 15 -6.5t6 -14.5q0 -9 -6 -15t-15 -6h-385q-21 0 -21 23q0 69 13.5 108t47.5 74q37 39 122.5 87t106.5 63q77 56 77 138q0 61 -38 104q-48 53 -129 53q-56 0 -106 -24q-15 -7 -28.5 -16t-21 -13.5t-13.5 -4.5q-20 0 -20 21q0 12 21 27.5t43 24.5 q62 25 128 25q100 0 162 -67q48 -53 48 -129q0 -98 -90 -167q-26 -19 -108 -65t-118 -82q-26 -26 -36 -55.5t-10 -82.5z" />
<glyph unicode="3" d="M482 182q0 -86 -61.5 -139t-161.5 -53q-63 0 -116 14q-66 19 -66 43q0 9 6 15.5t15 6.5q6 0 14.5 -3.5t21.5 -10t25 -10.5q43 -15 97 -15q83 0 132 42.5t49 112.5q0 101 -103 136q-33 11 -80 11q-23 0 -23 20t20 20q50 0 86 15q77 32 77 119q0 61 -42 101.5t-110 40.5 q-54 0 -97 -20q-12 -6 -24 -13t-18.5 -10.5t-11.5 -3.5q-9 0 -15.5 6.5t-6.5 14.5q0 11 9 18.5t30 18.5q62 31 136 31q88 0 141.5 -51t53.5 -128q0 -120 -116 -156q67 -17 103 -62t36 -111z" />
<glyph unicode="4" d="M387 606l-275 -397h275v397zM434 209h93q8 0 13.5 -6t5.5 -14t-5.5 -14t-13.5 -6h-93v-156q0 -9 -7 -16t-17 -7t-16.5 7t-6.5 16v156h-316q-8 0 -13.5 6t-5.5 14t5 15l327 469q12 17 27 17q23 0 23 -24v-457z" />
<glyph unicode="5" d="M85 75q0 9 6.5 15t14.5 6q5 0 12 -5t18.5 -14.5t21.5 -15.5q49 -31 127 -31q80 0 131 51.5t51 128.5q0 78 -46 128.5t-119 50.5q-61 0 -108 -31q-16 -11 -31 -24.5t-22.5 -19.5t-13.5 -6q-20 0 -20 20q0 3 2 27l24 307q2 19 20 19h322q9 0 14.5 -6t5.5 -15t-5.5 -15 t-14.5 -6h-299l-22 -269q67 60 153 60q94 0 150.5 -62t56.5 -158q0 -94 -64 -157t-165 -63q-99 0 -161 41q-39 25 -39 44z" />
<glyph unicode="6" d="M75 307q0 47 5 92t21.5 100t43.5 95.5t76 68t113 27.5q72 0 121 -18q52 -20 52 -39q0 -9 -6 -15.5t-16 -6.5q-6 0 -28.5 10.5t-41.5 15.5q-38 11 -81 11q-143 0 -191 -175q-18 -66 -20 -171q62 111 188 111q99 0 154 -57.5t55 -151.5t-58.5 -154t-154.5 -60 q-63 0 -109.5 25t-72.5 70t-38 100t-12 122zM124 246q18 -214 183 -214q77 0 122 48t45 123q0 76 -43.5 122t-124.5 46q-62 0 -109.5 -34t-72.5 -91z" />
<glyph unicode="7" d="M102 681h397q9 0 15 -6.5t6 -14.5q0 -7 -8 -23l-297 -631q-8 -21 -30 -14q-10 3 -14.5 12.5t0.5 19.5l260 544q15 36 37 71h-344v-95q0 -9 -6.5 -15t-15.5 -6t-15 6t-6 15v116q0 8 6 14.5t15 6.5z" />
<glyph unicode="8" d="M487 175q0 33 -15.5 59.5t-45.5 46t-59 32t-70 26.5q-81 -26 -132 -64t-51 -100q0 -68 48 -106.5t139 -38.5t138.5 38t47.5 107zM463 523q0 61 -42 95t-120 34q-79 0 -121 -33.5t-42 -93.5q0 -29 14.5 -53t42 -41.5t51 -28t56.5 -21.5q72 26 116.5 59t44.5 83zM349 361 q39 -16 66 -29.5t57.5 -36t46 -54t15.5 -69.5q0 -86 -62 -134t-171 -48q-110 0 -172 47.5t-62 134.5q0 40 17 72t48.5 54.5t57 36t60.5 26.5q-33 13 -56.5 25.5t-49 32t-39 46.5t-13.5 60q0 77 55 121t153 44t153.5 -44t55.5 -121q0 -61 -44.5 -98.5t-115.5 -65.5z" />
<glyph unicode="9" d="M523 373q0 -47 -5 -92.5t-22 -100t-44 -95t-76 -68t-113 -27.5q-72 0 -121 19q-52 18 -52 37q0 10 6.5 16.5t16.5 6.5q6 0 28.5 -10.5t41.5 -15.5q36 -11 81 -11q142 0 190 174q18 63 20 172q-62 -111 -187 -111q-100 0 -155 57t-55 152q0 94 59 154t155 60 q63 0 109.5 -25t72.5 -70t38 -100t12 -122zM473 434q-16 214 -182 214q-77 0 -122 -48t-45 -123q0 -77 43 -123t124 -46q62 0 109.5 34.5t72.5 91.5z" />
<glyph unicode=":" horiz-adv-x="157" d="M109 20q0 -13 -8.5 -21t-20.5 -8q-13 0 -21.5 8t-8.5 21t8.5 21t21.5 8q12 0 20.5 -8t8.5 -21zM109 428q0 -13 -8.5 -21t-20.5 -8q-13 0 -21.5 8t-8.5 21t8.5 21t21.5 8q12 0 20.5 -8t8.5 -21z" />
<glyph unicode=";" horiz-adv-x="157" d="M52 -61q0 5 10.5 16.5t10.5 23.5q0 8 -11.5 18t-11.5 23q0 12 8 20.5t22 8.5q36 0 36 -45q0 -30 -19 -52t-36 -22q-9 0 -9 9zM110 428q0 -13 -8.5 -21t-20.5 -8q-13 0 -21.5 8t-8.5 21t8.5 21t21.5 8q12 0 20.5 -8t8.5 -21z" />
<glyph unicode="&#x3c;" horiz-adv-x="606" d="M72 386l439 200q12 4 16 4q10 0 16 -6.5t6 -16.5q0 -15 -15 -21l-431 -193l431 -193q15 -6 15 -21q0 -10 -6.5 -16.5t-15.5 -6.5q-8 0 -16 4l-439 200q-27 12 -27 33q0 22 27 33z" />
<glyph unicode="=" horiz-adv-x="552" d="M497 210h-442q-8 0 -14 6t-6 15q0 8 6 14.5t14 6.5h442q8 0 14 -6.5t6 -14.5q0 -9 -6 -15t-14 -6zM497 454h-442q-8 0 -14 6t-6 15q0 8 6 14.5t14 6.5h442q8 0 14 -6.5t6 -14.5q0 -9 -6 -15t-14 -6z" />
<glyph unicode="&#x3e;" horiz-adv-x="607" d="M95 586l439 -200q27 -11 27 -33q0 -21 -27 -33l-439 -200q-8 -4 -16 -4q-9 0 -15.5 6.5t-6.5 16.5q0 15 15 21l431 193l-431 193q-15 6 -15 21q0 10 6 16.5t16 6.5q4 0 16 -4z" />
<glyph unicode="?" horiz-adv-x="474" d="M244 20q0 -13 -8.5 -21t-20.5 -8q-13 0 -21.5 8t-8.5 21t8.5 21t21.5 8q12 0 20.5 -8t8.5 -21zM21 590q0 18 46 48q79 52 169 52q88 0 147 -54t59 -141q0 -56 -25.5 -90.5t-77.5 -72.5q-29 -21 -45 -35t-33 -40.5t-20 -56.5q-2 -23 -7 -32.5t-18 -9.5q-9 0 -15 7t-6 17 q0 38 17 75q8 20 24 38.5t28 29.5t38.5 31.5t37.5 29.5q57 48 57 109q0 70 -46 112t-117 42q-76 0 -143 -46q-11 -8 -22 -17.5t-16.5 -12.5t-11.5 -3q-8 0 -14 6t-6 14z" />
<glyph unicode="@" horiz-adv-x="801" d="M517 221v134q-106 -4 -169 -24q-79 -26 -79 -86q0 -42 34 -66q31 -23 79 -23q95 0 135 65zM393 519q-47 0 -81 -18q-10 -5 -18 -11t-12.5 -8.5t-8.5 -2.5q-14 0 -14 13q0 12 37 30q42 22 97 22q66 0 106 -38q45 -42 45 -126v-176q0 -47 39 -47q59 0 101 65.5t42 170.5 q0 126 -85.5 200.5t-219.5 74.5q-142 0 -243.5 -97.5t-101.5 -232.5q0 -151 97.5 -242.5t251.5 -91.5q118 0 213 36q39 16 42 16q12 0 12 -12q0 -10 -43 -26q-104 -37 -224 -37q-164 0 -269 98.5t-105 259.5q0 144 109 248t261 104q143 0 236.5 -81t93.5 -216 q0 -109 -48.5 -184.5t-123.5 -75.5q-56 0 -59 57q-45 -58 -138 -58q-56 0 -95 27q-46 31 -46 86q0 77 101 108q59 18 175 23q0 75 -35 110q-33 32 -89 32z" />
<glyph unicode="A" horiz-adv-x="617" d="M308 625l-167 -403h335zM561 10l-72 173h-361l-73 -173q-6 -20 -25 -20q-22 0 -22 22q0 4 4 16l265 638q9 24 32 24t32 -24l265 -638q3 -7 3 -15q0 -23 -23 -23q-17 0 -25 20z" />
<glyph unicode="B" horiz-adv-x="640" d="M588 180q0 -90 -64.5 -135t-160.5 -45h-261q-10 0 -17 7t-7 16v635q0 9 7 16t17 7h223q87 0 147 -44t60 -129q0 -112 -92 -152v-2q71 -13 109.5 -59.5t38.5 -114.5zM483 504q0 67 -47 102t-116 35h-194v-275h214q64 0 103.5 34.5t39.5 103.5zM540 185q0 60 -41.5 100.5 t-117.5 40.5h-255v-286h230q80 0 131.5 35t52.5 110z" />
<glyph unicode="C" horiz-adv-x="662" d="M618 612q0 -9 -6.5 -15.5t-15.5 -6.5q-6 0 -15.5 6t-26.5 15.5t-36 16.5q-53 19 -117 19q-122 0 -211.5 -91t-89.5 -215q0 -135 88.5 -221.5t213.5 -86.5q62 0 117 19q20 7 37 17t26.5 15.5t15.5 5.5q9 0 15.5 -6.5t6.5 -15.5q0 -20 -43 -40q-76 -38 -175 -38 q-146 0 -248.5 98t-102.5 253q0 142 104 245.5t246 103.5q98 0 174 -38q43 -20 43 -40z" />
<glyph unicode="D" horiz-adv-x="736" d="M685 340q0 -191 -141 -280q-94 -60 -237 -60h-205q-10 0 -17 7t-7 16v635q0 9 7 16t17 7h220q188 0 286 -109q77 -88 77 -232zM126 640v-599h175q125 0 207 51q129 79 129 248q0 124 -70 204q-86 96 -254 96h-187z" />
<glyph unicode="E" horiz-adv-x="589" d="M126 319v-277h411q8 0 14 -6t6 -15t-6 -15t-14 -6h-435q-10 0 -17 7t-7 16v635q0 9 7 16t17 7h435q8 0 14 -6.5t6 -14.5q0 -9 -6 -15t-14 -6h-411v-277h359q9 0 15 -6.5t6 -14.5q0 -9 -6 -15.5t-15 -6.5h-359z" />
<glyph unicode="F" horiz-adv-x="551" d="M102 681h403q9 0 15 -6.5t6 -14.5q0 -9 -6 -15t-15 -6h-379v-277h328q9 0 15 -6.5t6 -14.5q0 -9 -6 -15.5t-15 -6.5h-328v-306q0 -9 -7 -16t-17 -7t-17 7t-7 16v645q0 9 7 16t17 7z" />
<glyph unicode="G" horiz-adv-x="738" d="M388 323h251q22 0 22 -23v-287q0 -10 -6 -16.5t-16 -6.5q-23 0 -23 23v46q-94 -69 -216 -69q-148 0 -248.5 94t-100.5 257q0 142 103 245.5t247 103.5q92 0 173 -38q43 -20 43 -40q0 -9 -6.5 -15.5t-15.5 -6.5q-8 0 -17.5 5.5t-28 16t-41.5 18.5q-51 17 -107 17 q-123 0 -212 -91t-89 -215q0 -139 86.5 -223.5t214.5 -84.5q129 0 215 74v174h-228q-8 0 -14 6t-6 15q0 8 6 14.5t14 6.5z" />
<glyph unicode="H" horiz-adv-x="711" d="M78 13v654q0 9 7 16t17 7t17 -7t7 -16v-304h459v304q0 9 7 16t17 7t17 -7t7 -16v-654q0 -9 -7 -16t-17 -7t-17 7t-7 16v307h-459v-307q0 -9 -7 -16t-17 -7t-17 7t-7 16z" />
<glyph unicode="I" horiz-adv-x="204" d="M78 13v654q0 9 7 16t17 7t17 -7t7 -16v-654q0 -9 -7 -16t-17 -7t-17 7t-7 16z" />
<glyph unicode="J" horiz-adv-x="503" d="M428 667v-422q0 -124 -68 -189q-69 -66 -179 -66q-89 0 -159 59q-11 9 -11 21q0 9 6.5 15.5t15.5 6.5q10 0 18 -8q60 -52 129 -52q94 0 149 59q51 54 51 156v420q0 9 7 16t17 7t17 -7t7 -16z" />
<glyph unicode="K" horiz-adv-x="580" d="M519 649l-276 -268l305 -353q5 -6 5 -15t-6.5 -16t-15.5 -7q-14 0 -27 15l-294 343l-84 -81v-254q0 -9 -7 -16t-17 -7t-17 7t-7 16v654q0 9 7 16t17 7t17 -7t7 -16v-341l359 355q9 9 20 9q9 0 15.5 -6.5t6.5 -16.5q0 -9 -8 -18z" />
<glyph unicode="L" horiz-adv-x="529" d="M78 23v644q0 9 7 16t17 7t17 -7t7 -16v-625h364q8 0 14 -6t6 -15t-6 -15t-14 -6h-388q-10 0 -17 7t-7 16z" />
<glyph unicode="M" horiz-adv-x="828" d="M78 661q0 12 8.5 20.5t20.5 8.5q17 0 26 -16l281 -455l281 455q11 16 27 16q12 0 20 -8.5t8 -20.5v-648q0 -9 -6.5 -16t-16.5 -7t-17 7t-7 16v585l-265 -426q-9 -15 -24 -15t-24 15l-265 426v-585q0 -9 -6.5 -16t-16.5 -7t-17 7t-7 16v648z" />
<glyph unicode="N" horiz-adv-x="738" d="M660 668v-652q0 -11 -8 -18.5t-19 -7.5q-14 0 -26 15l-482 600v-593q0 -9 -6.5 -15.5t-16.5 -6.5t-17 6.5t-7 15.5v652q0 11 8 18.5t19 7.5q13 0 25 -15l484 -600v593q0 9 6.5 15.5t16.5 6.5t16.5 -6.5t6.5 -15.5z" />
<glyph unicode="O" horiz-adv-x="805" d="M754 339q0 -144 -103.5 -246.5t-248.5 -102.5q-146 0 -248.5 102t-102.5 247t103 248t248 103t248.5 -103t103.5 -248zM704 339q0 125 -88 215.5t-214 90.5q-125 0 -213 -90.5t-88 -215.5t88 -215t213 -90q126 0 214 90t88 215z" />
<glyph unicode="P" horiz-adv-x="615" d="M102 681h243q93 0 154 -46q79 -60 79 -171q0 -55 -22.5 -101t-62.5 -74q-58 -42 -163 -42h-204v-234q0 -9 -7 -16t-17 -7t-17 7t-7 16v644q0 10 7 17t17 7zM529 464q0 93 -65 139q-51 36 -127 36h-211v-350h196q88 0 136 32q71 48 71 143z" />
<glyph unicode="Q" horiz-adv-x="806" d="M361 -15q0 5 1 7q-132 15 -221.5 114t-89.5 233q0 145 103.5 248t248.5 103t248.5 -103t103.5 -248q0 -134 -91 -233.5t-223 -113.5q4 -7 45 -20q172 -53 231 -68q5 -1 12 -3t11 -3l10 -2.5t9 -3t7 -3t6 -3.5l4 -4t3 -5t1 -6q0 -20 -28 -20q-13 0 -38.5 6t-67.5 19 t-76 24.5t-96.5 32.5t-96.5 32q-16 6 -16 20zM704 339q0 125 -87.5 215.5t-213.5 90.5t-214 -90.5t-88 -215.5q0 -126 88 -215.5t214 -89.5t213.5 90t87.5 215z" />
<glyph unicode="R" horiz-adv-x="637" d="M126 280v-267q0 -9 -7 -16t-17 -7t-17 7t-7 16v644q0 10 7 17t17 7h242q107 0 163 -35q81 -51 81 -166q0 -107 -81 -161q-52 -35 -128 -38l204 -252q6 -9 6 -16q0 -9 -7.5 -16t-17.5 -7q-14 0 -22 11l-222 279h-194zM335 640h-209v-319h208q91 0 137 26q68 40 68 133 q0 95 -67 134q-43 26 -137 26z" />
<glyph unicode="S" horiz-adv-x="545" d="M474 627q0 -22 -23 -22q-6 0 -14.5 3.5t-22 10.5t-27.5 11q-52 18 -106 18q-181 0 -181 -133q0 -75 104 -114q26 -10 97.5 -30t109.5 -40q93 -50 93 -145q0 -93 -63 -144.5t-169 -51.5q-105 0 -201 54q-24 13 -24 31q0 11 7 17.5t17 6.5q7 0 14.5 -5t24 -15.5t37.5 -20.5 q57 -26 125 -26q87 0 134 40.5t47 109.5q0 76 -87 116q-31 14 -99 33.5t-107 36.5q-110 48 -110 146q0 84 60 130t173 46q87 0 154 -30q37 -16 37 -33z" />
<glyph unicode="T" horiz-adv-x="547" d="M526 639h-228v-626q0 -9 -7 -16t-17 -7t-17 7t-7 16v626h-229q-9 0 -15 6t-6 15q0 8 6 14.5t15 6.5h505q9 0 15 -6.5t6 -14.5q0 -9 -6 -15t-15 -6z" />
<glyph unicode="U" horiz-adv-x="721" d="M360 33q113 0 177 67q59 64 59 176v391q0 9 7 16t17 7t17 -7t7 -16v-398q0 -123 -67 -196q-77 -83 -217 -83q-139 0 -216 83q-67 73 -67 196v398q0 9 7 16t17 7t17 -7t7 -16v-391q0 -112 59 -176q64 -67 176 -67z" />
<glyph unicode="V" horiz-adv-x="604" d="M301 56l249 616q7 18 24 18q10 0 17 -6.5t7 -16.5q0 -4 -4 -14l-260 -638q-11 -25 -33 -25q-23 0 -32 25l-260 638q-3 12 -3 13q0 10 7 17t17 7q17 0 24 -18z" />
<glyph unicode="W" horiz-adv-x="1020" d="M752 56l214 616q5 18 24 18q10 0 17 -6.5t7 -16.5q0 -2 -4 -14l-225 -638q-8 -25 -33 -25t-33 25l-210 586l-209 -586q-7 -25 -32 -25t-33 25l-226 638q-3 9 -3 14q0 10 7 16.5t17 6.5q19 0 24 -19l214 -615l216 614q7 20 26 20q20 0 25 -20z" />
<glyph unicode="X" horiz-adv-x="607" d="M56 675l248 -297l248 297q11 15 24 15q10 0 18.5 -7.5t8.5 -17.5q0 -8 -9 -19l-259 -306l261 -306q8 -10 8 -19q0 -10 -8 -17.5t-18 -7.5q-13 0 -24 14l-249 299l-250 -299q-11 -14 -24 -14q-10 0 -18.5 7.5t-8.5 17.5q0 8 9 19l261 306l-260 306q-8 10 -8 19 q0 10 8 17.5t18 7.5q13 0 24 -15z" />
<glyph unicode="Y" horiz-adv-x="565" d="M557 649l-251 -342v-294q0 -9 -7 -16t-17 -7t-17 7t-7 16v294l-250 342q-6 7 -6 19q0 9 6.5 15.5t16.5 6.5q13 0 23 -14l234 -322l236 322q11 14 22 14q10 0 16.5 -6.5t6.5 -16.5q0 -9 -6 -18z" />
<glyph unicode="Z" horiz-adv-x="540" d="M25 681h467q10 0 16 -6.5t6 -14.5t-5 -16l-425 -602h428q8 0 14 -6t6 -15t-6 -15t-14 -6h-471q-9 0 -15 6t-6 15q0 7 6 17l425 601h-426q-8 0 -14.5 6t-6.5 15q0 8 6.5 14.5t14.5 6.5z" />
<glyph unicode="[" horiz-adv-x="294" d="M98 741h149q8 0 14 -6t6 -14q0 -9 -6 -15t-14 -6h-127v-821h127q8 0 14 -6t6 -15q0 -8 -6 -13.5t-14 -5.5h-149q-9 0 -15.5 6.5t-6.5 15.5v857q0 9 6.5 16t15.5 7z" />
<glyph unicode="\" horiz-adv-x="249" d="M22 661q-5 21 15 28q22 5 28 -17l183 -654q3 -8 -1.5 -16t-13.5 -11q-8 -2 -16.5 2.5t-10.5 13.5z" />
<glyph unicode="]" horiz-adv-x="293" d="M46 741h149q9 0 15.5 -7t6.5 -16v-857q0 -9 -6.5 -15.5t-15.5 -6.5h-149q-8 0 -14 6t-6 13q0 9 6 15t14 6h127v821h-127q-8 0 -14 6t-6 15q0 7 6 13.5t14 6.5z" />
<glyph unicode="^" horiz-adv-x="486" d="M243 730q12 0 20 -11l174 -274q5 -8 5 -14q0 -8 -6 -14t-14 -6q-10 0 -18 11l-161 255l-161 -255q-8 -11 -18 -11q-8 0 -14 6t-6 14q0 6 5 14l174 274q8 11 20 11z" />
<glyph unicode="_" horiz-adv-x="497" d="M0 -94h497q18 0 18 -18t-18 -18h-497q-19 0 -19 18q0 8 5.5 13t13.5 5z" />
<glyph unicode="`" horiz-adv-x="392" d="M261 585q0 -14 -15 -14q-11 0 -18 13l-91 150q-6 12 -6 16q0 8 5.5 13t13.5 5q12 0 19 -15l88 -155q4 -7 4 -13z" />
<glyph unicode="a" horiz-adv-x="470" d="M47 119q0 86 96 120q59 21 214 32v15q0 65 -28 99q-29 35 -94 35q-53 0 -100 -20q-11 -5 -21.5 -11t-16 -8.5t-10.5 -2.5q-17 0 -17 18q0 16 43 36q55 25 125 25q86 0 127 -47q36 -44 36 -124v-275q0 -9 -6.5 -15t-15.5 -6t-15.5 6t-6.5 15v13q-67 -34 -143 -34 q-66 0 -116.5 32.5t-50.5 96.5zM225 25q70 0 132 37v174q-133 -8 -180 -22q-89 -28 -89 -92q0 -49 40.5 -73t96.5 -24z" />
<glyph unicode="b" horiz-adv-x="519" d="M120 668v-246q61 35 138 35q96 0 155 -63q57 -62 57 -170q0 -94 -50 -152q-70 -82 -209 -82q-56 0 -112 7q-23 4 -23 29v642q0 9 6.5 15.5t15.5 6.5t15.5 -6.5t6.5 -15.5zM120 384v-352q54 -6 94 -6q114 0 171 69q41 49 41 129q0 96 -51 147q-48 49 -124 49 q-72 0 -131 -36z" />
<glyph unicode="c" horiz-adv-x="466" d="M424 403q0 -7 -5.5 -13t-12.5 -6t-31 12q-38 19 -89 19q-92 0 -149 -65q-44 -52 -44 -127q0 -88 52 -140q54 -54 141 -54q58 0 92 17q24 12 31 12t12 -5.5t5 -12.5q0 -16 -29 -29q-47 -21 -112 -21q-110 0 -174 66q-63 65 -63 168q0 89 53 150q68 82 184 82q62 0 114 -25 q25 -13 25 -28z" />
<glyph unicode="d" horiz-adv-x="509" d="M307 37h82v360q-60 23 -117 23q-94 0 -145 -76q-34 -49 -34 -120q0 -79 43 -125q55 -62 171 -62zM409 0h-106q-133 0 -201 74q-54 57 -54 149q0 87 44 146q61 88 178 88q59 0 119 -22v234q0 9 6.5 15t15.5 6t15.5 -6t6.5 -15v-646q0 -23 -24 -23z" />
<glyph unicode="e" horiz-adv-x="524" d="M441 76q7 0 12 -6t5 -13q0 -13 -27 -29q-67 -38 -150 -38q-112 0 -178 77q-55 65 -55 163q0 96 58 160q59 67 163 67q95 0 154 -64q54 -59 54 -150q0 -28 -26 -28h-357q3 -75 42 -121q52 -66 147 -66q71 0 124 30q6 3 12 7l9 6t6.5 3.5t6.5 1.5zM94 249h340 q-1 75 -43 118q-45 52 -122 52q-87 0 -134 -58q-38 -44 -41 -112z" />
<glyph unicode="f" horiz-adv-x="326" d="M143 448h146q7 0 12 -5t5 -12q0 -18 -17 -18h-146v-402q0 -9 -6.5 -15t-15.5 -6t-15.5 6t-6.5 15v402h-56q-17 0 -17 18q0 7 5 12t12 5h56v93q0 149 125 149q48 0 90 -21q33 -17 33 -34q0 -19 -18 -19q-3 0 -33.5 17t-64.5 17q-49 0 -68.5 -27t-19.5 -84v-91z" />
<glyph unicode="g" horiz-adv-x="514" d="M73 -149q0 19 18 19q5 0 9 -2t7 -5t10 -9.5t15 -12.5q42 -34 106 -34q81 0 119 44q37 44 37 127v67q-59 -54 -148 -54q-87 0 -142 63q-56 67 -56 171t56 169q53 63 141 63q82 0 149 -52v31q0 9 6.5 15t15.5 6t15.5 -6t6.5 -15v-452q0 -105 -51 -159q-49 -54 -148 -54 q-77 0 -128 38q-38 24 -38 42zM250 30q87 0 144 57v277q-66 55 -144 55q-72 0 -115 -55q-42 -52 -42 -139q0 -88 42 -142q42 -53 115 -53z" />
<glyph unicode="h" horiz-adv-x="542" d="M430 11v241q0 93 -43 132q-36 33 -104 33q-91 0 -135 -79q-28 -53 -28 -113v-214q0 -9 -6.5 -15t-15.5 -6t-15.5 6t-6.5 15v658q0 9 6.5 15t15.5 6t15.5 -6t6.5 -15v-312q49 100 170 100q82 0 129 -39q54 -48 54 -155v-252q0 -9 -6.5 -15t-15.5 -6t-15 6t-6 15z" />
<glyph unicode="i" horiz-adv-x="196" d="M76 436q0 9 6.5 15t15.5 6t15.5 -6t6.5 -15v-425q0 -9 -6.5 -15t-15.5 -6t-15.5 6t-6.5 15v425zM97 643q-12 0 -20 8t-8 20q0 11 8 19t20 8q11 0 19 -8t8 -19q0 -12 -8 -20t-19 -8z" />
<glyph unicode="j" horiz-adv-x="196" d="M76 -29v465q0 9 6.5 15t15.5 6t15.5 -6t6.5 -15v-487q0 -94 -34 -140q-11 -16 -29 -27t-34 -11q-22 0 -22 20q0 8 7 12t20 12.5t24 23.5q24 33 24 132zM97 643q-12 0 -20 8t-8 20q0 11 8 19t20 8q11 0 19 -8t8 -19q0 -12 -8 -20t-19 -8z" />
<glyph unicode="k" horiz-adv-x="448" d="M407 422l-186 -171l201 -228q5 -5 5 -13q0 -9 -6 -14.5t-14 -5.5q-11 0 -20 11l-197 223l-70 -66v-147q0 -9 -6.5 -15t-15.5 -6t-15.5 6t-6.5 15v657q0 9 6.5 15t15.5 6t15.5 -6t6.5 -15v-459l259 241q7 7 15 7q9 0 14.5 -6t5.5 -14t-7 -15z" />
<glyph unicode="l" horiz-adv-x="196" d="M76 11v657q0 9 6.5 15.5t15.5 6.5t15.5 -6.5t6.5 -15.5v-657q0 -9 -6.5 -15t-15.5 -6t-15.5 6t-6.5 15z" />
<glyph unicode="m" horiz-adv-x="807" d="M76 436q0 9 6.5 15t15.5 6t15.5 -6t6.5 -15v-57q42 78 143 78q69 0 109 -36q33 -28 44 -72q19 53 59 81q38 27 97 27q77 0 120 -43q46 -46 46 -137v-266q0 -9 -6.5 -15t-15.5 -6t-15.5 6t-6.5 15v255q0 79 -36 117q-33 34 -94 34q-71 0 -105 -55q-30 -46 -30 -132v-219 q0 -9 -6.5 -15t-15.5 -6t-15.5 6t-6.5 15v255q0 79 -36 117q-33 34 -94 34q-71 0 -105 -54q-30 -47 -30 -121v-231q0 -9 -6.5 -15t-15.5 -6t-15.5 6t-6.5 15v425z" />
<glyph unicode="n" horiz-adv-x="542" d="M430 11v241q0 93 -43 132q-36 33 -104 33q-91 0 -135 -79q-28 -53 -28 -113v-214q0 -9 -6.5 -15t-15.5 -6t-15.5 6t-6.5 15v425q0 9 6.5 15t15.5 6t15.5 -6t6.5 -15v-79q49 100 170 100q82 0 129 -39q54 -48 54 -155v-252q0 -9 -6.5 -15t-15.5 -6t-15 6t-6 15z" />
<glyph unicode="o" horiz-adv-x="568" d="M92 224q0 -81 49 -136q56 -61 143 -61q86 0 142 61q50 56 50 136q0 79 -50 135q-57 62 -142 62q-86 0 -143 -62q-49 -55 -49 -135zM48 224q0 97 64 163q67 70 172 70q104 0 171 -70q64 -66 64 -163q0 -98 -64 -164q-68 -70 -171 -70q-104 0 -172 70q-64 66 -64 164z" />
<glyph unicode="p" horiz-adv-x="514" d="M120 414v-361q53 -27 120 -27q79 0 131 55q50 52 50 144q0 89 -56 142q-59 54 -157 54q-50 0 -88 -7zM102 449q48 8 103 8q117 0 187 -62q73 -63 73 -170q0 -102 -58 -167q-65 -68 -164 -68q-71 0 -123 26v-226q0 -9 -6.5 -15t-15.5 -6t-15.5 6t-6.5 15v629q0 25 26 30z " />
<glyph unicode="q" horiz-adv-x="511" d="M391 223v190q-50 8 -88 8q-118 0 -173 -70q-38 -49 -38 -126q0 -99 47 -151q42 -48 113 -48q68 0 102 45q37 48 37 152zM435 416v-628q0 -8 -6.5 -14.5t-15.5 -6.5t-15.5 6.5t-6.5 14.5v285q-41 -83 -144 -83q-85 0 -138 55q-61 66 -61 179q0 93 52 153q67 80 206 80 q51 0 105 -10q24 -5 24 -31z" />
<glyph unicode="r" horiz-adv-x="353" d="M255 457q50 0 84 -22q24 -16 24 -31q0 -8 -6 -13.5t-14 -5.5q-5 0 -9.5 2t-14 8t-19.5 11q-22 11 -51 11q-56 0 -91 -48q-38 -52 -38 -129v-229q0 -9 -6.5 -15t-15.5 -6t-15.5 6t-6.5 15v425q0 9 6.5 15t15.5 6t15.5 -6t6.5 -15v-71h1q15 42 50.5 67t83.5 25z" />
<glyph unicode="s" horiz-adv-x="397" d="M345 412q0 -8 -5.5 -13.5t-12.5 -5.5q-8 0 -37 12q-37 15 -80 15q-116 0 -116 -77q0 -47 59 -73q17 -7 58.5 -22t56.5 -22q44 -20 67 -44.5t23 -65.5q0 -60 -42 -93t-114 -33q-77 0 -130 30q-32 16 -32 34q0 7 5.5 13t12.5 6q4 0 8 -1.5t7 -3.5t9 -6.5l10 -7.5 q43 -28 109 -28q53 0 82 22.5t29 64.5q0 32 -18 49.5t-56 34.5q-13 6 -54.5 20.5t-60.5 23.5q-74 33 -74 102q0 54 41 84t117 30q60 0 101 -16q37 -14 37 -29z" />
<glyph unicode="t" horiz-adv-x="333" d="M37 448h49v79q0 9 6.5 15t15.5 6t15.5 -6t6.5 -15v-79h162q7 0 12 -5t5 -12t-5 -12.5t-12 -5.5h-162v-270q0 -58 22.5 -86.5t77.5 -28.5q32 0 62 17t34 17q7 0 12 -5t5 -12q0 -17 -40 -37q-38 -18 -80 -18q-137 0 -137 150v273h-49q-17 0 -17 18q0 7 5 12t12 5z" />
<glyph unicode="u" horiz-adv-x="535" d="M69 187v249q0 9 6.5 15t15.5 6t15.5 -6t6.5 -15v-243q0 -62 21 -101q35 -61 133 -61q99 0 134 61q21 37 21 101v243q0 9 6.5 15t15.5 6t15.5 -6t6.5 -15v-249q0 -76 -30 -123q-45 -74 -169 -74q-123 0 -168 74q-30 47 -30 123z" />
<glyph unicode="v" horiz-adv-x="424" d="M51 437l160 -394h3l160 395q8 19 22 19q22 0 22 -20q0 -7 -6 -21l-168 -399q-11 -27 -33 -27t-33 27l-167 399q-5 13 -5 20q0 21 23 21q15 0 22 -20z" />
<glyph unicode="w" horiz-adv-x="687" d="M366 437l134 -387l140 388q5 19 21 19q20 0 20 -20q0 -7 -3 -17l-148 -404q-8 -24 -30 -24q-23 0 -28 24l-129 366l-130 -366q-7 -24 -29 -24t-29 24l-146 404q-3 9 -3 16q0 9 7 15t16 6q15 0 20 -21l137 -386l135 387q4 20 23 20q18 0 22 -20z" />
<glyph unicode="x" horiz-adv-x="434" d="M429 12q0 -9 -6.5 -15.5t-16.5 -6.5q-14 0 -25 15l-164 193l-165 -195q-13 -13 -24 -13q-10 0 -16.5 6.5t-6.5 15.5q0 7 15 24l169 193l-163 185q-12 14 -12 22q0 9 6.5 15t16.5 6q12 0 23 -13l157 -184l157 183q10 14 23 14q10 0 16 -6t6 -15q0 -7 -11 -20l-164 -185 l174 -197q11 -14 11 -22z" />
<glyph unicode="y" horiz-adv-x="439" d="M410 457q9 0 16 -6.5t7 -15.5t-6 -23l-175 -435q-40 -101 -89.5 -154t-121.5 -53q-10 0 -16 6.5t-6 15.5t6 15.5t16 6.5q56 0 93 40t71 122l-194 440q-5 12 -5 18q0 10 7 16.5t17 6.5q16 0 22 -15l175 -411l161 408q8 18 22 18z" />
<glyph unicode="z" horiz-adv-x="378" d="M74 38h285q7 0 13 -6t6 -13q0 -8 -5.5 -13.5t-13.5 -5.5h-326q-19 0 -19 17q0 8 9 19l283 375h-282q-19 0 -19 19q0 7 6 12.5t13 5.5h323q18 0 18 -16q0 -10 -10 -22z" />
<glyph unicode="{" horiz-adv-x="295" d="M18 318q0 21 15 21h4q97 0 97 158q0 27 -1.5 86.5t-1.5 71.5q0 71 30.5 102t90.5 31q19 0 19 -19q0 -16 -19 -18q-37 -2 -57.5 -21.5t-20.5 -79.5q0 -16 1.5 -73.5t1.5 -83.5q0 -147 -94 -175q94 -28 94 -175q0 -25 -1.5 -82.5t-1.5 -73.5q0 -60 20.5 -80t57.5 -21 q19 -2 19 -19q0 -19 -19 -19q-60 0 -90.5 31t-30.5 102q0 13 1.5 72.5t1.5 85.5q0 158 -97 158h-4q-15 0 -15 21z" />
<glyph unicode="|" horiz-adv-x="202" d="M80 -206v874q0 9 6 15.5t16 6.5t16.5 -6.5t6.5 -15.5v-874q0 -9 -6.5 -15.5t-16.5 -6.5t-16.5 6.5t-5.5 15.5z" />
<glyph unicode="}" horiz-adv-x="295" d="M277 318q0 -21 -15 -21h-4q-98 0 -98 -158q0 -26 2 -85.5t2 -72.5q0 -71 -30.5 -102t-90.5 -31q-19 0 -19 19q0 17 19 19q37 1 57.5 21t20.5 80q0 16 -1.5 73.5t-1.5 82.5q0 147 94 175q-94 28 -94 175q0 26 1.5 83.5t1.5 73.5q0 60 -20.5 79.5t-57.5 21.5q-19 2 -19 18 q0 19 19 19q60 0 90.5 -31t30.5 -102q0 -12 -2 -71.5t-2 -86.5q0 -158 98 -158h4q15 0 15 -21z" />
<glyph unicode="~" horiz-adv-x="552" d="M504 314q0 -26 -35.5 -54t-86.5 -28q-41 0 -101 38.5t-100 38.5q-25 0 -44 -9t-27.5 -20.5t-17.5 -20.5t-18 -9q-20 0 -20 21q0 26 36 54t86 28q40 0 76 -19.5t67 -39t58 -19.5q25 0 44 9.5t27.5 20.5t17.5 20.5t18 9.5q20 0 20 -21z" />
<glyph unicode="&#xa1;" horiz-adv-x="208" d="M76 428q0 13 8 21t21 8t21 -8t8 -21t-8 -21t-21 -8t-21 8t-8 21zM73 -172q0 17 2 54t2 45l12 332q1 23 16 23q14 0 15 -23l12 -332q0 -8 2 -45t2 -54q0 -70 -31 -70q-32 0 -32 70z" />
<glyph unicode="&#xa2;" d="M333 456v61q0 14 14 14q13 0 13 -14v-61q54 -1 102 -26q25 -13 25 -25q0 -7 -5.5 -12.5t-12.5 -5.5q-4 0 -7 1.5t-10 5.5t-14 7q-38 19 -90 19q-92 0 -150 -69q-43 -53 -43 -127q0 -87 53 -143q52 -54 141 -54q59 0 92 16q7 3 13.5 6.5t9.5 5t7 1.5q7 0 12.5 -5t5.5 -13 q0 -13 -29 -26q-40 -19 -100 -21v-60q0 -14 -13 -14q-14 0 -14 14v60q-97 5 -156 62q-66 64 -66 171q0 91 54 151q62 75 168 81z" />
<glyph unicode="&#xa3;" d="M185 42h314q8 0 14 -6.5t6 -14.5q0 -9 -6 -15t-14 -6h-403q-8 0 -14 6t-6 15q0 8 6 14.5t14 6.5h38q63 51 63 135q0 48 -27 118h-52q-8 0 -14 6t-6 14t6 14t14 6h36q-32 83 -32 145q0 85 55.5 147.5t161.5 62.5q61 0 114 -15q44 -11 44 -29q0 -8 -6 -14.5t-14 -6.5 q-5 0 -12 2t-19 6t-23 7q-33 10 -81 10q-86 0 -129.5 -51t-43.5 -120q0 -59 34 -144h216q8 0 13.5 -6t5.5 -14t-5.5 -14t-13.5 -6h-201q25 -73 25 -118q0 -80 -58 -135z" />
<glyph unicode="&#xa5;" d="M343 336h172q7 0 12 -5t5 -12t-5 -12t-12 -5h-192v-96h192q7 0 12 -5t5 -12t-5 -12t-12 -5h-192v-159q0 -10 -7 -16.5t-17 -6.5t-17 6.5t-7 16.5v159h-192q-7 0 -12 5t-5 12q0 17 17 17h192v96h-192q-17 0 -17 17q0 7 5 12t12 5h172l-230 313q-6 12 -6 18q0 9 6.5 16 t16.5 7q12 0 23 -14l234 -322l236 322q9 14 22 14q10 0 16.5 -7t6.5 -16q0 -11 -6 -18z" />
<glyph unicode="&#xa7;" horiz-adv-x="444" d="M127 416q-54 49 -54 119q0 76 46.5 116t115.5 40q75 0 126 -31q28 -16 28 -31q0 -8 -5.5 -14t-13.5 -6q-6 0 -12 3.5t-15 10t-16 10.5q-36 22 -91 22q-49 0 -83.5 -28.5t-34.5 -87.5q0 -38 20.5 -69t51 -50t66.5 -42.5t66.5 -45.5t51 -59.5t20.5 -84.5q0 -83 -77 -143 q54 -49 54 -118q0 -76 -46 -116t-115 -40q-75 0 -126 31q-29 17 -29 31q0 8 6 14t14 6q6 0 12 -3.5t15 -10t16 -10.5q36 -22 90 -22q49 0 83.5 28.5t34.5 87.5q0 45 -28.5 79.5t-68.5 58t-80.5 49t-69 67t-28.5 96.5q0 83 76 143zM286 72q63 49 63 112q0 40 -20.5 73 t-43.5 49.5t-66.5 43t-61.5 39.5q-61 -47 -61 -111q0 -41 20.5 -74t43.5 -49.5t65 -42.5t61 -40z" />
<glyph unicode="&#xa8;" horiz-adv-x="392" d="M113 643q-12 0 -20 8t-8 20q0 11 8 19t20 8q11 0 19.5 -8t8.5 -19q0 -12 -8.5 -20t-19.5 -8zM279 643q-12 0 -20 8t-8 20q0 11 8 19t20 8q11 0 19 -8t8 -19q0 -12 -8 -20t-19 -8z" />
<glyph unicode="&#xa9;" horiz-adv-x="838" d="M528 219q14 0 14 -15q0 -11 -24 -19q-40 -14 -88 -14q-80 0 -133.5 50.5t-53.5 133.5q0 79 55 131.5t131 52.5q46 0 85 -16q27 -13 27 -23q0 -15 -15 -15q-3 0 -7 2t-11 6t-13 6q-26 12 -66 12q-64 0 -110 -44.5t-46 -111.5q0 -71 45 -113.5t112 -42.5q39 0 67 10 q7 2 17 6t14 4zM79 358q0 -140 99.5 -239.5t240.5 -99.5t240.5 99.5t99.5 239.5q0 141 -99 241t-240 100q-142 0 -241.5 -100t-99.5 -241zM788 358q0 -153 -107.5 -260t-260.5 -107q-154 0 -261.5 107t-107.5 260t107.5 261t260.5 108t261 -108t108 -261z" />
<glyph unicode="&#xaa;" horiz-adv-x="277" d="M85 560q33 15 127 21v6q0 50 -24 69q-16 13 -45 13q-32 0 -57 -13t-26 -13q-12 0 -12 11q0 12 31 24.5t67 12.5t61 -17q33 -25 33 -89v-164q0 -6 -4.5 -10t-9.5 -4q-10 0 -12 8l-1 16q-34 -22 -81 -22q-41 0 -68 20q-29 22 -29 60q0 49 50 71zM81 293h113q11 0 11 -12 q0 -11 -11 -11h-113q-11 0 -11 11q0 12 11 12zM179 436q17 5 33 14v111q-62 -2 -97 -13q-52 -16 -52 -59q0 -29 23 -44q20 -15 52 -15q23 0 41 6z" />
<glyph unicode="&#xab;" horiz-adv-x="538" d="M266 -9q-9 0 -15 7l-206 212q-7 9 -7 15t7 15l206 212q6 7 15 7t14.5 -5.5t5.5 -13.5q0 -9 -6 -15l-193 -200l193 -200q6 -6 6 -15q0 -19 -20 -19zM479 -9q-8 0 -15 7l-205 212q-7 7 -7 15t7 15l205 212q7 7 16 7q8 0 14 -5.5t6 -13.5q0 -9 -7 -15l-193 -200l193 -200 q7 -6 7 -15q0 -19 -21 -19z" />
<glyph unicode="&#xac;" horiz-adv-x="544" d="M56 372h431q9 0 15.5 -6t6.5 -15v-138q0 -9 -6.5 -15t-14.5 -6q-9 0 -15 6t-6 15v116h-411q-9 0 -15 6.5t-6 15.5t6 15t15 6z" />
<glyph unicode="&#xad;" horiz-adv-x="489" d="M384 274h-279q-8 0 -14 6t-6 14q0 9 6 15t14 6h279q8 0 14 -6t6 -15q0 -8 -6 -14t-14 -6z" />
<glyph unicode="&#xae;" horiz-adv-x="469" d="M419 536q0 -76 -54 -129.5t-130 -53.5t-130 53.5t-54 129.5t53.5 130t129.5 54q77 0 131 -54t54 -130zM69 536q0 -68 48 -116.5t117 -48.5t117.5 48.5t48.5 116.5q0 70 -48.5 118t-117.5 48q-68 0 -116.5 -48t-48.5 -118zM160 455v164q0 9 10 9h69q69 0 69 -53 q0 -45 -51 -52l47 -58q5 -6 5 -11q0 -9 -8 -9q-6 0 -12 9l-54 68h-56v-67q0 -10 -9 -10q-10 0 -10 10zM289 575q0 36 -51 36h-59v-71h57q53 0 53 35z" />
<glyph unicode="&#xaf;" horiz-adv-x="392" d="M323 663q0 -18 -18 -18h-219q-17 0 -17 18q0 7 5 12.5t12 5.5h219q7 0 12.5 -5.5t5.5 -12.5z" />
<glyph unicode="&#xb0;" horiz-adv-x="370" d="M296 593q0 47 -32 79t-79 32t-79 -32t-32 -79q0 -46 32 -78t79 -32t79 32t32 78zM320 593q0 -56 -39.5 -95.5t-95.5 -39.5t-95.5 39.5t-39.5 95.5t39.5 95.5t95.5 39.5t95.5 -39.5t39.5 -95.5z" />
<glyph unicode="&#xb1;" horiz-adv-x="552" d="M297 399h200q8 0 14 -6.5t6 -14.5q0 -9 -6 -15t-14 -6h-200v-200q0 -8 -6.5 -14t-14.5 -6q-9 0 -15 6t-6 14v200h-200q-8 0 -14 6t-6 15q0 8 6 14.5t14 6.5h200v199q0 9 6 15t15 6q8 0 14.5 -6t6.5 -15v-199zM55 42h442q8 0 14 -6.5t6 -14.5q0 -9 -6 -15t-14 -6h-442 q-8 0 -14 6t-6 15q0 8 6 14.5t14 6.5z" />
<glyph unicode="&#xb4;" horiz-adv-x="392" d="M131 585q0 3 4 13l88 155q7 15 19 15q8 0 13.5 -5t5.5 -13q0 -6 -6 -16l-91 -150q-7 -13 -17 -13q-16 0 -16 14z" />
<glyph unicode="&#xb5;" horiz-adv-x="535" d="M69 -150v586q0 9 6.5 15t15.5 6t15.5 -6t6.5 -15v-247q0 -62 21 -101q35 -61 133 -61q100 0 134 61q21 37 21 101v247q0 9 6.5 15t15.5 6t15.5 -6t6.5 -15v-249q0 -76 -30 -123q-45 -74 -169 -74q-105 0 -154 55v-195q0 -9 -6.5 -15t-15.5 -6t-15.5 6t-6.5 15z" />
<glyph unicode="&#xb6;" horiz-adv-x="564" d="M439 679v-858q0 -8 -6 -14t-15 -6t-15 6t-6 14v858h-119v-858q0 -8 -6.5 -14t-14.5 -6q-9 0 -15 6t-6 14l1 491q-92 5 -144.5 59.5t-52.5 143.5q0 97 60 149.5t170 52.5h257q7 0 12.5 -5.5t5.5 -13.5t-5 -13.5t-13 -5.5h-88z" />
<glyph unicode="&#xb7;" horiz-adv-x="159" d="M110 345q0 -13 -8.5 -22t-20.5 -9q-13 0 -22 9t-9 22t9 21.5t22 8.5q12 0 20.5 -8.5t8.5 -21.5z" />
<glyph unicode="&#xb8;" horiz-adv-x="375" d="M271 -108q0 -42 -35 -61.5t-79 -19.5q-18 0 -33 3q-12 3 -12 14q0 13 13 13q3 0 14 -1.5t21 -1.5q31 0 54.5 13t23.5 41q0 24 -19.5 35.5t-46.5 11.5q-21 0 -18 20l3 46h25v-44q38 -1 63.5 -18.5t25.5 -50.5z" />
<glyph unicode="&#xba;" horiz-adv-x="390" d="M139 293h113q11 0 11 -12q0 -11 -11 -11h-113q-12 0 -12 11q0 5 3.5 8.5t8.5 3.5zM83 551q0 -41 29 -79q32 -37 83 -37q52 0 84 37q28 34 28 79t-28 78q-32 37 -84 37q-51 0 -83 -37q-29 -36 -29 -78zM54 551q0 56 36 95q40 45 105 45t107 -45q35 -40 35 -95 q0 -56 -35 -96q-42 -45 -107 -45t-105 45q-36 39 -36 96z" />
<glyph unicode="&#xbb;" horiz-adv-x="538" d="M272 -9q-20 0 -20 19q0 9 6 15l194 200l-194 200q-6 6 -6 15q0 8 5.5 13.5t14.5 5.5t15 -7l206 -212q7 -9 7 -15t-7 -15l-206 -212q-6 -7 -15 -7zM59 -9q-21 0 -21 19q0 8 7 15l193 200l-193 200q-7 7 -7 15t6 13.5t15 5.5t15 -7l206 -212q6 -8 6 -15t-6 -15l-206 -212 q-6 -7 -15 -7z" />
<glyph unicode="&#xbf;" horiz-adv-x="500" d="M245 428q0 13 8 21.5t20 8.5q13 0 21.5 -8.5t8.5 -21.5q0 -12 -8.5 -20t-21.5 -8q-12 0 -20 8t-8 20zM467 -141q0 -19 -46 -49q-77 -51 -169 -51q-88 0 -147 54t-59 141q0 56 25.5 90.5t77.5 71.5q28 21 43.5 35t32 39.5t23.5 55.5q1 3 2 9t1.5 8.5t1.5 7t2 7t2.5 5 t3.5 4t5 2.5t6 1q9 0 15.5 -6.5t6.5 -16.5q0 -35 -18 -75q-9 -20 -25 -38.5t-27.5 -29t-37.5 -31.5t-37 -30q-58 -47 -58 -109q0 -70 46 -112t117 -42q76 0 143 46q11 8 22 17.5t16.5 12.5t11.5 3q9 0 14.5 -6t5.5 -14z" />
<glyph unicode="&#xc0;" horiz-adv-x="617" d="M308 625l-167 -403h335zM561 10l-72 173h-361l-73 -173q-6 -20 -25 -20q-22 0 -22 22q0 4 4 16l265 638q9 24 32 24t32 -24l265 -638q3 -7 3 -15q0 -23 -23 -23q-17 0 -25 20zM373 790q0 -14 -15 -14q-11 0 -18 13l-91 150q-6 12 -6 16q0 8 5.5 13t13.5 5q12 0 19 -15 l88 -155q4 -7 4 -13z" />
<glyph unicode="&#xc1;" horiz-adv-x="617" d="M308 625l-167 -403h335zM561 10l-72 173h-361l-73 -173q-6 -20 -25 -20q-22 0 -22 22q0 4 4 16l265 638q9 24 32 24t32 -24l265 -638q3 -7 3 -15q0 -23 -23 -23q-17 0 -25 20zM243 790q0 3 4 13l88 155q7 15 19 15q8 0 13.5 -5t5.5 -13q0 -6 -6 -16l-91 -150 q-7 -13 -17 -13q-16 0 -16 14z" />
<glyph unicode="&#xc2;" horiz-adv-x="617" d="M308 625l-167 -403h335zM561 10l-72 173h-361l-73 -173q-6 -20 -25 -20q-22 0 -22 22q0 4 4 16l265 638q9 24 32 24t32 -24l265 -638q3 -7 3 -15q0 -23 -23 -23q-17 0 -25 20zM307 971q7 0 18 -9l131 -140q8 -8 8 -15t-5 -12t-12 -5t-13 6l-127 134l-127 -134 q-6 -6 -13 -6q-16 0 -16 17q0 8 7 15l132 140q11 9 17 9z" />
<glyph unicode="&#xc3;" horiz-adv-x="617" d="M308 625l-167 -403h335zM561 10l-72 173h-361l-73 -173q-6 -20 -25 -20q-22 0 -22 22q0 4 4 16l265 638q9 24 32 24t32 -24l265 -638q3 -7 3 -15q0 -23 -23 -23q-17 0 -25 20zM464 917q0 -15 -21 -34q-24 -24 -65 -24q-26 0 -72 27q-40 26 -65 26q-24 0 -43 -17 q-5 -4 -10.5 -11t-10 -10.5t-9.5 -3.5q-16 0 -16 17q0 14 20 34q26 24 65 24q32 0 74 -25q42 -27 64 -27q23 0 42 15q5 4 11 11t10.5 11t8.5 4q17 0 17 -17z" />
<glyph unicode="&#xc4;" horiz-adv-x="617" d="M308 625l-167 -403h335zM561 10l-72 173h-361l-73 -173q-6 -20 -25 -20q-22 0 -22 22q0 4 4 16l265 638q9 24 32 24t32 -24l265 -638q3 -7 3 -15q0 -23 -23 -23q-17 0 -25 20zM225 846q-12 0 -20 8t-8 20q0 11 8 19t20 8q11 0 19.5 -8t8.5 -19q0 -12 -8.5 -20t-19.5 -8z M391 846q-12 0 -20 8t-8 20q0 11 8 19t20 8q11 0 19 -8t8 -19q0 -12 -8 -20t-19 -8z" />
<glyph unicode="&#xc5;" horiz-adv-x="617" d="M308 625l-167 -403h335zM561 10l-72 173h-361l-73 -173q-6 -20 -25 -20q-22 0 -22 22q0 4 4 16l265 638q9 24 32 24t32 -24l265 -638q3 -7 3 -15q0 -23 -23 -23q-17 0 -25 20zM420 864q0 -47 -32.5 -80t-79.5 -33t-80 33t-33 80t33 80t80 33t79.5 -33t32.5 -80zM395 864 q0 37 -25.5 63t-61.5 26t-62 -26t-26 -63t26 -62.5t62 -25.5t61.5 25.5t25.5 62.5z" />
<glyph unicode="&#xc6;" horiz-adv-x="974" d="M562 319v-277h359q9 0 15 -6t6 -15t-6 -15t-15 -6h-383q-10 0 -17 7t-7 16v160h-324l-135 -177q-13 -16 -25 -16q-22 0 -22 22q0 10 9 22l477 622q20 25 44 25h383q9 0 15 -6.5t6 -14.5q0 -9 -6 -15t-15 -6h-359v-277h308q8 0 14 -6.5t6 -14.5q0 -9 -6 -15.5t-14 -6.5 h-308zM220 222h294v384z" />
<glyph unicode="&#xc7;" horiz-adv-x="662" d="M501 -108q0 -42 -35 -61.5t-79 -19.5q-18 0 -33 3q-12 3 -12 14q0 13 13 13q3 0 14 -1.5t21 -1.5q31 0 54.5 13t23.5 41q0 24 -19.5 35.5t-46.5 11.5q-21 0 -18 20l2 32q-141 5 -238 102t-97 248q0 142 104 245.5t246 103.5q98 0 174 -38q43 -20 43 -40q0 -9 -6.5 -15.5 t-15.5 -6.5q-6 0 -15.5 6t-26.5 15.5t-36 16.5q-53 19 -117 19q-122 0 -211.5 -91t-89.5 -215q0 -135 88.5 -221.5t213.5 -86.5q62 0 117 19q20 7 37 17t26.5 15.5t15.5 5.5q9 0 15.5 -6.5t6.5 -15.5q0 -20 -43 -40q-71 -35 -165 -38v-29q38 -1 63.5 -18.5t25.5 -50.5z" />
<glyph unicode="&#xc8;" horiz-adv-x="589" d="M126 319v-277h411q8 0 14 -6t6 -15t-6 -15t-14 -6h-435q-10 0 -17 7t-7 16v635q0 9 7 16t17 7h435q8 0 14 -6.5t6 -14.5q0 -9 -6 -15t-14 -6h-411v-277h359q9 0 15 -6.5t6 -14.5q0 -9 -6 -15.5t-15 -6.5h-359zM359 788q0 -14 -15 -14q-11 0 -18 13l-91 150q-6 10 -6 16 q0 8 5.5 13t13.5 5q11 0 19 -15l88 -155q4 -7 4 -13z" />
<glyph unicode="&#xc9;" horiz-adv-x="589" d="M126 319v-277h411q8 0 14 -6t6 -15t-6 -15t-14 -6h-435q-10 0 -17 7t-7 16v635q0 9 7 16t17 7h435q8 0 14 -6.5t6 -14.5q0 -9 -6 -15t-14 -6h-411v-277h359q9 0 15 -6.5t6 -14.5q0 -9 -6 -15.5t-15 -6.5h-359zM248 788q0 3 4 13l88 155q7 15 19 15q8 0 13.5 -5t5.5 -13 q0 -6 -6 -16l-91 -150q-7 -13 -17 -13q-16 0 -16 14z" />
<glyph unicode="&#xca;" horiz-adv-x="589" d="M126 319v-277h411q8 0 14 -6t6 -15t-6 -15t-14 -6h-435q-10 0 -17 7t-7 16v635q0 9 7 16t17 7h435q8 0 14 -6.5t6 -14.5q0 -9 -6 -15t-14 -6h-411v-277h359q9 0 15 -6.5t6 -14.5q0 -9 -6 -15.5t-15 -6.5h-359zM303 970q11 0 18 -9l131 -140q8 -8 8 -15t-5 -12t-12 -5 t-13 6l-127 134l-127 -134q-6 -6 -13 -6q-16 0 -16 17q0 8 7 15l132 140q7 9 17 9z" />
<glyph unicode="&#xcb;" horiz-adv-x="589" d="M126 319v-277h411q8 0 14 -6t6 -15t-6 -15t-14 -6h-435q-10 0 -17 7t-7 16v635q0 9 7 16t17 7h435q8 0 14 -6.5t6 -14.5q0 -9 -6 -15t-14 -6h-411v-277h359q9 0 15 -6.5t6 -14.5q0 -9 -6 -15.5t-15 -6.5h-359zM225 846q-12 0 -20 8t-8 20q0 11 8 19t20 8q11 0 19.5 -8 t8.5 -19q0 -12 -8.5 -20t-19.5 -8zM391 846q-12 0 -20 8t-8 20q0 11 8 19t20 8q11 0 19 -8t8 -19q0 -12 -8 -20t-19 -8z" />
<glyph unicode="&#xcc;" horiz-adv-x="205" d="M78 13v654q0 9 7 16t17 7t17 -7t7 -16v-654q0 -9 -7 -16t-17 -7t-17 7t-7 16zM170 788q0 -14 -15 -14q-11 0 -18 13l-91 150q-6 10 -6 16q0 8 5.5 13t13.5 5q11 0 19 -15l88 -155q4 -7 4 -13z" />
<glyph unicode="&#xcd;" horiz-adv-x="205" d="M78 13v654q0 9 7 16t17 7t17 -7t7 -16v-654q0 -9 -7 -16t-17 -7t-17 7t-7 16zM40 788q0 3 4 13l88 155q7 15 19 15q8 0 13.5 -5t5.5 -13q0 -6 -6 -16l-91 -150q-7 -13 -17 -13q-16 0 -16 14z" />
<glyph unicode="&#xce;" horiz-adv-x="205" d="M78 13v654q0 9 7 16t17 7t17 -7t7 -16v-654q0 -9 -7 -16t-17 -7t-17 7t-7 16zM105 970q11 0 18 -9l131 -140q8 -8 8 -15t-5 -12t-12 -5t-13 6l-127 134l-127 -134q-6 -6 -13 -6q-16 0 -16 17q0 8 7 15l132 140q7 9 17 9z" />
<glyph unicode="&#xcf;" horiz-adv-x="205" d="M78 13v654q0 9 7 16t17 7t17 -7t7 -16v-654q0 -9 -7 -16t-17 -7t-17 7t-7 16zM22 846q-12 0 -20 8t-8 20q0 11 8 19t20 8q11 0 19.5 -8t8.5 -19q0 -12 -8.5 -20t-19.5 -8zM188 846q-12 0 -20 8t-8 20q0 11 8 19t20 8q11 0 19 -8t8 -19q0 -12 -8 -20t-19 -8z" />
<glyph unicode="&#xd0;" horiz-adv-x="739" d="M299 320h-170v-279h174q121 0 201 44q135 75 135 255q0 125 -69 204q-83 96 -254 96h-187v-280h170q8 0 14 -6t6 -14t-6 -14t-14 -6zM81 23v297h-84q-8 0 -13.5 6t-5.5 14t5.5 14t13.5 6h84v298q0 9 7 16t17 7h220q189 0 285 -109q78 -88 78 -232q0 -195 -142 -280 q-87 -60 -236 -60h-205q-10 0 -17 7t-7 16z" />
<glyph unicode="&#xd1;" horiz-adv-x="738" d="M660 668v-652q0 -11 -8 -18.5t-19 -7.5q-14 0 -26 15l-482 600v-593q0 -9 -6.5 -15.5t-16.5 -6.5t-17 6.5t-7 15.5v652q0 11 8 18.5t19 7.5q13 0 25 -15l484 -600v593q0 9 6.5 15.5t16.5 6.5t16.5 -6.5t6.5 -15.5zM527 917q0 -16 -21 -35q-25 -23 -67 -23q-26 0 -72 27 q-40 26 -65 26q-28 0 -46 -21t-25 -21q-16 0 -16 17q0 14 20 34q26 24 67 24q32 0 74 -25q42 -27 64 -27q20 0 34 10.5t22 20.5t14 10q17 0 17 -17z" />
<glyph unicode="&#xd2;" horiz-adv-x="805" d="M754 339q0 -144 -103.5 -246.5t-248.5 -102.5q-146 0 -248.5 102t-102.5 247t103 248t248 103t248.5 -103t103.5 -248zM704 339q0 125 -88 215.5t-214 90.5q-125 0 -213 -90.5t-88 -215.5t88 -215t213 -90q126 0 214 90t88 215zM466 788q0 -14 -15 -14q-11 0 -18 13 l-91 150q-6 10 -6 16q0 8 5.5 13t13.5 5q11 0 19 -15l88 -155q4 -7 4 -13z" />
<glyph unicode="&#xd3;" horiz-adv-x="805" d="M754 339q0 -144 -103.5 -246.5t-248.5 -102.5q-146 0 -248.5 102t-102.5 247t103 248t248 103t248.5 -103t103.5 -248zM704 339q0 125 -88 215.5t-214 90.5q-125 0 -213 -90.5t-88 -215.5t88 -215t213 -90q126 0 214 90t88 215zM337 788q0 3 4 13l88 155q7 15 19 15 q8 0 13.5 -5t5.5 -13q0 -6 -6 -16l-91 -150q-7 -13 -17 -13q-16 0 -16 14z" />
<glyph unicode="&#xd4;" horiz-adv-x="805" d="M754 339q0 -144 -103.5 -246.5t-248.5 -102.5q-146 0 -248.5 102t-102.5 247t103 248t248 103t248.5 -103t103.5 -248zM704 339q0 125 -88 215.5t-214 90.5q-125 0 -213 -90.5t-88 -215.5t88 -215t213 -90q126 0 214 90t88 215zM401 970q11 0 18 -9l131 -140q8 -8 8 -15 t-5 -12t-12 -5t-13 6l-127 134l-127 -134q-6 -6 -13 -6q-16 0 -16 17q0 8 7 15l132 140q7 9 17 9z" />
<glyph unicode="&#xd5;" horiz-adv-x="805" d="M754 339q0 -144 -103.5 -246.5t-248.5 -102.5q-146 0 -248.5 102t-102.5 247t103 248t248 103t248.5 -103t103.5 -248zM704 339q0 125 -88 215.5t-214 90.5q-125 0 -213 -90.5t-88 -215.5t88 -215t213 -90q126 0 214 90t88 215zM557 917q0 -16 -21 -35q-25 -23 -67 -23 q-26 0 -72 27q-40 26 -65 26q-28 0 -46 -21t-25 -21q-16 0 -16 17q0 14 20 34q26 24 67 24q32 0 74 -25q42 -27 64 -27q20 0 34 10.5t22 20.5t14 10q17 0 17 -17z" />
<glyph unicode="&#xd6;" horiz-adv-x="805" d="M754 339q0 -144 -103.5 -246.5t-248.5 -102.5q-146 0 -248.5 102t-102.5 247t103 248t248 103t248.5 -103t103.5 -248zM704 339q0 125 -88 215.5t-214 90.5q-125 0 -213 -90.5t-88 -215.5t88 -215t213 -90q126 0 214 90t88 215zM319 846q-12 0 -20 8t-8 20q0 11 8 19 t20 8q11 0 19.5 -8t8.5 -19q0 -12 -8.5 -20t-19.5 -8zM485 846q-12 0 -20 8t-8 20q0 11 8 19t20 8q11 0 19 -8t8 -19q0 -12 -8 -20t-19 -8z" />
<glyph unicode="&#xd8;" horiz-adv-x="805" d="M671 678q7 7 14 7q6 0 11 -5t5 -12q0 -9 -5 -12l-53 -62q111 -104 111 -255q0 -144 -103 -246.5t-248 -102.5q-123 0 -216 74l-55 -64q-6 -7 -14 -7q-16 0 -16 17q0 7 5 12l54 63q-110 102 -110 254q0 145 103.5 248t248.5 103q118 0 214 -75zM704 339q0 128 -94 217 l-391 -457q79 -65 183 -65q125 0 213.5 90.5t88.5 214.5zM101 339q0 -128 92 -217l392 457q-80 66 -183 66q-124 0 -212.5 -91t-88.5 -215z" />
<glyph unicode="&#xd9;" horiz-adv-x="721" d="M360 33q113 0 177 67q59 64 59 176v391q0 9 7 16t17 7t17 -7t7 -16v-398q0 -123 -67 -196q-77 -83 -217 -83q-139 0 -216 83q-67 73 -67 196v398q0 9 7 16t17 7t17 -7t7 -16v-391q0 -112 59 -176q64 -67 176 -67zM423 788q0 -14 -15 -14q-11 0 -18 13l-91 150 q-6 10 -6 16q0 8 5.5 13t13.5 5q11 0 19 -15l88 -155q4 -7 4 -13z" />
<glyph unicode="&#xda;" horiz-adv-x="721" d="M360 33q113 0 177 67q59 64 59 176v391q0 9 7 16t17 7t17 -7t7 -16v-398q0 -123 -67 -196q-77 -83 -217 -83q-139 0 -216 83q-67 73 -67 196v398q0 9 7 16t17 7t17 -7t7 -16v-391q0 -112 59 -176q64 -67 176 -67zM295 788q0 3 4 13l88 155q7 15 19 15q8 0 13.5 -5 t5.5 -13q0 -6 -6 -16l-91 -150q-7 -13 -17 -13q-16 0 -16 14z" />
<glyph unicode="&#xdb;" horiz-adv-x="721" d="M360 33q113 0 177 67q59 64 59 176v391q0 9 7 16t17 7t17 -7t7 -16v-398q0 -123 -67 -196q-77 -83 -217 -83q-139 0 -216 83q-67 73 -67 196v398q0 9 7 16t17 7t17 -7t7 -16v-391q0 -112 59 -176q64 -67 176 -67zM360 970q11 0 18 -9l131 -140q8 -8 8 -15t-5 -12t-12 -5 t-13 6l-127 134l-127 -134q-6 -6 -13 -6q-16 0 -16 17q0 8 7 15l132 140q7 9 17 9z" />
<glyph unicode="&#xdc;" horiz-adv-x="721" d="M360 33q113 0 177 67q59 64 59 176v391q0 9 7 16t17 7t17 -7t7 -16v-398q0 -123 -67 -196q-77 -83 -217 -83q-139 0 -216 83q-67 73 -67 196v398q0 9 7 16t17 7t17 -7t7 -16v-391q0 -112 59 -176q64 -67 176 -67zM274 846q-12 0 -20 8t-8 20q0 11 8 19t20 8q11 0 19.5 -8 t8.5 -19q0 -12 -8.5 -20t-19.5 -8zM440 846q-12 0 -20 8t-8 20q0 11 8 19t20 8q11 0 19 -8t8 -19q0 -12 -8 -20t-19 -8z" />
<glyph unicode="&#xdd;" horiz-adv-x="565" d="M557 649l-251 -342v-294q0 -9 -7 -16t-17 -7t-17 7t-7 16v294l-250 342q-6 7 -6 19q0 9 6.5 15.5t16.5 6.5q13 0 23 -14l234 -322l236 322q11 14 22 14q10 0 16.5 -6.5t6.5 -16.5q0 -9 -6 -18zM218 788q0 6 4 13l88 155q8 15 19 15q8 0 13.5 -5t5.5 -13q0 -6 -6 -16 l-91 -150q-7 -13 -17 -13q-16 0 -16 14z" />
<glyph unicode="&#xde;" horiz-adv-x="616" d="M78 -127v794q0 9 7 16t17 7t17 -7t7 -16v-133h219q95 0 154 -46q79 -60 79 -171q0 -115 -85 -176q-57 -41 -163 -41h-204v-227q0 -9 -7 -16t-17 -7t-17 7t-7 16zM529 317q0 90 -63 137q-49 38 -129 38h-211v-350h196q91 0 139 33q68 49 68 142z" />
<glyph unicode="&#xdf;" horiz-adv-x="540" d="M281 394q0 -13 15 -23t47.5 -23.5t46.5 -20.5q101 -55 101 -156q0 -77 -53 -129t-137 -52q-74 0 -124 26q-39 20 -39 39q0 20 19 20q5 0 9.5 -2.5t13 -8.5t14.5 -10q42 -25 106 -25q65 0 106.5 40t41.5 100q0 83 -85 125q-12 6 -42 19t-43.5 20.5t-26.5 23t-13 34.5 t22 34t48.5 24.5t48.5 34t22 61.5q0 55 -34 82t-94 27q-130 0 -130 -158v-538q0 -9 -7 -15t-16 -6t-15.5 6t-6.5 15v538q0 94 45.5 144t129.5 50q81 0 126.5 -35t45.5 -106q0 -33 -14.5 -57.5t-35.5 -37.5t-42 -22.5t-35.5 -18.5t-14.5 -19z" />
<glyph unicode="&#xe0;" horiz-adv-x="470" d="M47 119q0 86 96 120q59 21 214 32v15q0 65 -28 99q-29 35 -94 35q-53 0 -100 -20q-11 -5 -21.5 -11t-16 -8.5t-10.5 -2.5q-17 0 -17 18q0 16 43 36q55 25 125 25q86 0 127 -47q36 -44 36 -124v-275q0 -9 -6.5 -15t-15.5 -6t-15.5 6t-6.5 15v13q-67 -34 -143 -34 q-66 0 -116.5 32.5t-50.5 96.5zM225 25q70 0 132 37v174q-133 -8 -180 -22q-89 -28 -89 -92q0 -49 40.5 -73t96.5 -24zM303 585q0 -14 -15 -14q-11 0 -18 13l-91 150q-6 10 -6 16q0 8 5.5 13t13.5 5q11 0 19 -15l88 -155q4 -7 4 -13z" />
<glyph unicode="&#xe1;" horiz-adv-x="470" d="M47 119q0 86 96 120q59 21 214 32v15q0 65 -28 99q-29 35 -94 35q-53 0 -100 -20q-11 -5 -21.5 -11t-16 -8.5t-10.5 -2.5q-17 0 -17 18q0 16 43 36q55 25 125 25q86 0 127 -47q36 -44 36 -124v-275q0 -9 -6.5 -15t-15.5 -6t-15.5 6t-6.5 15v13q-67 -34 -143 -34 q-66 0 -116.5 32.5t-50.5 96.5zM225 25q70 0 132 37v174q-133 -8 -180 -22q-89 -28 -89 -92q0 -49 40.5 -73t96.5 -24zM170 585q0 3 4 13l88 155q7 15 19 15q8 0 13.5 -5t5.5 -13q0 -6 -6 -16l-91 -150q-7 -13 -17 -13q-16 0 -16 14z" />
<glyph unicode="&#xe2;" horiz-adv-x="470" d="M47 119q0 86 96 120q59 21 214 32v15q0 65 -28 99q-29 35 -94 35q-53 0 -100 -20q-11 -5 -21.5 -11t-16 -8.5t-10.5 -2.5q-17 0 -17 18q0 16 43 36q55 25 125 25q86 0 127 -47q36 -44 36 -124v-275q0 -9 -6.5 -15t-15.5 -6t-15.5 6t-6.5 15v13q-67 -34 -143 -34 q-66 0 -116.5 32.5t-50.5 96.5zM225 25q70 0 132 37v174q-133 -8 -180 -22q-89 -28 -89 -92q0 -49 40.5 -73t96.5 -24zM236 767q11 0 18 -9l131 -140q8 -8 8 -15t-5 -12t-12 -5t-13 6l-127 134l-127 -134q-6 -6 -13 -6q-16 0 -16 17q0 8 7 15l132 140q7 9 17 9z" />
<glyph unicode="&#xe3;" horiz-adv-x="470" d="M47 119q0 86 96 120q59 21 214 32v15q0 65 -28 99q-29 35 -94 35q-53 0 -100 -20q-11 -5 -21.5 -11t-16 -8.5t-10.5 -2.5q-17 0 -17 18q0 16 43 36q55 25 125 25q86 0 127 -47q36 -44 36 -124v-275q0 -9 -6.5 -15t-15.5 -6t-15.5 6t-6.5 15v13q-67 -34 -143 -34 q-66 0 -116.5 32.5t-50.5 96.5zM225 25q70 0 132 37v174q-133 -8 -180 -22q-89 -28 -89 -92q0 -49 40.5 -73t96.5 -24zM390 682q0 -16 -21 -35q-25 -23 -67 -23q-26 0 -72 27q-40 26 -65 26q-21 0 -34.5 -10.5t-21 -21t-15.5 -10.5q-16 0 -16 17q0 14 20 34q26 24 67 24 q32 0 74 -25q42 -27 64 -27q16 0 28.5 6.5t18 14t12 14t11.5 6.5q17 0 17 -17z" />
<glyph unicode="&#xe4;" horiz-adv-x="470" d="M47 119q0 86 96 120q59 21 214 32v15q0 65 -28 99q-29 35 -94 35q-53 0 -100 -20q-11 -5 -21.5 -11t-16 -8.5t-10.5 -2.5q-17 0 -17 18q0 16 43 36q55 25 125 25q86 0 127 -47q36 -44 36 -124v-275q0 -9 -6.5 -15t-15.5 -6t-15.5 6t-6.5 15v13q-67 -34 -143 -34 q-66 0 -116.5 32.5t-50.5 96.5zM225 25q70 0 132 37v174q-133 -8 -180 -22q-89 -28 -89 -92q0 -49 40.5 -73t96.5 -24zM153 643q-12 0 -20 8t-8 20q0 11 8 19t20 8q11 0 19.5 -8t8.5 -19q0 -12 -8.5 -20t-19.5 -8zM319 643q-12 0 -20 8t-8 20q0 11 8 19t20 8q11 0 19 -8 t8 -19q0 -12 -8 -20t-19 -8z" />
<glyph unicode="&#xe5;" horiz-adv-x="470" d="M47 119q0 86 96 120q59 21 214 32v15q0 65 -28 99q-29 35 -94 35q-53 0 -100 -20q-11 -5 -21.5 -11t-16 -8.5t-10.5 -2.5q-17 0 -17 18q0 16 43 36q55 25 125 25q86 0 127 -47q36 -44 36 -124v-275q0 -9 -6.5 -15t-15.5 -6t-15.5 6t-6.5 15v13q-67 -34 -143 -34 q-66 0 -116.5 32.5t-50.5 96.5zM225 25q70 0 132 37v174q-133 -8 -180 -22q-89 -28 -89 -92q0 -49 40.5 -73t96.5 -24zM354 659q0 -47 -32.5 -80t-79.5 -33t-80 33t-33 80t33 80t80 33t79.5 -33t32.5 -80zM329 659q0 37 -25.5 63t-61.5 26t-62 -26t-26 -63t26 -62.5 t62 -25.5t61.5 25.5t25.5 62.5z" />
<glyph unicode="&#xe6;" horiz-adv-x="818" d="M736 74q7 0 11.5 -5t4.5 -12q0 -14 -28 -29q-65 -38 -149 -38q-114 0 -183 83q-79 -83 -182 -83q-75 0 -119 36.5t-44 90.5q0 68 74 97t222 34v38q0 68 -27 101q-29 35 -89 35q-49 0 -94 -19q-10 -4 -20.5 -10t-16 -9t-9.5 -3q-7 0 -12.5 5t-5.5 12q0 15 42 34 q52 25 119 25q72 0 107 -39q28 -31 37 -82q13 31 44 64q57 57 145 57q95 0 154 -64q54 -57 54 -150q0 -24 -26 -24h-357q2 -77 42 -127q53 -67 147 -67q71 0 124 30q6 3 12 7.5t9.5 6.5t7 3.5t6.5 1.5zM220 24q89 0 156 74q-32 53 -32 121q-132 -4 -193.5 -28t-61.5 -73 q0 -39 34.5 -66.5t96.5 -27.5zM388 247h341q-1 76 -43 123q-46 53 -122 53q-86 0 -135 -59q-39 -47 -41 -117z" />
<glyph unicode="&#xe7;" horiz-adv-x="466" d="M384 -108q0 -42 -35 -61.5t-79 -19.5q-18 0 -33 3q-12 3 -12 14q0 13 13 13q3 0 14 -1.5t21 -1.5q31 0 54.5 13t23.5 41q0 24 -19.5 35.5t-46.5 11.5q-19 0 -18 20l2 32q-99 5 -158 65q-63 65 -63 168q0 89 53 150q68 82 184 82q62 0 114 -25q25 -13 25 -28 q0 -7 -5.5 -13t-12.5 -6t-31 12q-38 19 -89 19q-92 0 -149 -65q-44 -52 -44 -127q0 -88 52 -140q54 -54 141 -54q58 0 92 17q24 12 31 12t12 -5.5t5 -12.5q0 -16 -29 -29q-43 -19 -102 -21v-29q38 -1 63.5 -18.5t25.5 -50.5z" />
<glyph unicode="&#xe8;" horiz-adv-x="524" d="M441 76q7 0 12 -6t5 -13q0 -13 -27 -29q-67 -38 -150 -38q-112 0 -178 77q-55 65 -55 163q0 96 58 160q59 67 163 67q95 0 154 -64q54 -59 54 -150q0 -28 -26 -28h-357q3 -75 42 -121q52 -66 147 -66q71 0 124 30q6 3 12 7l9 6t6.5 3.5t6.5 1.5zM94 249h340 q-1 75 -43 118q-45 52 -122 52q-87 0 -134 -58q-38 -44 -41 -112zM326 585q0 -14 -15 -14q-11 0 -18 13l-91 150q-6 10 -6 16q0 8 5.5 13t13.5 5q11 0 19 -15l88 -155q4 -7 4 -13z" />
<glyph unicode="&#xe9;" horiz-adv-x="524" d="M441 76q7 0 12 -6t5 -13q0 -13 -27 -29q-67 -38 -150 -38q-112 0 -178 77q-55 65 -55 163q0 96 58 160q59 67 163 67q95 0 154 -64q54 -59 54 -150q0 -28 -26 -28h-357q3 -75 42 -121q52 -66 147 -66q71 0 124 30q6 3 12 7l9 6t6.5 3.5t6.5 1.5zM94 249h340 q-1 75 -43 118q-45 52 -122 52q-87 0 -134 -58q-38 -44 -41 -112zM194 585q0 3 4 13l88 155q7 15 19 15q8 0 13.5 -5t5.5 -13q0 -6 -6 -16l-91 -150q-7 -13 -17 -13q-16 0 -16 14z" />
<glyph unicode="&#xea;" horiz-adv-x="524" d="M441 76q7 0 12 -6t5 -13q0 -13 -27 -29q-67 -38 -150 -38q-112 0 -178 77q-55 65 -55 163q0 96 58 160q59 67 163 67q95 0 154 -64q54 -59 54 -150q0 -28 -26 -28h-357q3 -75 42 -121q52 -66 147 -66q71 0 124 30q6 3 12 7l9 6t6.5 3.5t6.5 1.5zM94 249h340 q-1 75 -43 118q-45 52 -122 52q-87 0 -134 -58q-38 -44 -41 -112zM259 767q11 0 18 -9l131 -140q8 -8 8 -15t-5 -12t-12 -5t-13 6l-127 134l-127 -134q-6 -6 -13 -6q-16 0 -16 17q0 8 7 15l132 140q7 9 17 9z" />
<glyph unicode="&#xeb;" horiz-adv-x="524" d="M441 76q7 0 12 -6t5 -13q0 -13 -27 -29q-67 -38 -150 -38q-112 0 -178 77q-55 65 -55 163q0 96 58 160q59 67 163 67q95 0 154 -64q54 -59 54 -150q0 -28 -26 -28h-357q3 -75 42 -121q52 -66 147 -66q71 0 124 30q6 3 12 7l9 6t6.5 3.5t6.5 1.5zM94 249h340 q-1 75 -43 118q-45 52 -122 52q-87 0 -134 -58q-38 -44 -41 -112zM176 643q-12 0 -20 8t-8 20q0 11 8 19t20 8q11 0 19.5 -8t8.5 -19q0 -12 -8.5 -20t-19.5 -8zM342 643q-12 0 -20 8t-8 20q0 11 8 19t20 8q11 0 19 -8t8 -19q0 -12 -8 -20t-19 -8z" />
<glyph unicode="&#xec;" horiz-adv-x="196" d="M76 436q0 9 6.5 15t15.5 6t15.5 -6t6.5 -15v-425q0 -9 -6.5 -15t-15.5 -6t-15.5 6t-6.5 15v425zM164 585q0 -14 -15 -14q-11 0 -18 13l-91 150q-6 10 -6 16q0 8 5.5 13t13.5 5q11 0 19 -15l88 -155q4 -7 4 -13z" />
<glyph unicode="&#xed;" horiz-adv-x="196" d="M76 436q0 9 6.5 15t15.5 6t15.5 -6t6.5 -15v-425q0 -9 -6.5 -15t-15.5 -6t-15.5 6t-6.5 15v425zM35 585q0 3 4 13l88 155q7 15 19 15q8 0 13.5 -5t5.5 -13q0 -6 -6 -16l-91 -150q-7 -13 -17 -13q-16 0 -16 14z" />
<glyph unicode="&#xee;" horiz-adv-x="196" d="M76 436q0 9 6.5 15t15.5 6t15.5 -6t6.5 -15v-425q0 -9 -6.5 -15t-15.5 -6t-15.5 6t-6.5 15v425zM99 767q11 0 18 -9l131 -140q8 -8 8 -15t-5 -12t-12 -5t-13 6l-127 134l-127 -134q-6 -6 -13 -6q-16 0 -16 17q0 8 7 15l132 140q7 9 17 9z" />
<glyph unicode="&#xef;" horiz-adv-x="196" d="M76 436q0 9 6.5 15t15.5 6t15.5 -6t6.5 -15v-425q0 -9 -6.5 -15t-15.5 -6t-15.5 6t-6.5 15v425zM17 643q-12 0 -20 8t-8 20q0 11 8 19t20 8q11 0 19.5 -8t8.5 -19q0 -12 -8.5 -20t-19.5 -8zM183 643q-12 0 -20 8t-8 20q0 11 8 19t20 8q11 0 19 -8t8 -19q0 -12 -8 -20 t-19 -8z" />
<glyph unicode="&#xf0;" horiz-adv-x="507" d="M458 222q0 -112 -59.5 -172t-148.5 -60q-80 0 -134 48q-68 60 -68 168q0 83 54 137q61 61 145 61q78 0 145 -46q-35 116 -129 217l-95 -74q-12 -7 -16 -7q-6 0 -10.5 5t-4.5 11q0 8 9 15l93 71q-45 43 -63 56q-14 10 -14 18q0 9 6 14.5t15 5.5q11 0 46 -30q22 -20 42 -39 l82 63q7 6 14 6q14 0 14 -15q0 -9 -9 -15l-78 -60q74 -79 119 -177.5t45 -200.5zM417 222q0 46 -11 96q-73 52 -153 52q-69 0 -120 -51q-43 -43 -43 -113q0 -91 53 -139q42 -40 107 -40q71 0 119 50t48 145z" />
<glyph unicode="&#xf1;" horiz-adv-x="542" d="M430 11v241q0 93 -43 132q-36 33 -104 33q-91 0 -135 -79q-28 -53 -28 -113v-214q0 -9 -6.5 -15t-15.5 -6t-15.5 6t-6.5 15v425q0 9 6.5 15t15.5 6t15.5 -6t6.5 -15v-79q49 100 170 100q82 0 129 -39q54 -48 54 -155v-252q0 -9 -6.5 -15t-15.5 -6t-15 6t-6 15zM413 682 q0 -16 -21 -35q-25 -23 -67 -23q-26 0 -72 27q-40 26 -65 26q-28 0 -46 -21t-25 -21q-16 0 -16 17q0 14 20 34q26 24 67 24q32 0 74 -25q42 -27 64 -27q16 0 28.5 6.5t18 14t12 14t11.5 6.5q17 0 17 -17z" />
<glyph unicode="&#xf2;" horiz-adv-x="568" d="M92 224q0 -81 49 -136q56 -61 143 -61q86 0 142 61q50 56 50 136q0 79 -50 135q-57 62 -142 62q-86 0 -143 -62q-49 -55 -49 -135zM48 224q0 97 64 163q67 70 172 70q104 0 171 -70q64 -66 64 -163q0 -98 -64 -164q-68 -70 -171 -70q-104 0 -172 70q-64 66 -64 164z M348 585q0 -14 -15 -14q-11 0 -18 13l-91 150q-6 10 -6 16q0 8 5.5 13t13.5 5q11 0 19 -15l88 -155q4 -7 4 -13z" />
<glyph unicode="&#xf3;" horiz-adv-x="568" d="M92 224q0 -81 49 -136q56 -61 143 -61q86 0 142 61q50 56 50 136q0 79 -50 135q-57 62 -142 62q-86 0 -143 -62q-49 -55 -49 -135zM48 224q0 97 64 163q67 70 172 70q104 0 171 -70q64 -66 64 -163q0 -98 -64 -164q-68 -70 -171 -70q-104 0 -172 70q-64 66 -64 164z M218 585q0 3 4 13l88 155q7 15 19 15q8 0 13.5 -5t5.5 -13q0 -6 -6 -16l-91 -150q-7 -13 -17 -13q-16 0 -16 14z" />
<glyph unicode="&#xf4;" horiz-adv-x="568" d="M92 224q0 -81 49 -136q56 -61 143 -61q86 0 142 61q50 56 50 136q0 79 -50 135q-57 62 -142 62q-86 0 -143 -62q-49 -55 -49 -135zM48 224q0 97 64 163q67 70 172 70q104 0 171 -70q64 -66 64 -163q0 -98 -64 -164q-68 -70 -171 -70q-104 0 -172 70q-64 66 -64 164z M283 767q11 0 18 -9l131 -140q8 -8 8 -15t-5 -12t-12 -5t-13 6l-127 134l-127 -134q-6 -6 -13 -6q-16 0 -16 17q0 8 7 15l132 140q7 9 17 9z" />
<glyph unicode="&#xf5;" horiz-adv-x="568" d="M92 224q0 -81 49 -136q56 -61 143 -61q86 0 142 61q50 56 50 136q0 79 -50 135q-57 62 -142 62q-86 0 -143 -62q-49 -55 -49 -135zM48 224q0 97 64 163q67 70 172 70q104 0 171 -70q64 -66 64 -163q0 -98 -64 -164q-68 -70 -171 -70q-104 0 -172 70q-64 66 -64 164z M439 682q0 -16 -21 -35q-25 -23 -67 -23q-26 0 -72 27q-40 26 -65 26q-28 0 -46 -21t-25 -21q-16 0 -16 17q0 14 20 34q26 24 67 24q32 0 74 -25q42 -27 64 -27q16 0 28.5 6.5t18 14t12 14t11.5 6.5q17 0 17 -17z" />
<glyph unicode="&#xf6;" horiz-adv-x="568" d="M92 224q0 -81 49 -136q56 -61 143 -61q86 0 142 61q50 56 50 136q0 79 -50 135q-57 62 -142 62q-86 0 -143 -62q-49 -55 -49 -135zM48 224q0 97 64 163q67 70 172 70q104 0 171 -70q64 -66 64 -163q0 -98 -64 -164q-68 -70 -171 -70q-104 0 -172 70q-64 66 -64 164z M200 643q-12 0 -20 8t-8 20q0 11 8 19t20 8q11 0 19.5 -8t8.5 -19q0 -12 -8.5 -20t-19.5 -8zM366 643q-12 0 -20 8t-8 20q0 11 8 19t20 8q11 0 19 -8t8 -19q0 -12 -8 -20t-19 -8z" />
<glyph unicode="&#xf7;" horiz-adv-x="568" d="M284 593q12 0 20 -8.5t8 -20.5q0 -13 -8 -21t-20 -8q-13 0 -21.5 8t-8.5 21q0 12 8.5 20.5t21.5 8.5zM533 353q0 -9 -6 -15t-15 -6h-457q-8 0 -14 6t-6 15q0 8 6 14t14 6h457q9 0 15 -6t6 -14zM255 141q0 13 8 21.5t21 8.5t21 -8.5t8 -21.5q0 -12 -8 -20.5t-21 -8.5 t-21 8.5t-8 20.5z" />
<glyph unicode="&#xf8;" horiz-adv-x="577" d="M48 224q0 97 64 163q67 70 172 70q83 0 147 -48l36 42q5 6 10 6q13 0 13 -13q0 -5 -4 -9l-37 -43l6 -5q64 -66 64 -163q0 -98 -64 -164q-68 -70 -171 -70q-82 0 -143 44l-33 -38q-4 -6 -11 -6q-12 0 -12 13q0 3 4 9l33 38q-6 4 -10 10q-64 66 -64 164zM92 224 q0 -81 49 -136l7 -8l257 299q-53 42 -121 42q-86 0 -143 -62q-49 -55 -49 -135zM426 359l-3 3l-256 -298q49 -37 117 -37q86 0 142 61q50 56 50 136q0 79 -50 135z" />
<glyph unicode="&#xf9;" horiz-adv-x="535" d="M69 187v249q0 9 6.5 15t15.5 6t15.5 -6t6.5 -15v-243q0 -62 21 -101q35 -61 133 -61q99 0 134 61q21 37 21 101v243q0 9 6.5 15t15.5 6t15.5 -6t6.5 -15v-249q0 -76 -30 -123q-45 -74 -169 -74q-123 0 -168 74q-30 47 -30 123zM332 585q0 -14 -15 -14q-11 0 -18 13 l-91 150q-6 10 -6 16q0 8 5.5 13t13.5 5q11 0 19 -15l88 -155q4 -7 4 -13z" />
<glyph unicode="&#xfa;" horiz-adv-x="535" d="M69 187v249q0 9 6.5 15t15.5 6t15.5 -6t6.5 -15v-243q0 -62 21 -101q35 -61 133 -61q99 0 134 61q21 37 21 101v243q0 9 6.5 15t15.5 6t15.5 -6t6.5 -15v-249q0 -76 -30 -123q-45 -74 -169 -74q-123 0 -168 74q-30 47 -30 123zM202 585q0 3 4 13l88 155q7 15 19 15 q8 0 13.5 -5t5.5 -13q0 -6 -6 -16l-91 -150q-7 -13 -17 -13q-16 0 -16 14z" />
<glyph unicode="&#xfb;" horiz-adv-x="535" d="M69 187v249q0 9 6.5 15t15.5 6t15.5 -6t6.5 -15v-243q0 -62 21 -101q35 -61 133 -61q99 0 134 61q21 37 21 101v243q0 9 6.5 15t15.5 6t15.5 -6t6.5 -15v-249q0 -76 -30 -123q-45 -74 -169 -74q-123 0 -168 74q-30 47 -30 123zM267 767q11 0 18 -9l131 -140q8 -8 8 -15 t-5 -12t-12 -5t-13 6l-127 134l-127 -134q-6 -6 -13 -6q-16 0 -16 17q0 8 7 15l132 140q7 9 17 9z" />
<glyph unicode="&#xfc;" horiz-adv-x="535" d="M69 187v249q0 9 6.5 15t15.5 6t15.5 -6t6.5 -15v-243q0 -62 21 -101q35 -61 133 -61q99 0 134 61q21 37 21 101v243q0 9 6.5 15t15.5 6t15.5 -6t6.5 -15v-249q0 -76 -30 -123q-45 -74 -169 -74q-123 0 -168 74q-30 47 -30 123zM185 643q-12 0 -20 8t-8 20q0 11 8 19t20 8 q11 0 19.5 -8t8.5 -19q0 -12 -8.5 -20t-19.5 -8zM351 643q-12 0 -20 8t-8 20q0 11 8 19t20 8q11 0 19 -8t8 -19q0 -12 -8 -20t-19 -8z" />
<glyph unicode="&#xfd;" horiz-adv-x="439" d="M410 457q9 0 16 -6.5t7 -15.5t-6 -23l-175 -435q-40 -101 -89.5 -154t-121.5 -53q-10 0 -16 6.5t-6 15.5t6 15.5t16 6.5q56 0 93 40t71 122l-194 440q-5 12 -5 18q0 10 7 16.5t17 6.5q16 0 22 -15l175 -411l161 408q8 18 22 18zM154 585q0 3 4 13l88 155q7 15 19 15 q8 0 13.5 -5t5.5 -13q0 -6 -6 -16l-91 -150q-7 -13 -17 -13q-16 0 -16 14z" />
<glyph unicode="&#xfe;" horiz-adv-x="514" d="M76 668q0 9 6.5 15.5t15.5 6.5t15.5 -6.5t6.5 -15.5v-217q52 6 85 6q117 0 187 -62q73 -63 73 -170q0 -102 -58 -167q-65 -68 -164 -68q-71 0 -123 26v-226q0 -9 -6.5 -15t-15.5 -6t-15.5 6t-6.5 15v878zM120 414v-361q53 -27 120 -27q79 0 131 55q50 52 50 144 q0 89 -56 142q-59 54 -157 54q-50 0 -88 -7z" />
<glyph unicode="&#xff;" horiz-adv-x="439" d="M410 457q9 0 16 -6.5t7 -15.5t-6 -23l-175 -435q-40 -101 -89.5 -154t-121.5 -53q-10 0 -16 6.5t-6 15.5t6 15.5t16 6.5q56 0 93 40t71 122l-194 440q-5 12 -5 18q0 10 7 16.5t17 6.5q16 0 22 -15l175 -411l161 408q8 18 22 18zM136 643q-12 0 -20 8t-8 20q0 11 8 19 t20 8q11 0 19.5 -8t8.5 -19q0 -12 -8.5 -20t-19.5 -8zM302 643q-12 0 -20 8t-8 20q0 11 8 19t20 8q11 0 19 -8t8 -19q0 -12 -8 -20t-19 -8z" />
<glyph unicode="&#x131;" horiz-adv-x="196" d="M76 436q0 9 6.5 15t15.5 6t15.5 -6t6.5 -15v-425q0 -9 -6.5 -15t-15.5 -6t-15.5 6t-6.5 15v425z" />
<glyph unicode="&#x152;" horiz-adv-x="1216" d="M754 319v-277h410q8 0 14 -6t6 -15t-6 -15t-14 -6h-434q-10 0 -17 7t-7 16v140q-47 -79 -127.5 -126t-175.5 -47q-146 0 -249 102t-103 247t103.5 248.5t248.5 103.5q95 0 175.5 -48t127.5 -128v142q0 10 7 17t17 7h434q8 0 14 -6.5t6 -14.5q0 -9 -6 -15t-14 -6h-410 v-277h358q9 0 15 -6.5t6 -14.5q0 -9 -6 -15.5t-15 -6.5h-358zM704 339q0 124 -88.5 215.5t-213.5 91.5q-124 0 -212.5 -91.5t-88.5 -215.5t88 -214.5t213 -90.5t213.5 90.5t88.5 214.5z" />
<glyph unicode="&#x153;" horiz-adv-x="952" d="M48 224q0 97 64 163q67 70 172 70q104 0 171 -70q26 -28 40 -58q15 34 39 61q59 67 163 67q95 0 154 -64q54 -59 54 -150q0 -28 -26 -28h-357q3 -75 42 -121q55 -66 147 -66q71 0 124 30q6 3 12 7l9 6t6.5 3.5t6.5 1.5q7 0 12 -6t5 -13q0 -13 -27 -29q-67 -38 -150 -38 q-112 0 -178 77q-20 23 -34 54q-17 -36 -42 -61q-68 -70 -171 -70q-104 0 -172 70q-64 66 -64 164zM92 224q0 -81 49 -136q56 -61 143 -61q86 0 142 61q50 56 50 142q0 74 -50 129q-57 62 -142 62q-86 0 -143 -62q-49 -55 -49 -135zM522 249h340q-1 71 -43 118 q-49 52 -122 52q-87 0 -134 -58q-38 -44 -41 -112z" />
<glyph unicode="&#x178;" horiz-adv-x="565" d="M557 649l-251 -342v-294q0 -9 -7 -16t-17 -7t-17 7t-7 16v294l-250 342q-6 7 -6 19q0 9 6.5 15.5t16.5 6.5q13 0 23 -14l234 -322l236 322q11 14 22 14q10 0 16.5 -6.5t6.5 -16.5q0 -9 -6 -18zM199 878q-12 0 -20 8t-8 20q0 11 8 19t20 8q11 0 19.5 -8t8.5 -19 q0 -12 -8.5 -20t-19.5 -8zM365 878q-12 0 -20 8t-8 20q0 11 8 19t20 8q11 0 19 -8t8 -19q0 -12 -8 -20t-19 -8z" />
<glyph unicode="&#x192;" d="M189 448h61l18 97q25 145 145 145q47 0 83 -18q24 -13 24 -28q0 -17 -19 -17q-6 0 -24 10q-25 16 -61 16q-48 0 -72 -27.5t-34 -84.5l-17 -93h144q7 0 11.5 -5t4.5 -12q0 -17 -16 -17h-150l-91 -511q-26 -146 -151 -146q-28 0 -49 7q-27 8 -27 25t19 17q4 0 20 -6 q12 -5 37 -5q48 0 73.5 28.5t35.5 83.5l90 507h-55q-7 0 -12 5t-5 12t5 12t12 5z" />
<glyph unicode="&#x2c6;" horiz-adv-x="392" d="M196 767q7 0 18 -9l131 -140q8 -8 8 -15t-5 -12t-12 -5t-13 6l-127 134l-127 -134q-6 -6 -13 -6q-16 0 -16 17q0 8 7 15l132 140q11 9 17 9z" />
<glyph unicode="&#x2c7;" horiz-adv-x="392" d="M40 750q0 17 16 17q7 0 13 -6l127 -134l127 134q6 6 13 6t12 -5t5 -12q0 -8 -8 -14l-131 -140q-10 -10 -18 -10q-7 0 -17 10l-132 140q-7 6 -7 14z" />
<glyph unicode="&#x2d8;" horiz-adv-x="392" d="M196 628q51 0 83 44q5 7 12.5 20t12.5 18t10 5q18 0 18 -16q0 -15 -24 -45q-44 -60 -112 -60t-112 60q-24 30 -24 45q0 16 18 16q5 0 10 -5t12.5 -18t12.5 -20q32 -44 83 -44z" />
<glyph unicode="&#x2d9;" horiz-adv-x="392" d="M196 643q-12 0 -20 8t-8 20q0 11 8 19t20 8q11 0 19 -8t8 -19q0 -12 -8 -20t-19 -8z" />
<glyph unicode="&#x2da;" horiz-adv-x="392" d="M308 659q0 -47 -32.5 -80t-79.5 -33t-80 33t-33 80t33 80t80 33t79.5 -33t32.5 -80zM283 659q0 37 -25.5 63t-61.5 26t-62 -26t-26 -63t26 -62.5t62 -25.5t61.5 25.5t25.5 62.5z" />
<glyph unicode="&#x2db;" horiz-adv-x="392" d="M148 -175q-34 0 -55 15.5t-22 45.5q0 37 26 69.5t69 53.5q13 -4 22 -5q-33 -18 -58 -45t-25 -56q0 -46 46 -46q17 0 34 4t21 4q9 -3 9 -14q0 -13 -21 -19.5t-46 -6.5z" />
<glyph unicode="&#x2dc;" horiz-adv-x="392" d="M352 682q0 -15 -21 -34q-24 -24 -65 -24q-26 0 -72 27q-40 26 -65 26q-24 0 -43 -17q-5 -4 -10.5 -11t-10 -10.5t-9.5 -3.5q-16 0 -16 17q0 14 20 34q26 24 65 24q32 0 74 -25q42 -27 64 -27q23 0 42 15q5 4 11 11t10.5 11t8.5 4q17 0 17 -17z" />
<glyph unicode="&#x2dd;" horiz-adv-x="392" d="M58 585q0 3 4 13l88 155q7 15 19 15q8 0 13.5 -5t5.5 -13q0 -6 -6 -16l-91 -150q-7 -13 -17 -13q-16 0 -16 14zM201 585q0 5 5 13l87 155q8 15 19 15q8 0 13.5 -5t5.5 -13q0 -6 -6 -16l-91 -150q-7 -13 -17 -13q-6 0 -11 4t-5 10z" />
<glyph unicode="&#x3c0;" horiz-adv-x="568" d="M468 -10q-19 0 -40 24q-36 41 -36 121v276h-220l-22 -280q-5 -79 -48 -120q-24 -21 -39 -21q-23 0 -23 18q0 3 2 6.5t5 6t8.5 7.5t9.5 8q37 32 43 104l21 271h-76q-7 0 -12.5 5.5t-5.5 13.5q0 7 5.5 12.5t12.5 5.5h462q7 0 12.5 -5.5t5.5 -12.5q0 -8 -5 -13.5t-13 -5.5 h-80v-270q0 -63 23 -95q6 -9 14.5 -16.5t12.5 -12t4 -9.5q0 -18 -21 -18z" />
<glyph unicode="&#x401;" horiz-adv-x="589" d="M126 319v-277h411q8 0 14 -6t6 -15t-6 -15t-14 -6h-435q-10 0 -17 7t-7 16v635q0 9 7 16t17 7h435q8 0 14 -6.5t6 -14.5q0 -9 -6 -15t-14 -6h-411v-277h359q9 0 15 -6.5t6 -14.5q0 -9 -6 -15.5t-15 -6.5h-359zM212 846q-12 0 -20 8t-8 20q0 11 8 19t20 8q11 0 19.5 -8 t8.5 -19q0 -12 -8.5 -20t-19.5 -8zM378 846q-12 0 -20 8t-8 20q0 11 8 19t20 8q11 0 19 -8t8 -19q0 -12 -8 -20t-19 -8z" />
<glyph unicode="&#x402;" horiz-adv-x="742" d="M673 245v-23q0 -134 -47 -187q-39 -45 -81 -45q-24 0 -24 20q0 8 8 12t24.5 12.5t30.5 21.5q46 43 46 150v33q0 103 -48 147q-38 35 -114 35q-99 0 -145 -70q-31 -45 -31 -109v-229q0 -9 -7 -16t-17 -7t-17 7t-7 16v626h-229q-9 0 -15 6t-6 15q0 8 6 14.5t15 6.5h506 q8 0 14 -6.5t6 -14.5q0 -9 -6 -15t-14 -6h-229v-291q22 49 63 77q49 32 120 32q88 0 137 -41q61 -51 61 -171z" />
<glyph unicode="&#x403;" horiz-adv-x="529" d="M78 13v645q0 9 7 16t17 7h388q8 0 14 -6t6 -15t-6 -15t-14 -6h-364v-626q0 -9 -7 -16t-17 -7t-17 7t-7 16zM202 788q0 3 4 13l88 155q7 15 19 15q8 0 13.5 -5t5.5 -13q0 -6 -6 -16l-91 -150q-7 -13 -17 -13q-16 0 -16 14z" />
<glyph unicode="&#x404;" horiz-adv-x="662" d="M618 612q0 -9 -6.5 -15.5t-15.5 -6.5q-6 0 -15.5 6t-26.5 15.5t-36 16.5q-53 19 -117 19q-118 0 -207 -87q-85 -85 -91 -198h410q9 0 15 -6.5t6 -14.5q0 -9 -6 -15t-15 -6h-409q6 -127 94 -209q86 -78 204 -78q62 0 117 19q20 7 37 17t26.5 15.5t15.5 5.5q9 0 15.5 -6.5 t6.5 -15.5q0 -20 -43 -40q-76 -38 -175 -38q-142 0 -242 92q-109 99 -109 259q0 143 106 247q102 102 244 102q98 0 174 -38q43 -20 43 -40z" />
<glyph unicode="&#x405;" horiz-adv-x="545" d="M474 626q0 -9 -6.5 -15.5t-16.5 -6.5q-7 0 -27 10.5t-37 15.5q-52 18 -106 18q-181 0 -181 -133q0 -41 26.5 -68t77.5 -47q19 -7 93.5 -28t113.5 -42q93 -48 93 -144q0 -93 -63 -144.5t-169 -51.5q-111 0 -201 54q-24 15 -24 31q0 11 7 17.5t17 6.5q7 0 14 -5t23 -15.5 t37 -20.5q57 -26 127 -26q87 0 134 40.5t47 109.5q0 76 -87 116q-27 13 -96 32.5t-110 37.5q-110 48 -110 146q0 84 60 130t173 46q87 0 154 -30q37 -18 37 -34z" />
<glyph unicode="&#x406;" horiz-adv-x="205" d="M78 13v654q0 9 7 16t17 7t17 -7t7 -16v-654q0 -9 -7 -16t-17 -7t-17 7t-7 16z" />
<glyph unicode="&#x407;" horiz-adv-x="205" d="M78 13v654q0 9 7 16t17 7t17 -7t7 -16v-654q0 -9 -7 -16t-17 -7t-17 7t-7 16zM22 846q-12 0 -20 8t-8 20q0 11 8 19t20 8q11 0 19.5 -8t8.5 -19q0 -12 -8.5 -20t-19.5 -8zM188 846q-12 0 -20 8t-8 20q0 11 8 19t20 8q11 0 19 -8t8 -19q0 -12 -8 -20t-19 -8z" />
<glyph unicode="&#x408;" horiz-adv-x="511" d="M428 667v-422q0 -121 -69 -188q-70 -67 -178 -67q-89 0 -159 59q-11 9 -11 21q0 10 6.5 16t15.5 6q10 0 18 -8q58 -51 129 -51q93 0 148 59q52 55 52 155v420q0 9 7 16t17 7t17 -7t7 -16z" />
<glyph unicode="&#x409;" horiz-adv-x="1111" d="M167 638v-106q0 -320 -63 -461q-23 -50 -35.5 -65.5t-26.5 -15.5q-10 0 -17.5 7t-7.5 17q0 8 7 18.5t20 30.5t22 44q55 133 53 425v126q0 9 7 16t17 7h431q10 0 17 -7t7 -16v-292h229q47 0 86 -9t73 -28.5t53.5 -56.5t19.5 -87q0 -94 -65 -139.5t-164 -45.5h-256 q-10 0 -17 7t-7 16v615h-383zM1011 185q0 70 -50 105.5t-136 35.5h-227v-286h229q83 0 133.5 37t50.5 108z" />
<glyph unicode="&#x40a;" horiz-adv-x="1146" d="M633 667v-301h230q46 0 85.5 -9t73 -28.5t53 -56.5t19.5 -87q0 -94 -65 -139.5t-164 -45.5h-256q-10 0 -17 7t-7 16v303h-459v-313q0 -9 -7 -16t-17 -7t-17 7t-7 16v654q0 9 7 16t17 7t17 -7t7 -16v-301h459v301q0 9 7 16t17 7t17 -7t7 -16zM1046 185q0 70 -49.5 105.5 t-135.5 35.5h-228v-286h230q83 0 133 37t50 108z" />
<glyph unicode="&#x40b;" horiz-adv-x="742" d="M521 639h-229v-291q22 49 63 77q49 32 120 32q88 0 137 -41q61 -51 61 -171v-234q0 -8 -6.5 -14.5t-15.5 -6.5t-15 6.5t-6 14.5v228q0 103 -48 147q-38 35 -114 35q-99 0 -145 -70q-31 -45 -31 -109v-229q0 -9 -7 -16t-17 -7t-17 7t-7 16v626h-229q-9 0 -15 6t-6 15 q0 8 6 14.5t15 6.5h506q8 0 14 -6.5t6 -14.5q0 -9 -6 -15t-14 -6z" />
<glyph unicode="&#x40c;" horiz-adv-x="585" d="M538 649l-285 -306l293 -313q7 -9 7 -18t-6 -15.5t-16 -6.5q-13 0 -27 16l-290 313h-88v-305q0 -10 -7 -17t-17 -7t-17 7t-7 17v653q0 9 7 16t17 7t17 -7t7 -16v-305h86l292 317q9 11 21 11q10 0 16 -6.5t6 -16.5q0 -9 -9 -18zM227 820q0 3 4 13l88 155q7 15 19 15 q8 0 13.5 -5t5.5 -13q0 -6 -6 -16l-91 -150q-7 -13 -17 -13q-16 0 -16 14z" />
<glyph unicode="&#x40e;" horiz-adv-x="560" d="M62 32q70 0 115.5 37t87.5 111l-250 471q-4 10 -4 16q0 10 6.5 16.5t16.5 6.5q16 0 24 -17l231 -441l217 440q9 18 25 18q9 0 15.5 -6t6.5 -16q0 -9 -5 -17l-220 -447q-51 -105 -112 -159.5t-153 -54.5q-25 0 -25 21t24 21zM279 848q49 0 82 44q5 6 10.5 15.5t9 14.5t8 9 t8.5 4q18 0 18 -16q0 -15 -24 -45q-46 -60 -112 -60q-68 0 -112 60q-24 33 -24 45q0 16 18 16q4 0 8.5 -4t8 -9t9 -14.5t10.5 -15.5q32 -44 82 -44z" />
<glyph unicode="&#x40f;" horiz-adv-x="698" d="M620 667v-644q0 -9 -7 -16t-17 -7h-223v-218q0 -9 -7 -16t-17 -7t-17 7t-7 16v218h-223q-10 0 -17 7t-7 16v644q0 9 7 16t17 7t17 -7t7 -16v-624h446v624q0 9 7 16t17 7t17 -7t7 -16z" />
<glyph unicode="&#x410;" horiz-adv-x="617" d="M308 625l-167 -403h335zM561 10l-72 173h-361l-73 -173q-8 -20 -25 -20q-22 0 -22 22q0 4 4 16l265 638q10 24 32 24q23 0 32 -24l265 -638q3 -7 3 -15q0 -23 -23 -23q-17 0 -25 20z" />
<glyph unicode="&#x411;" horiz-adv-x="640" d="M126 366h230q47 0 86 -9t73 -28.5t53.5 -56.5t19.5 -87q0 -94 -65.5 -139.5t-163.5 -45.5h-257q-10 0 -17 7t-7 16v635q0 9 7 16t17 7h428q9 0 15 -6t6 -15t-6 -15t-15 -6h-404v-273zM540 185q0 70 -50 105.5t-136 35.5h-228v-286h230q83 0 133.5 37t50.5 108z" />
<glyph unicode="&#x412;" horiz-adv-x="640" d="M588 180q0 -90 -64.5 -135t-160.5 -45h-261q-10 0 -17 7t-7 16v635q0 9 7 16t17 7h223q87 0 147 -44t60 -129q0 -112 -92 -152v-2q71 -13 109.5 -59.5t38.5 -114.5zM483 504q0 67 -47 102t-116 35h-194v-275h214q64 0 103.5 34.5t39.5 103.5zM540 185q0 60 -41.5 100.5 t-117.5 40.5h-255v-286h230q79 0 131.5 34t52.5 111z" />
<glyph unicode="&#x413;" horiz-adv-x="529" d="M78 13v645q0 9 7 16t17 7h388q8 0 14 -6t6 -15t-6 -15t-14 -6h-364v-626q0 -9 -7 -16t-17 -7t-17 7t-7 16z" />
<glyph unicode="&#x414;" horiz-adv-x="699" d="M235 532q0 -102 -3.5 -169.5t-22.5 -162t-56 -157.5h395v595h-313v-106zM211 681h361q10 0 17 -7t7 -16v-615h60q10 0 17 -7t7 -16v-235q0 -9 -7 -16t-17 -7t-17 7t-7 16v215h-566v-215q0 -9 -7 -16t-17 -7t-17 7t-7 16v235q0 9 7 16t17 7h61q38 61 58 156.5t23 162.5 t3 170v126q0 9 7 16t17 7z" />
<glyph unicode="&#x415;" horiz-adv-x="589" d="M126 319v-277h411q8 0 14 -6t6 -15t-6 -15t-14 -6h-435q-10 0 -17 7t-7 16v635q0 9 7 16t17 7h435q8 0 14 -6.5t6 -14.5q0 -9 -6 -15t-14 -6h-411v-277h359q9 0 15 -6.5t6 -14.5q0 -9 -6 -15.5t-15 -6.5h-359z" />
<glyph unicode="&#x416;" horiz-adv-x="955" d="M913 649l-285 -306l293 -313q7 -9 7 -18t-6 -15.5t-16 -6.5q-13 0 -27 16l-290 313h-88v-305q0 -10 -7 -17t-17 -7t-17 7t-7 17v305h-87l-291 -313q-16 -16 -26 -16q-22 0 -22 22q0 9 7 18l293 313l-286 306q-8 9 -8 18q0 10 6 16.5t15 6.5q13 0 22 -11l292 -317h85v305 q0 9 7 16t17 7t17 -7t7 -16v-305h86l292 317q9 11 21 11q10 0 16 -6.5t6 -16.5q0 -9 -9 -18z" />
<glyph unicode="&#x417;" horiz-adv-x="502" d="M310 355q69 -18 104 -63t35 -110q0 -86 -62 -139t-163 -53q-64 0 -116 14q-67 19 -67 44q0 9 6 15t15 6q7 0 27.5 -9.5t34.5 -14.5q43 -15 98 -15q83 0 132.5 43t49.5 112q0 104 -103 136q-33 11 -79 11h-88q-8 0 -13.5 6t-5.5 14q0 9 5.5 14.5t13.5 5.5h83q51 0 87 15 q77 32 77 119q0 61 -42.5 101.5t-111.5 40.5q-54 0 -97 -20q-13 -6 -25 -13t-18.5 -10.5t-11.5 -3.5q-9 0 -15.5 6.5t-6.5 14.5q0 18 40 37q64 31 136 31q88 0 142.5 -51.5t54.5 -127.5q0 -120 -116 -156z" />
<glyph unicode="&#x418;" horiz-adv-x="722" d="M596 13v536l-470 -484v-52q0 -9 -7 -16t-17 -7t-17 7t-7 16v654q0 9 7 16t17 7t17 -7t7 -16v-540l470 483v57q0 9 7 16t17 7t17 -7t7 -16v-654q0 -9 -7 -16t-17 -7t-17 7t-7 16z" />
<glyph unicode="&#x419;" horiz-adv-x="722" d="M596 13v536l-470 -484v-52q0 -9 -7 -16t-17 -7t-17 7t-7 16v654q0 9 7 16t17 7t17 -7t7 -16v-540l470 483v57q0 9 7 16t17 7t17 -7t7 -16v-654q0 -9 -7 -16t-17 -7t-17 7t-7 16zM368 848q49 0 82 44q5 6 10.5 15.5t9 14.5t8 9t8.5 4q18 0 18 -16q0 -15 -24 -45 q-46 -60 -112 -60q-68 0 -112 60q-24 33 -24 45q0 16 18 16q4 0 8.5 -4t8 -9t9 -14.5t10.5 -15.5q32 -44 82 -44z" />
<glyph unicode="&#x41a;" horiz-adv-x="580" d="M538 649l-285 -306l293 -313q7 -9 7 -18t-6 -15.5t-16 -6.5q-13 0 -27 16l-290 313h-88v-305q0 -10 -7 -17t-17 -7t-17 7t-7 17v653q0 9 7 16t17 7t17 -7t7 -16v-305h86l292 317q9 11 21 11q10 0 16 -6.5t6 -16.5q0 -9 -9 -18z" />
<glyph unicode="&#x41b;" horiz-adv-x="676" d="M17 14q0 8 7 18.5t20 30.5t22 44q55 133 53 425v126q0 9 7 16t17 7h431q10 0 17 -7t7 -16v-645q0 -9 -7 -16t-17 -7t-17 7t-7 16v625h-383v-106q0 -320 -63 -461q-23 -50 -35.5 -65.5t-26.5 -15.5q-10 0 -17.5 7t-7.5 17z" />
<glyph unicode="&#x41c;" horiz-adv-x="829" d="M78 661q0 12 8.5 20.5t20.5 8.5q17 0 26 -16l281 -455l281 455q11 16 27 16q12 0 20 -8.5t8 -20.5v-648q0 -9 -6.5 -16t-16.5 -7t-17 7t-7 16v585l-265 -426q-9 -15 -24 -15t-24 15l-265 426v-585q0 -9 -6.5 -16t-16.5 -7t-17 7t-7 16v648z" />
<glyph unicode="&#x41d;" horiz-adv-x="711" d="M78 13v654q0 9 7 16t17 7t17 -7t7 -16v-304h459v304q0 9 7 16t17 7t17 -7t7 -16v-654q0 -9 -7 -16t-17 -7t-17 7t-7 16v307h-459v-307q0 -9 -7 -16t-17 -7t-17 7t-7 16z" />
<glyph unicode="&#x41e;" horiz-adv-x="805" d="M754 339q0 -144 -103 -246.5t-248 -102.5t-248.5 102.5t-103.5 246.5q0 145 103.5 248t248.5 103t248 -103t103 -248zM704 339q0 125 -88 215.5t-214 90.5q-125 0 -213 -90.5t-88 -215.5t88 -215t213 -90q126 0 214 90t88 215z" />
<glyph unicode="&#x41f;" horiz-adv-x="698" d="M620 658v-645q0 -9 -7 -16t-17 -7t-17 7t-7 16v625h-446v-625q0 -9 -7 -16t-17 -7t-17 7t-7 16v645q0 9 7 16t17 7h494q10 0 17 -7t7 -16z" />
<glyph unicode="&#x420;" horiz-adv-x="615" d="M102 681h243q93 0 154 -46q79 -60 79 -171q0 -55 -22.5 -101t-62.5 -74q-58 -42 -163 -42h-204v-234q0 -9 -7 -16t-17 -7t-17 7t-7 16v644q0 10 7 17t17 7zM529 464q0 93 -65 139q-51 36 -127 36h-211v-350h196q88 0 136 32q71 50 71 143z" />
<glyph unicode="&#x421;" horiz-adv-x="662" d="M618 612q0 -9 -6.5 -15.5t-15.5 -6.5q-6 0 -15.5 6t-26.5 15.5t-36 16.5q-53 19 -117 19q-122 0 -211.5 -91t-89.5 -215q0 -135 88.5 -221.5t213.5 -86.5q62 0 117 19q20 7 37 17t26.5 15.5t15.5 5.5q9 0 15.5 -6.5t6.5 -15.5q0 -20 -43 -40q-76 -38 -175 -38 q-146 0 -248.5 98t-102.5 253q0 142 104 245.5t246 103.5q98 0 174 -38q43 -20 43 -40z" />
<glyph unicode="&#x422;" horiz-adv-x="547" d="M526 639h-228v-626q0 -9 -7 -16t-17 -7t-17 7t-7 16v626h-229q-9 0 -15 6t-6 15q0 8 6 14.5t15 6.5h505q9 0 15 -6.5t6 -14.5q0 -9 -6 -15t-15 -6z" />
<glyph unicode="&#x423;" horiz-adv-x="560" d="M62 32q70 0 115.5 37t87.5 111l-250 471q-4 10 -4 16q0 10 6.5 16.5t16.5 6.5q16 0 24 -17l231 -441l217 440q9 18 25 18q9 0 15.5 -6t6.5 -16q0 -9 -5 -17l-220 -447q-52 -105 -112.5 -159.5t-152.5 -54.5q-25 0 -25 21t24 21z" />
<glyph unicode="&#x424;" horiz-adv-x="748" d="M398 137h44q85 0 134 39q74 56 74 164t-74 164q-49 39 -134 39h-44v-406zM350 137v406h-43q-85 0 -134 -39q-74 -55 -74 -164t74 -164q49 -39 134 -39h43zM698 340q0 -128 -89 -198q-61 -48 -163 -48h-48v-81q0 -9 -7 -16t-17 -7t-17 7t-7 16v81h-47q-102 0 -164 48 q-89 71 -89 198t89 198q61 48 164 48h47v81q0 9 7 16t17 7t17 -7t7 -16v-81h48q102 0 163 -48q89 -71 89 -198z" />
<glyph unicode="&#x425;" horiz-adv-x="607" d="M56 675l248 -297l248 297q11 15 24 15q10 0 18.5 -7.5t8.5 -17.5q0 -8 -9 -19l-259 -306l261 -306q8 -10 8 -19q0 -10 -8 -17.5t-18 -7.5q-13 0 -24 14l-249 299l-250 -299q-11 -14 -24 -14q-10 0 -18.5 7.5t-8.5 17.5q0 8 9 19l261 306l-260 306q-8 10 -8 19 q0 10 8 17.5t18 7.5q13 0 24 -15z" />
<glyph unicode="&#x426;" horiz-adv-x="722" d="M704 20v-238q0 -9 -7 -16t-17 -7t-17 7t-7 16v218h-554q-10 0 -17 7t-7 16v644q0 9 7 16t17 7t17 -7t7 -16v-624h446v624q0 9 7 16t17 7t17 -7t7 -16v-624h60q10 0 17 -7t7 -16z" />
<glyph unicode="&#x427;" horiz-adv-x="615" d="M67 459v208q0 9 7 16t17 7t17 -7t7 -16v-207q0 -88 41 -129t125 -41q100 0 207 44v333q0 9 7 16t17 7t17 -7t7 -16v-654q0 -9 -7 -16t-17 -7t-17 7t-7 16v277q-108 -43 -210 -43q-211 0 -211 212z" />
<glyph unicode="&#x428;" horiz-adv-x="1116" d="M1038 667v-644q0 -9 -7 -16t-17 -7h-912q-10 0 -17 7t-7 16v644q0 9 7 16t17 7t17 -7t7 -16v-624h408v624q0 9 7 16t17 7t17 -7t7 -16v-624h408v624q0 9 7 16t17 7t17 -7t7 -16z" />
<glyph unicode="&#x429;" horiz-adv-x="1140" d="M1074 0h-972q-10 0 -17 7t-7 16v644q0 9 7 16t17 7t17 -7t7 -16v-624h408v624q0 9 7 16t17 7t17 -7t7 -16v-624h408v624q0 9 7 16t17 7t17 -7t7 -16v-624h60q10 0 17 -7t7 -16v-238q0 -9 -7 -16t-17 -7t-17 7t-7 16v218z" />
<glyph unicode="&#x42a;" horiz-adv-x="831" d="M730 185q0 70 -49.5 105.5t-135.5 35.5h-228v-286h230q83 0 133 37t50 108zM317 658v-292h230q46 0 85.5 -9t73 -28.5t53 -56.5t19.5 -87q0 -94 -65 -139.5t-163 -45.5h-257q-10 0 -17 7t-7 16v616h-228q-9 0 -15 6t-6 15t6 15t15 6h252q10 0 17 -7t7 -16z" />
<glyph unicode="&#x42b;" horiz-adv-x="845" d="M540 185q0 70 -50 105.5t-136 35.5h-228v-286h230q83 0 133.5 37t50.5 108zM126 667v-301h230q47 0 86 -9t73 -28.5t53.5 -56.5t19.5 -87q0 -94 -65.5 -139.5t-163.5 -45.5h-257q-10 0 -17 7t-7 16v644q0 9 7 16t17 7t17 -7t7 -16zM718 13v654q0 9 7 16t17 7t17 -7t7 -16 v-654q0 -9 -7 -16t-17 -7t-17 7t-7 16z" />
<glyph unicode="&#x42c;" horiz-adv-x="640" d="M540 185q0 70 -50 105.5t-136 35.5h-228v-286h230q83 0 133.5 37t50.5 108zM126 667v-301h230q47 0 86 -9t73 -28.5t53.5 -56.5t19.5 -87q0 -94 -65.5 -139.5t-163.5 -45.5h-257q-10 0 -17 7t-7 16v644q0 9 7 16t17 7t17 -7t7 -16z" />
<glyph unicode="&#x42d;" horiz-adv-x="662" d="M44 612q0 21 42 40q78 38 174 38q141 0 245 -102q106 -104 106 -247q0 -159 -110 -259q-100 -92 -241 -92q-98 0 -176 38q-42 20 -42 40q0 9 6 15.5t16 6.5q6 0 15 -5.5t26.5 -15.5t37.5 -17q53 -19 116 -19q118 0 204 78q89 81 95 209h-410q-8 0 -14 6t-6 15q0 8 6 14.5 t14 6.5h410q-6 114 -90 198q-89 87 -208 87q-62 0 -117 -19q-19 -7 -35.5 -16.5t-26 -15.5t-15.5 -6q-9 0 -15.5 6.5t-6.5 15.5z" />
<glyph unicode="&#x42e;" horiz-adv-x="1054" d="M1004 339q0 -144 -103 -246.5t-248 -102.5q-141 0 -243 96.5t-108 233.5h-176v-307q0 -9 -7 -16t-17 -7t-17 7t-7 16v654q0 9 7 16t17 7t17 -7t7 -16v-304h176q9 136 110.5 231.5t240.5 95.5q145 0 248 -103t103 -248zM954 339q0 125 -88 215.5t-214 90.5t-213.5 -90 t-87.5 -216q0 -125 87.5 -215t213.5 -90t214 90t88 215z" />
<glyph unicode="&#x42f;" horiz-adv-x="637" d="M511 13v267h-194l-222 -279q-8 -11 -21 -11q-11 0 -18 7t-7 16t5 16l203 251q-81 4 -124 36q-83 58 -83 164q0 114 80 166q57 35 163 35h242q10 0 17 -7t7 -17v-644q0 -9 -7 -16t-17 -7t-17 7t-7 16zM511 640h-209q-91 0 -136 -27q-68 -39 -68 -133q0 -92 72 -136 q38 -23 112 -23h229v319z" />
<glyph unicode="&#x430;" horiz-adv-x="470" d="M47 119q0 86 96 120q59 21 214 32v15q0 65 -28 99q-29 35 -94 35q-51 0 -99 -19q-11 -4 -22 -10t-17 -8.5t-10 -2.5q-7 0 -12 5.5t-5 12.5q0 14 43 34q55 25 125 25q86 0 127 -47q36 -44 36 -124v-275q0 -9 -6.5 -15t-15.5 -6t-15.5 6t-6.5 15v13q-67 -34 -143 -34 q-66 0 -116.5 32.5t-50.5 96.5zM225 25q70 0 132 37v175q-133 -8 -180 -22q-89 -28 -89 -93q0 -49 40.5 -73t96.5 -24z" />
<glyph unicode="&#x431;" horiz-adv-x="567" d="M96 279q0 -50 9.5 -93t30 -80t58.5 -58.5t90 -21.5q89 0 138.5 51.5t49.5 132.5q0 92 -54 138t-128 46q-118 0 -193 -85q-1 -10 -1 -30zM53 279q0 172 109 254q40 29 121 54.5t106 37.5q39 18 61 52q9 12 19 12t16 -8.5t2 -18.5q-17 -39 -67 -64q-27 -13 -109.5 -39 t-118.5 -52q-72 -54 -90 -156q78 76 198 76q88 0 151 -54.5t63 -162.5q0 -97 -62 -158.5t-168 -61.5q-64 0 -110.5 25t-72 67.5t-37 91.5t-11.5 105z" />
<glyph unicode="&#x432;" horiz-adv-x="501" d="M448 121q0 -63 -44.5 -92t-116.5 -29h-186q-10 0 -16 6t-6 15v406q0 9 6.5 15t15.5 6h159q65 0 107 -29t42 -86q0 -69 -62 -99q49 -9 75 -39.5t26 -73.5zM366 330q0 41 -32 63t-79 22h-133v-172h148q42 0 69 22.5t27 64.5zM405 124q0 37 -28.5 62t-79.5 25h-175v-178h158 q57 0 91 22t34 69z" />
<glyph unicode="&#x433;" horiz-adv-x="415" d="M389 410h-266v-399q0 -9 -6.5 -15t-15.5 -6t-15.5 6t-6.5 15v416q0 9 6.5 15t15.5 6h288q8 0 13.5 -5.5t5.5 -13.5t-5.5 -13.5t-13.5 -5.5z" />
<glyph unicode="&#x434;" horiz-adv-x="601" d="M456 410h-239q-4 -255 -73 -372h312v372zM174 427q0 9 6.5 15t14.5 6h283q9 0 15 -6t6 -15v-389h55q9 0 15 -6t6 -15v-159q0 -8 -6 -14.5t-15 -6.5q-10 0 -16 6.5t-6 14.5v142h-462v-142q0 -9 -6 -15t-15 -6t-15.5 6.5t-6.5 14.5v159q0 9 6.5 15t15.5 6h49q74 118 76 389 z" />
<glyph unicode="&#x435;" horiz-adv-x="524" d="M441 76q7 0 12 -6t5 -13q0 -13 -27 -29q-67 -38 -150 -38q-112 0 -178 77q-55 65 -55 163q0 96 58 160q59 67 163 67q95 0 154 -64q54 -59 54 -150q0 -28 -26 -28h-357q3 -75 42 -121q52 -66 147 -66q71 0 124 30q6 3 12 7l9 6t6.5 3.5t6.5 1.5zM94 249h340 q-1 75 -43 118q-45 52 -122 52q-87 0 -134 -58q-38 -44 -41 -112z" />
<glyph unicode="&#x436;" horiz-adv-x="701" d="M372 436v-192h75l187 203q8 10 19 10q20 0 20 -21q0 -8 -8 -17l-180 -192l188 -199q7 -9 7 -18q0 -8 -6 -14t-14 -6q-11 0 -23 13l-189 203h-76v-195q0 -9 -6.5 -15t-14.5 -6q-9 0 -15.5 6t-6.5 15v195h-76l-189 -203q-12 -13 -23 -13q-8 0 -14 6t-6 14q0 9 7 18l188 199 l-180 192q-8 9 -8 17q0 21 20 21q11 0 19 -10l187 -203h75v192q0 9 6.5 15t15.5 6t15 -6t6 -15z" />
<glyph unicode="&#x437;" horiz-adv-x="392" d="M345 119q0 -58 -46.5 -93.5t-121.5 -35.5q-66 0 -106 15q-32 10 -32 26q0 19 20 19q4 0 33 -11q41 -15 83 -15q57 0 92.5 27.5t35.5 70.5q0 64 -75 86q-22 6 -92 6q-21 0 -21 18t19 18q74 0 97 8q55 21 55 75q0 37 -30 63t-77 26q-42 0 -82 -19q-24 -13 -30 -13 q-8 0 -13.5 5t-5.5 13q0 13 30 28q42 21 102 21q66 0 106.5 -34.5t40.5 -86.5q0 -77 -80 -102q98 -26 98 -115z" />
<glyph unicode="&#x438;" horiz-adv-x="576" d="M453 11v351l-330 -324v-27q0 -9 -6.5 -15t-15.5 -6t-15.5 6t-6.5 15v425q0 9 6.5 15t15.5 6t15.5 -6t6.5 -15v-351l330 324v27q0 9 6.5 15t15.5 6t15.5 -6t6.5 -15v-425q0 -9 -6.5 -15t-15.5 -6t-15.5 6t-6.5 15z" />
<glyph unicode="&#x439;" horiz-adv-x="576" d="M453 11v351l-330 -324v-27q0 -9 -6.5 -15t-15.5 -6t-15.5 6t-6.5 15v425q0 9 6.5 15t15.5 6t15.5 -6t6.5 -15v-351l330 324v27q0 9 6.5 15t15.5 6t15.5 -6t6.5 -15v-425q0 -9 -6.5 -15t-15.5 -6t-15.5 6t-6.5 15zM287 628q49 0 82 44q5 6 10.5 15.5t9 14.5t8 9t8.5 4 q18 0 18 -16q0 -15 -24 -45q-46 -60 -112 -60q-68 0 -112 60q-24 33 -24 45q0 16 18 16q4 0 8.5 -4t8 -9t9 -14.5t10.5 -15.5q32 -44 82 -44z" />
<glyph unicode="&#x43a;" horiz-adv-x="452" d="M123 436v-192h75l186 203q10 10 20 10q9 0 14.5 -6t5.5 -15q0 -8 -8 -17l-180 -192l187 -199q8 -8 8 -18q0 -8 -6 -14t-15 -6q-10 0 -23 13l-188 203h-76v-195q0 -9 -6.5 -15t-15.5 -6t-15.5 6t-6.5 15v425q0 9 6.5 15t15.5 6t15.5 -6t6.5 -15z" />
<glyph unicode="&#x43b;" horiz-adv-x="517" d="M394 410h-242q-6 -241 -55 -348q-20 -44 -32 -58t-25 -14q-9 0 -15.5 6.5t-6.5 15.5q0 7 6 16.5t17.5 27.5t20.5 39q44 107 46 332q0 9 6.5 15t15.5 6h286q9 0 15 -6t6 -15v-416q0 -9 -6 -15t-15 -6t-15.5 6t-6.5 15v399z" />
<glyph unicode="&#x43c;" horiz-adv-x="628" d="M79 11v422q0 10 7.5 17t18.5 7q14 0 22 -13l187 -307l187 307q8 13 22 13q11 0 18.5 -7t7.5 -17v-422q0 -9 -6 -15t-16 -6q-9 0 -15 6t-6 15v364q-2 -4 -84 -138.5t-86 -139.5q-8 -14 -21 -14t-23 14l-170 278v-364q0 -9 -6 -15t-15 -6q-10 0 -16 6t-6 15z" />
<glyph unicode="&#x43d;" horiz-adv-x="548" d="M425 436q0 9 6.5 15t15.5 6t15.5 -6t6.5 -15v-425q0 -9 -6.5 -15t-15.5 -6t-15.5 6t-6.5 15v195h-302v-195q0 -9 -6.5 -15t-15.5 -6t-15.5 6t-6.5 15v425q0 9 6.5 15t15.5 6t15.5 -6t6.5 -15v-192h302v192z" />
<glyph unicode="&#x43e;" horiz-adv-x="577" d="M96 224q0 -81 50 -137q56 -61 142 -61q87 0 143 61q49 55 49 137q0 81 -49 136q-56 61 -143 61q-86 0 -142 -61q-50 -56 -50 -136zM53 224q0 97 64 163q67 70 171 70q105 0 172 -70q64 -66 64 -163q0 -98 -64 -164q-68 -70 -172 -70q-103 0 -171 70q-64 66 -64 164z" />
<glyph unicode="&#x43f;" horiz-adv-x="534" d="M455 427v-416q0 -9 -6.5 -15t-15.5 -6t-15.5 6t-6.5 15v399h-288v-399q0 -9 -6.5 -15t-15.5 -6t-15.5 6t-6.5 15v416q0 9 6.5 15t15.5 6h332q9 0 15.5 -6t6.5 -15z" />
<glyph unicode="&#x440;" horiz-adv-x="521" d="M123 414v-361q53 -27 120 -27q79 0 131 55q50 50 50 144q0 91 -56 142q-59 54 -156 54q-51 0 -89 -7zM105 449q48 8 103 8q117 0 188 -62q72 -64 72 -170q0 -104 -58 -167q-65 -68 -164 -68q-71 0 -123 26v-226q0 -9 -6.5 -15t-15.5 -6t-15.5 6t-6.5 15v629q0 25 26 30z " />
<glyph unicode="&#x441;" horiz-adv-x="471" d="M429 405q0 -7 -5.5 -12.5t-12.5 -5.5q-4 0 -31 13q-44 20 -90 20q-90 0 -149 -68q-44 -54 -44 -128q0 -88 53 -143t141 -55q56 0 92 17q7 3 13.5 6.5t9.5 5t7 1.5q7 0 12.5 -5.5t5.5 -12.5q0 -13 -29 -26q-44 -22 -112 -22q-110 0 -174 66q-63 65 -63 168q0 88 52 150 q70 82 185 82q62 0 114 -25q25 -13 25 -26z" />
<glyph unicode="&#x442;" horiz-adv-x="443" d="M416 410h-173v-399q0 -9 -6.5 -15t-15.5 -6t-15 6t-6 15v399h-174q-8 0 -13.5 5.5t-5.5 13.5t5.5 13.5t13.5 5.5h390q8 0 13.5 -5.5t5.5 -13.5t-5.5 -13.5t-13.5 -5.5z" />
<glyph unicode="&#x443;" horiz-adv-x="436" d="M409 457q10 0 17 -6t7 -16q0 -7 -7 -23l-174 -435q-41 -101 -90.5 -154t-120.5 -53q-10 0 -16.5 6.5t-6.5 15.5t6.5 15.5t16.5 6.5q56 0 92.5 40t70.5 122l-193 440q-6 15 -6 18q0 10 7.5 16.5t16.5 6.5q17 0 23 -15l174 -411l161 408q7 18 22 18z" />
<glyph unicode="&#x444;" horiz-adv-x="715" d="M662 224q0 -105 -47 -167q-51 -67 -136 -67q-58 0 -100 26v-158q0 -8 -6 -14.5t-15 -6.5q-10 0 -16 6.5t-6 14.5v158q-42 -26 -100 -26q-84 0 -135 67q-48 63 -48 167q0 105 48 166q51 67 135 67q58 0 100 -26v159q0 9 6 15t16 6q9 0 15 -6t6 -15v-159q42 26 100 26 q85 0 136 -67q47 -62 47 -166zM475 421q-53 0 -96 -27v-341q43 -27 96 -27q64 0 105 53q39 51 39 145t-39 144q-40 53 -105 53zM241 26q54 0 95 27v341q-41 27 -95 27q-65 0 -105 -53q-39 -50 -39 -144t39 -145q41 -53 105 -53z" />
<glyph unicode="&#x445;" horiz-adv-x="434" d="M429 12q0 -9 -6.5 -15.5t-16.5 -6.5q-14 0 -25 15l-164 193l-165 -195q-13 -13 -24 -13q-10 0 -16.5 6.5t-6.5 15.5q0 7 15 24l169 193l-163 185q-12 14 -12 22q0 9 6.5 15t16.5 6q14 0 23 -13l157 -184l157 183q10 14 23 14q10 0 16 -6t6 -15q0 -7 -11 -20l-164 -185 l174 -197q11 -14 11 -22z" />
<glyph unicode="&#x446;" horiz-adv-x="556" d="M487 0h-388q-8 0 -14 6t-6 14v416q0 9 6.5 15t15.5 6t15.5 -6t6.5 -15v-398h288v398q0 9 6.5 15t15.5 6t15.5 -6t6.5 -15v-398h54q9 0 15 -6t6 -15v-159q0 -8 -6 -14.5t-15 -6.5t-15.5 6.5t-6.5 14.5v142z" />
<glyph unicode="&#x447;" horiz-adv-x="497" d="M72 304v132q0 9 6.5 15t15.5 6t15.5 -6t6.5 -15v-132q0 -113 116 -113q69 0 142 29v216q0 9 6.5 15t15.5 6t15.5 -6t6.5 -15v-425q0 -9 -6.5 -15t-15.5 -6t-15.5 6t-6.5 15v173q-67 -29 -146 -29t-117.5 36t-38.5 113z" />
<glyph unicode="&#x448;" horiz-adv-x="830" d="M750 436v-416q0 -8 -5.5 -14t-13.5 -6h-632q-8 0 -14 6t-6 14v416q0 9 6.5 15t15.5 6t15.5 -6t6.5 -15v-398h270v398q0 9 6.5 15t15.5 6t15.5 -6t6.5 -15v-398h270v398q0 9 6.5 15t15.5 6t15 -6t6 -15z" />
<glyph unicode="&#x449;" horiz-adv-x="852" d="M783 0h-684q-8 0 -14 6t-6 14v416q0 9 6.5 15t15.5 6t15.5 -6t6.5 -15v-398h270v398q0 9 6.5 15t15.5 6t15.5 -6t6.5 -15v-398h270v398q0 9 6.5 15t15.5 6t15 -6t6 -15v-398h55q9 0 15 -6t6 -15v-159q0 -8 -6 -14.5t-15 -6.5t-15.5 6.5t-6.5 14.5v142z" />
<glyph unicode="&#x44a;" horiz-adv-x="616" d="M520 122q0 88 -126 88h-156v-177h159q123 0 123 89zM194 22v388h-165q-8 0 -13.5 5.5t-5.5 13.5t5.5 13.5t13.5 5.5h187q9 0 15.5 -6t6.5 -15v-184h164q161 0 161 -120q0 -123 -159 -123h-188q-22 0 -22 22z" />
<glyph unicode="&#x44b;" horiz-adv-x="647" d="M79 22v414q0 9 6.5 15t15.5 6t15.5 -6t6.5 -15v-193h164q161 0 161 -120q0 -64 -43 -93.5t-115 -29.5h-189q-22 0 -22 22zM405 122q0 88 -126 88h-156v-177h160q122 0 122 89zM524 436q0 9 6.5 15t15.5 6t15.5 -6t6.5 -15v-425q0 -9 -6.5 -15t-15.5 -6t-15.5 6t-6.5 15 v425z" />
<glyph unicode="&#x44c;" horiz-adv-x="501" d="M79 22v414q0 9 6.5 15t15.5 6t15.5 -6t6.5 -15v-193h164q161 0 161 -120q0 -64 -43 -93.5t-115 -29.5h-189q-22 0 -22 22zM405 122q0 88 -126 88h-156v-177h160q122 0 122 89z" />
<glyph unicode="&#x44d;" horiz-adv-x="471" d="M42 405q0 13 25 26q52 25 114 25q115 0 185 -82q52 -62 52 -150q0 -105 -63 -168q-64 -66 -174 -66q-68 0 -112 22q-29 14 -29 26q0 7 5.5 12.5t12.5 5.5q4 0 7 -1.5t9.5 -5t14.5 -6.5q34 -17 91 -17q89 0 141 55q48 48 51 128h-276q-15 0 -15 15q0 6 4.5 10.5t10.5 4.5 h275q-1 64 -41 113q-57 68 -149 68q-50 0 -90 -20q-6 -3 -11.5 -5.5t-8 -4t-5.5 -2.5t-6 -1q-7 0 -12.5 5.5t-5.5 12.5z" />
<glyph unicode="&#x44e;" horiz-adv-x="801" d="M123 436v-192h156q6 84 62 143q67 70 171 70q105 0 172 -70q63 -65 63 -163q0 -99 -63 -164q-68 -70 -172 -70q-103 0 -171 70q-58 61 -62 146h-156v-195q0 -9 -6.5 -15t-15.5 -6t-15.5 6t-6.5 15v425q0 9 6.5 15t15.5 6t15.5 -6t6.5 -15zM320 224q0 -82 50 -137 q55 -61 142 -61t142 61q50 55 50 137q0 81 -50 136q-55 61 -142 61t-142 -61q-50 -55 -50 -136z" />
<glyph unicode="&#x44f;" horiz-adv-x="475" d="M353 10v168h-131l-130 -178q-8 -10 -18 -10q-20 0 -20 16q0 9 6 16l115 158q-55 8 -89 40.5t-34 93.5q0 134 161 134h161q9 0 15 -6t6 -15v-417q0 -8 -6 -14t-15 -6t-15 6t-6 14zM353 412h-138q-120 0 -120 -98q0 -100 127 -100h131v198z" />
<glyph unicode="&#x451;" horiz-adv-x="524" d="M441 76q7 0 12 -6t5 -13q0 -13 -27 -29q-67 -38 -150 -38q-112 0 -178 77q-55 65 -55 163q0 96 58 160q59 67 163 67q95 0 154 -64q54 -59 54 -150q0 -28 -26 -28h-357q3 -75 42 -121q52 -66 147 -66q71 0 124 30q6 3 12 7l9 6t6.5 3.5t6.5 1.5zM94 249h340 q-1 75 -43 118q-45 52 -122 52q-87 0 -134 -58q-38 -44 -41 -112zM177 643q-12 0 -20 8t-8 20q0 11 8 19t20 8q11 0 19.5 -8t8.5 -19q0 -12 -8.5 -20t-19.5 -8zM343 643q-12 0 -20 8t-8 20q0 11 8 19t20 8q11 0 19 -8t8 -19q0 -12 -8 -20t-19 -8z" />
<glyph unicode="&#x452;" horiz-adv-x="542" d="M473 263v-206q0 -86 -26 -141q-14 -28 -38.5 -50t-54.5 -22q-25 0 -25 19q0 8 10 12.5t28 16t33 32.5q30 43 30 136v192q0 93 -43 132q-36 33 -104 33q-91 0 -135 -79q-28 -53 -28 -113v-214q0 -8 -6.5 -14.5t-15.5 -6.5t-15.5 6.5t-6.5 14.5v553h-49q-17 0 -17 18 q0 7 5 12t12 5h49v69q0 9 6.5 15t15.5 6t15.5 -6t6.5 -15v-69h162q7 0 12 -5t5 -12t-5 -12.5t-12 -5.5h-162v-212q22 51 66 78t104 27q82 0 129 -39q54 -48 54 -155z" />
<glyph unicode="&#x453;" horiz-adv-x="415" d="M389 410h-266v-399q0 -9 -6.5 -15t-15.5 -6t-15.5 6t-6.5 15v416q0 9 6.5 15t15.5 6h288q8 0 13.5 -5.5t5.5 -13.5t-5.5 -13.5t-13.5 -5.5zM170 585q0 3 4 13l88 155q7 15 19 15q8 0 13.5 -5t5.5 -13q0 -6 -6 -16l-91 -150q-7 -13 -17 -13q-16 0 -16 14z" />
<glyph unicode="&#x454;" horiz-adv-x="471" d="M429 405q0 -7 -5.5 -12.5t-12.5 -5.5q-4 0 -31 13q-44 20 -90 20q-90 0 -149 -68q-40 -49 -41 -113h276q6 0 10.5 -4.5t4.5 -10.5q0 -15 -15 -15h-277q3 -78 51 -128q53 -55 141 -55q56 0 92 17q7 3 13.5 6.5t9.5 5t7 1.5q7 0 12.5 -5.5t5.5 -12.5q0 -13 -29 -26 q-44 -22 -112 -22q-110 0 -174 66q-63 65 -63 168q0 88 52 150q70 82 185 82q62 0 114 -25q25 -13 25 -26z" />
<glyph unicode="&#x455;" horiz-adv-x="397" d="M345 412q0 -8 -5.5 -13.5t-12.5 -5.5q-8 0 -37 12q-37 15 -80 15q-116 0 -116 -77q0 -47 59 -73q17 -7 58.5 -22t56.5 -22q44 -20 67 -44.5t23 -65.5q0 -60 -42 -93t-114 -33q-77 0 -130 30q-32 16 -32 34q0 7 5.5 13t12.5 6q4 0 8 -1.5t7 -3.5t9 -6.5l10 -7.5 q43 -28 109 -28q53 0 82 22.5t29 64.5q0 32 -18 49.5t-56 34.5q-13 6 -54.5 20.5t-60.5 23.5q-74 33 -74 102q0 54 41 84t117 30q60 0 101 -16q37 -14 37 -29z" />
<glyph unicode="&#x456;" horiz-adv-x="196" d="M76 436q0 9 6.5 15t15.5 6t15.5 -6t6.5 -15v-425q0 -9 -6.5 -15t-15.5 -6t-15.5 6t-6.5 15v425zM97 643q-12 0 -20 8t-8 20q0 11 8 19t20 8q11 0 19 -8t8 -19q0 -12 -8 -20t-19 -8z" />
<glyph unicode="&#x457;" horiz-adv-x="196" d="M76 436q0 9 6.5 15t15.5 6t15.5 -6t6.5 -15v-425q0 -9 -6.5 -15t-15.5 -6t-15.5 6t-6.5 15v425zM17 643q-12 0 -20 8t-8 20q0 11 8 19t20 8q11 0 19.5 -8t8.5 -19q0 -12 -8.5 -20t-19.5 -8zM183 643q-12 0 -20 8t-8 20q0 11 8 19t20 8q11 0 19 -8t8 -19q0 -12 -8 -20 t-19 -8z" />
<glyph unicode="&#x458;" horiz-adv-x="196" d="M76 -29v465q0 9 6.5 15t15.5 6t15.5 -6t6.5 -15v-487q0 -94 -34 -140q-11 -16 -29 -27t-34 -11q-22 0 -22 20q0 8 7 12t20 12.5t24 23.5q24 33 24 132zM97 643q-12 0 -20 8t-8 20q0 11 8 19t20 8q11 0 19 -8t8 -19q0 -12 -8 -20t-19 -8z" />
<glyph unicode="&#x459;" horiz-adv-x="821" d="M725 122q0 88 -126 88h-156v-177h160q122 0 122 89zM108 427q0 9 6.5 15t15.5 6h292q9 0 15 -6t6 -15v-184h165q160 0 160 -120q0 -123 -158 -123h-188q-22 0 -22 22v388h-248q-6 -241 -55 -348q-20 -44 -32 -58t-25 -14q-9 0 -15.5 6.5t-6.5 15.5q0 7 6 16.5t17.5 27.5 t20.5 39q44 107 46 332z" />
<glyph unicode="&#x45a;" horiz-adv-x="847" d="M425 22v188h-302v-199q0 -9 -6.5 -15t-15.5 -6t-15.5 6t-6.5 15v425q0 9 6.5 15t15.5 6t15.5 -6t6.5 -15v-193h302v193q0 9 6.5 15t15.5 6t15.5 -6t6.5 -15v-193h164q160 0 160 -120q0 -123 -158 -123h-188q-22 0 -22 22zM750 122q0 88 -126 88h-155v-177h159 q122 0 122 89z" />
<glyph unicode="&#x45b;" horiz-adv-x="543" d="M474 263v-252q0 -8 -6.5 -14.5t-15.5 -6.5t-15 6.5t-6 14.5v241q0 93 -43 132q-36 33 -104 33q-91 0 -135 -79q-28 -53 -28 -113v-214q0 -8 -6.5 -14.5t-15.5 -6.5t-15.5 6.5t-6.5 14.5v553h-49q-17 0 -17 18q0 7 5 12t12 5h49v69q0 9 6.5 15t15.5 6t15.5 -6t6.5 -15v-69 h162q7 0 12 -5t5 -12t-5 -12.5t-12 -5.5h-162v-212q22 51 66 78t104 27q83 0 129 -39q54 -48 54 -155z" />
<glyph unicode="&#x45c;" horiz-adv-x="460" d="M123 436v-192h75l186 203q10 10 20 10q9 0 14.5 -6t5.5 -15q0 -8 -8 -17l-180 -192l187 -199q8 -8 8 -18q0 -8 -6 -14t-15 -6q-10 0 -23 13l-188 203h-76v-195q0 -9 -6.5 -15t-15.5 -6t-15.5 6t-6.5 15v425q0 9 6.5 15t15.5 6t15.5 -6t6.5 -15zM172 585q0 3 4 13l88 155 q7 15 19 15q8 0 13.5 -5t5.5 -13q0 -6 -6 -16l-91 -150q-7 -13 -17 -13q-16 0 -16 14z" />
<glyph unicode="&#x45e;" horiz-adv-x="436" d="M409 457q10 0 17 -6t7 -16q0 -7 -7 -23l-174 -435q-41 -101 -90.5 -154t-120.5 -53q-10 0 -16.5 6.5t-6.5 15.5t6.5 15.5t16.5 6.5q56 0 92.5 40t70.5 122l-193 440q-6 15 -6 18q0 10 7.5 16.5t16.5 6.5q17 0 23 -15l174 -411l161 408q7 18 22 18zM217 628q49 0 82 44 q5 6 10.5 15.5t9 14.5t8 9t8.5 4q18 0 18 -16q0 -15 -24 -45q-46 -60 -112 -60q-68 0 -112 60q-24 33 -24 45q0 16 18 16q4 0 8.5 -4t8 -9t9 -14.5t10.5 -15.5q32 -44 82 -44z" />
<glyph unicode="&#x45f;" horiz-adv-x="534" d="M122 38h289v398q0 8 6.5 14.5t15.5 6.5q8 0 14.5 -6.5t6.5 -14.5v-416q0 -8 -6 -14t-14 -6h-146v-141q0 -9 -6 -15t-15 -6q-10 0 -16 6t-6 15v141h-146q-8 0 -14 6t-6 14v416q0 8 6.5 14.5t15.5 6.5t15 -6.5t6 -14.5v-398z" />
<glyph unicode="&#x490;" horiz-adv-x="529" d="M78 13v645q0 9 7 16t17 7h365v163q0 8 6 14.5t15 6.5q10 0 16 -6.5t6 -14.5v-185q0 -8 -5.5 -14t-14.5 -6h-364v-626q0 -9 -7 -16t-17 -7t-17 7t-7 16z" />
<glyph unicode="&#x491;" horiz-adv-x="415" d="M366 448v164q0 8 6 14t15 6q8 0 14.5 -6t6.5 -14v-182q0 -8 -6.5 -14t-14.5 -6h-264v-399q0 -9 -6.5 -15t-15.5 -6t-15.5 6t-6.5 15v416q0 9 6.5 15t15.5 6h265z" />
<glyph unicode="&#x2000;" horiz-adv-x="501" />
<glyph unicode="&#x2001;" horiz-adv-x="1003" />
<glyph unicode="&#x2002;" horiz-adv-x="501" />
<glyph unicode="&#x2003;" horiz-adv-x="1003" />
<glyph unicode="&#x2004;" horiz-adv-x="334" />
<glyph unicode="&#x2005;" horiz-adv-x="250" />
<glyph unicode="&#x2006;" horiz-adv-x="167" />
<glyph unicode="&#x2007;" horiz-adv-x="167" />
<glyph unicode="&#x2008;" horiz-adv-x="125" />
<glyph unicode="&#x2009;" horiz-adv-x="200" />
<glyph unicode="&#x200a;" horiz-adv-x="55" />
<glyph unicode="&#x2010;" horiz-adv-x="489" d="M384 274h-279q-8 0 -14 6t-6 14q0 9 6 15t14 6h279q8 0 14 -6t6 -15q0 -8 -6 -14t-14 -6z" />
<glyph unicode="&#x2011;" horiz-adv-x="489" d="M384 274h-279q-8 0 -14 6t-6 14q0 9 6 15t14 6h279q8 0 14 -6t6 -15q0 -8 -6 -14t-14 -6z" />
<glyph unicode="&#x2012;" horiz-adv-x="489" d="M384 274h-279q-8 0 -14 6t-6 14q0 9 6 15t14 6h279q8 0 14 -6t6 -15q0 -8 -6 -14t-14 -6z" />
<glyph unicode="&#x2013;" horiz-adv-x="690" d="M105 273h480q8 0 14 -6.5t6 -14.5q0 -9 -6 -15t-14 -6h-480q-8 0 -14 6t-6 15q0 8 6 14.5t14 6.5z" />
<glyph unicode="&#x2014;" horiz-adv-x="1210" d="M105 273h1000q8 0 14 -6.5t6 -14.5q0 -9 -6 -15t-14 -6h-1000q-8 0 -14 6t-6 15q0 8 6 14.5t14 6.5z" />
<glyph unicode="&#x2018;" horiz-adv-x="174" d="M119 681q0 -5 -11 -16.5t-11 -23.5q0 -8 11.5 -18t11.5 -24q0 -12 -8 -20t-22 -8q-36 0 -36 45q0 29 19.5 51.5t35.5 22.5q10 0 10 -9z" />
<glyph unicode="&#x2019;" horiz-adv-x="174" d="M56 580q0 6 10.5 17.5t10.5 22.5q0 9 -11.5 19t-11.5 23q0 12 8 20.5t22 8.5q36 0 36 -45q0 -29 -19.5 -52t-35.5 -23q-9 0 -9 9z" />
<glyph unicode="&#x201a;" horiz-adv-x="157" d="M52 -63q0 6 10.5 17.5t10.5 22.5q0 8 -11.5 18.5t-11.5 23.5q0 12 8 20.5t22 8.5q36 0 36 -45q0 -30 -19.5 -52.5t-35.5 -22.5q-9 0 -9 9z" />
<glyph unicode="&#x201c;" horiz-adv-x="293" d="M119 681q0 -5 -11 -16.5t-11 -23.5q0 -8 11.5 -18t11.5 -24q0 -12 -8 -20t-22 -8q-36 0 -36 45q0 29 19.5 51.5t35.5 22.5q10 0 10 -9zM237 681q0 -5 -10.5 -16.5t-10.5 -23.5q0 -8 11.5 -18t11.5 -24q0 -12 -8.5 -20t-22.5 -8q-36 0 -36 45q0 30 19.5 52t36.5 22 q9 0 9 -9z" />
<glyph unicode="&#x201d;" horiz-adv-x="293" d="M56 580q0 6 10.5 17.5t10.5 22.5q0 9 -11.5 19t-11.5 23q0 12 8 20.5t22 8.5q36 0 36 -45q0 -29 -19.5 -52t-35.5 -23q-9 0 -9 9zM174 580q0 6 10.5 17.5t10.5 22.5q0 9 -11.5 19t-11.5 23q0 12 8.5 20.5t22.5 8.5q36 0 36 -45q0 -30 -19.5 -52.5t-36.5 -22.5q-9 0 -9 9z " />
<glyph unicode="&#x201e;" horiz-adv-x="276" d="M52 -63q0 6 10.5 17.5t10.5 22.5q0 8 -11.5 18.5t-11.5 23.5q0 12 8 20.5t22 8.5q36 0 36 -45q0 -30 -19.5 -52.5t-35.5 -22.5q-9 0 -9 9zM170 -63q0 6 10.5 17.5t10.5 22.5q0 8 -11.5 18.5t-11.5 23.5q0 12 8.5 20.5t22.5 8.5q36 0 36 -45q0 -30 -19.5 -52.5 t-36.5 -22.5q-9 0 -9 9z" />
<glyph unicode="&#x2020;" horiz-adv-x="491" d="M245 -227q-10 0 -17 7t-7 18q0 115 9 579q-173 -8 -181 -8q-10 0 -16.5 7t-6.5 17q0 9 6.5 15.5t16.5 6.5q30 0 181 -8q-9 245 -9 260q0 10 7 17t17 7t17 -7t7 -17q0 -15 -9 -260q151 8 181 8q10 0 16.5 -6.5t6.5 -15.5q0 -10 -6.5 -17t-16.5 -7q-8 0 -181 8 q9 -464 9 -579q0 -11 -7 -18t-17 -7z" />
<glyph unicode="&#x2021;" horiz-adv-x="490" d="M223 232l7 145q-173 -8 -181 -8q-10 0 -16.5 7t-6.5 17q0 9 6.5 15.5t16.5 6.5q30 0 181 -8q-9 245 -9 260q0 10 7 17t17 7t17 -7t7 -17q0 -15 -9 -260q151 8 181 8q10 0 16.5 -6.5t6.5 -15.5q0 -10 -6.5 -17t-16.5 -7q-8 0 -181 8l7 -145l-7 -146q173 8 181 8 q10 0 16.5 -6.5t6.5 -16.5t-6.5 -16.5t-16.5 -6.5q-8 0 -181 8q9 -244 9 -259q0 -10 -7 -17t-17 -7t-17 7t-7 17q0 15 9 259q-173 -8 -181 -8q-10 0 -16.5 6.5t-6.5 16.5t6.5 16.5t16.5 6.5q8 0 181 -8z" />
<glyph unicode="&#x2022;" horiz-adv-x="510" d="M53 341q0 83 59.5 142.5t142.5 59.5t142.5 -59.5t59.5 -142.5t-59.5 -142.5t-142.5 -59.5t-142.5 59.5t-59.5 142.5z" />
<glyph unicode="&#x2026;" horiz-adv-x="564" d="M523 21q0 -13 -8 -21.5t-21 -8.5t-21 8.5t-8 21.5q0 12 8 20t21 8t21 -8t8 -20zM316 21q0 -13 -8.5 -21.5t-20.5 -8.5q-13 0 -21.5 8.5t-8.5 21.5q0 12 8.5 20t21.5 8q12 0 20.5 -8t8.5 -20zM108 21q0 -13 -8 -21.5t-20 -8.5q-13 0 -21.5 8.5t-8.5 21.5q0 12 8.5 20 t21.5 8q12 0 20 -8t8 -20z" />
<glyph unicode="&#x202f;" horiz-adv-x="200" />
<glyph unicode="&#x2030;" horiz-adv-x="986" d="M303 536q0 52 -36.5 89t-88.5 37t-88.5 -37t-36.5 -89t36.5 -89t88.5 -37t88.5 37t36.5 89zM331 536q0 -63 -45.5 -108t-107.5 -45q-63 0 -108 44.5t-45 108.5q0 63 45 108t108 45q62 0 107.5 -45t45.5 -108zM541 663l-425 -663q-8 -10 -15 -10q-15 0 -15 16q0 6 4 11 l425 662q7 10 15 10q15 0 15 -15q0 -6 -4 -11zM327 143q0 -53 37 -89.5t89 -36.5t88.5 37t36.5 89t-36.5 88.5t-88.5 36.5t-89 -36.5t-37 -88.5zM300 143q0 63 45 108t108 45q62 0 107.5 -45t45.5 -108t-45.5 -108t-107.5 -45q-63 0 -108 44.5t-45 108.5zM682 143 q0 -53 37 -89.5t89 -36.5t88.5 37t36.5 89t-36.5 88.5t-88.5 36.5t-89 -36.5t-37 -88.5zM655 143q0 63 45 108t108 45q62 0 107.5 -45t45.5 -108t-45.5 -108t-107.5 -45q-63 0 -108 44.5t-45 108.5z" />
<glyph unicode="&#x2039;" horiz-adv-x="324" d="M266 -9q-9 0 -15 7l-206 212q-7 9 -7 15t7 15l206 212q6 7 15 7t14.5 -5.5t5.5 -13.5q0 -9 -6 -15l-193 -200l193 -200q6 -6 6 -15q0 -19 -20 -19z" />
<glyph unicode="&#x203a;" horiz-adv-x="324" d="M59 -9q-21 0 -21 19q0 8 7 15l193 200l-193 200q-7 7 -7 15t6 13.5t15 5.5t15 -7l206 -212q6 -8 6 -15t-6 -15l-206 -212q-6 -7 -15 -7z" />
<glyph unicode="&#x2044;" horiz-adv-x="354" d="M-10 27l333 647q7 16 22 16q9 0 15.5 -6t6.5 -15q0 -4 -5 -16l-333 -648q-7 -15 -23 -15q-8 0 -14.5 6t-6.5 14q0 9 5 17z" />
<glyph unicode="&#x205f;" horiz-adv-x="250" />
<glyph unicode="&#x20ac;" d="M5 288h49q-3 25 -3 53q0 25 3 51h-49q-5 0 -9.5 4t-4.5 10t4.5 10.5t9.5 4.5h55q28 116 123 192.5t212 76.5q94 0 170 -38q42 -19 42 -39q0 -10 -6.5 -16.5t-15.5 -6.5q-6 0 -15 6t-25 15.5t-35 16.5q-53 19 -115 19q-98 0 -178.5 -64t-106.5 -162h394q14 0 14 -15 q0 -14 -14 -14h-400q-4 -23 -4 -51q0 -30 4 -53h342q14 0 14 -14t-14 -14h-337q25 -104 105.5 -165.5t181.5 -61.5q64 0 114 19q19 7 36.5 17t27 15.5t15.5 5.5q20 0 20 -22q0 -20 -42 -40q-76 -38 -172 -38q-122 0 -216 73.5t-120 196.5h-54q-5 0 -9.5 4t-4.5 10t4.5 10 t9.5 4z" />
<glyph unicode="&#x2122;" horiz-adv-x="753" d="M297 686h-114v-321q0 -6 -4.5 -10.5t-10.5 -4.5q-15 0 -15 15v321h-114q-14 0 -14 13q0 6 4.5 10t9.5 4h258q5 0 9.5 -4t4.5 -10q0 -13 -14 -13zM526 430q-8 0 -15 10l-131 216v-291q0 -6 -4.5 -10.5t-10.5 -4.5q-15 0 -15 15v336q0 15 16 15q11 0 18 -12l142 -233 l143 233q7 12 18 12q16 0 16 -15v-336q0 -15 -15 -15q-6 0 -10.5 4.5t-4.5 10.5v291l-132 -216q-7 -10 -15 -10z" />
<glyph unicode="&#x2126;" horiz-adv-x="756" d="M378 690q130 0 206.5 -72t76.5 -210q0 -133 -96 -246q-14 -16 -34.5 -39.5t-30 -34.5t-19 -25t-13.5 -25h189q19 0 19 -19q0 -8 -5.5 -13.5t-13.5 -5.5h-212q-20 0 -20 21q0 11 4 21.5t13.5 23.5t18.5 24t27 31.5t31 36.5q94 113 94 244q0 121 -62 183.5t-173 62.5 t-173 -62.5t-62 -183.5q0 -129 94 -244q13 -15 31.5 -36.5t27.5 -31.5t19 -23.5t13.5 -24t3.5 -21.5q0 -21 -22 -21h-210q-8 0 -14 5.5t-6 13.5t6 13.5t14 5.5h188q-4 11 -13 25t-18.5 25t-30.5 34t-35 40q-97 116 -97 246q0 137 76.5 209.5t207.5 72.5z" />
<glyph unicode="&#x2202;" horiz-adv-x="507" d="M458 222q0 -112 -59.5 -172t-148.5 -60q-80 0 -134 48q-68 60 -68 168q0 83 54 137q61 61 145 61q75 0 144 -45q-27 81 -86.5 160.5t-128.5 132.5q-14 12 -14 18q0 9 6 14.5t15 5.5q12 0 46 -30q100 -86 164.5 -197t64.5 -241zM417 222q0 46 -11 96q-73 52 -153 52 q-69 0 -120 -51q-43 -43 -43 -113q0 -91 53 -139q42 -40 107 -40q71 0 119 50t48 145z" />
<glyph unicode="&#x2206;" horiz-adv-x="598" d="M534 0h-470q-27 0 -27 24q0 8 4 17l228 624q8 24 30 24t30 -24l228 -624q4 -9 4 -17q0 -24 -27 -24zM299 613l-207 -571h414z" />
<glyph unicode="&#x220f;" horiz-adv-x="680" d="M602 658v-806q0 -9 -7 -16t-17 -7t-17 7t-7 16v786h-428v-786q0 -9 -7 -16t-17 -7t-17 7t-7 16v806q0 9 7 16t17 7h476q10 0 17 -7t7 -16z" />
<glyph unicode="&#x2211;" horiz-adv-x="503" d="M384 321l-279 -279h343q8 0 14 -6.5t6 -14.5q0 -9 -6 -15t-14 -6h-384q-25 0 -25 22q0 11 10 21l297 298l-297 297q-10 10 -10 21q0 22 25 22h384q8 0 14 -6t6 -15q0 -8 -6 -14.5t-14 -6.5h-343l279 -278q10 -10 10 -20t-10 -20z" />
<glyph unicode="&#x221a;" horiz-adv-x="738" d="M73 233h122q16 0 25 -15l109 -182l348 670q7 14 21 14q9 0 15 -6t6 -14q0 -4 -4 -14l-364 -699q-7 -14 -21 -14q-13 0 -21 14l-122 203h-114q-9 0 -15 6.5t-6 14.5q0 9 6 15.5t15 6.5z" />
<glyph unicode="&#x221e;" horiz-adv-x="827" d="M737 269q0 74 -38.5 121t-106.5 47q-111 0 -160 -168q49 -167 160 -167q68 0 106.5 47t38.5 120zM413 225q-58 -160 -180 -160q-86 0 -133.5 58t-47.5 146q0 89 47.5 146.5t133.5 57.5q122 0 180 -159q58 159 180 159q86 0 134 -57.5t48 -146.5q0 -88 -48 -146t-134 -58 q-122 0 -180 160zM89 269q0 -73 38.5 -120t106.5 -47q111 0 160 167q-49 168 -160 168q-68 0 -106.5 -47t-38.5 -121z" />
<glyph unicode="&#x222b;" horiz-adv-x="356" d="M79 -174h-36q-9 0 -15 6t-6 15q0 10 6 16t15 6h32q80 0 80 87v591q0 61 31.5 95.5t90.5 34.5h36q9 0 15 -6t6 -15q0 -10 -6 -16t-15 -6h-32q-80 0 -80 -87v-591q0 -61 -31.5 -95.5t-90.5 -34.5z" />
<glyph unicode="&#x2248;" horiz-adv-x="489" d="M153 471q-31 0 -51.5 -10.5t-31.5 -21t-17 -10.5t-11.5 5t-5.5 12q0 25 33.5 45t80.5 20q40 0 98 -26.5t88 -26.5t50 11t31.5 21.5t18.5 10.5t12 -4.5t5 -10.5q0 -26 -33.5 -47t-79.5 -21q-35 0 -94.5 26.5t-92.5 26.5zM153 243q-31 0 -51.5 -10.5t-31.5 -20.5t-17 -10 t-11.5 4.5t-5.5 11.5q0 25 33.5 45.5t80.5 20.5q40 0 98 -26.5t88 -26.5q24 0 42 6.5t26.5 15t17 15t14.5 6.5q7 0 12 -4.5t5 -11.5q0 -25 -33.5 -46.5t-79.5 -21.5q-35 0 -94.5 26.5t-92.5 26.5z" />
<glyph unicode="&#x2260;" horiz-adv-x="552" d="M359 496h138q8 0 14 -6.5t6 -14.5q0 -9 -6 -15t-14 -6h-156l-91 -202h247q8 0 14 -6.5t6 -14.5q0 -9 -6 -15t-14 -6h-265l-56 -125q-5 -12 -16 -12q-18 0 -18 17q0 4 4 12l48 108h-139q-8 0 -14 6t-6 15q0 8 6 14.5t14 6.5h157l90 202h-247q-8 0 -14 6t-6 15q0 8 6 14.5 t14 6.5h267l58 131q5 12 16 12q7 0 12.5 -5t5.5 -12q0 -5 -4 -13z" />
<glyph unicode="&#x2264;" horiz-adv-x="553" d="M60 42h432q8 0 14 -6.5t6 -14.5q0 -9 -6 -15t-14 -6h-432q-8 0 -14 6t-6 15q0 8 6 14.5t14 6.5zM40 440q0 15 17 24l402 207q8 4 14 4q8 0 14 -5.5t6 -13.5q0 -13 -15 -21l-378 -195l378 -195q15 -8 15 -21q0 -8 -6 -13.5t-14 -5.5q-6 0 -14 4l-402 207q-17 9 -17 24z " />
<glyph unicode="&#x2265;" horiz-adv-x="553" d="M60 42h432q8 0 14 -6.5t6 -14.5q0 -9 -6 -15t-14 -6h-432q-8 0 -14 6t-6 15q0 8 6 14.5t14 6.5zM512 440q0 -15 -17 -24l-402 -207q-8 -4 -14 -4q-8 0 -14 5.5t-6 13.5q0 13 15 21l378 195l-378 195q-15 8 -15 21q0 8 6 13.5t14 5.5q6 0 14 -4l402 -207q17 -9 17 -24z " />
<glyph unicode="&#x25ca;" horiz-adv-x="571" d="M37 340q0 8 6 16l223 323q8 11 20 11q11 0 19 -11l223 -323q6 -8 6 -16q0 -9 -6 -16l-223 -323q-8 -11 -19 -11q-12 0 -20 11l-223 323q-6 7 -6 16zM489 340l-203 295l-204 -295l204 -295z" />
<glyph unicode="&#x25fc;" horiz-adv-x="455" d="M0 455h455v-455h-455v455z" />
<glyph unicode="&#xf639;" horiz-adv-x="604" d="M552 340q0 -172 -64 -261t-186 -89t-186 89t-64 261t64 261t186 89t186 -89t64 -261zM504 340q0 156 -52 232q-51 75 -150 75t-150 -75q-53 -80 -53 -232q0 -153 53 -231q52 -76 150 -76q97 0 150 76q52 76 52 231z" />
<glyph unicode="&#xf63a;" horiz-adv-x="510" d="M100 42h355q9 0 15 -6.5t6 -14.5q0 -9 -6 -15t-15 -6h-385q-21 0 -21 23q0 69 13.5 108t47.5 74q37 39 122.5 87t106.5 63q77 56 77 138q0 61 -38 104q-48 53 -129 53q-56 0 -106 -24q-15 -7 -28.5 -16t-21 -13.5t-13.5 -4.5q-20 0 -20 21q0 12 21 27.5t43 24.5 q63 25 128 25q100 0 162 -67q48 -53 48 -129q0 -98 -90 -167q-26 -19 -108 -65t-118 -82q-26 -26 -36 -55.5t-10 -82.5z" />
<glyph unicode="&#xf63b;" horiz-adv-x="494" d="M454 182q0 -86 -62 -139t-162 -53q-64 0 -116 14q-66 19 -66 43q0 9 6 15.5t16 6.5q6 0 14 -3.5t21 -10t25 -10.5q43 -15 97 -15q83 0 132 42.5t49 112.5q0 105 -103 136q-28 11 -80 11q-23 0 -23 20t21 20q49 0 85 15q78 32 78 119q0 61 -42 101.5t-111 40.5 q-54 0 -96 -20q-13 -6 -25 -13t-18.5 -10.5t-11.5 -3.5q-10 0 -16 6.5t-6 14.5q0 11 9.5 18.5t30.5 18.5q62 31 135 31q88 0 141.5 -51t53.5 -128q0 -58 -30 -98.5t-85 -57.5q67 -17 103 -62t36 -111z" />
<glyph unicode="&#xf63c;" horiz-adv-x="551" d="M373 606l-275 -397h275v397zM419 209h94q8 0 13.5 -6t5.5 -14t-5.5 -14t-13.5 -6h-94v-156q0 -9 -6.5 -16t-16.5 -7t-16.5 7t-6.5 16v156h-316q-8 0 -13.5 6t-5.5 14t5 15l330 473q8 13 22 13q11 0 17.5 -7t6.5 -17v-457z" />
<glyph unicode="&#xf63d;" horiz-adv-x="539" d="M55 75q0 9 6.5 15t14.5 6q5 0 12 -5.5t18.5 -14.5t21.5 -15q49 -31 127 -31q79 0 130.5 51.5t51.5 128.5q0 78 -46.5 128.5t-119.5 50.5q-60 0 -109 -33q-16 -11 -30.5 -24t-21.5 -18.5t-13 -5.5q-9 0 -15 6t-6 14q0 4 2 24l24 310q2 19 21 19h322q8 0 14 -6.5t6 -14.5 t-6 -14.5t-14 -6.5h-300l-21 -268q67 59 150 59q95 0 152.5 -62t57.5 -158q0 -94 -64 -157t-165 -63q-100 0 -160 41q-40 26 -40 44z" />
<glyph unicode="&#xf63e;" horiz-adv-x="561" d="M66 307q0 47 5 92t21.5 100t43.5 95.5t76 68t113 27.5q73 0 121 -19q52 -18 52 -38q0 -9 -6 -15.5t-16 -6.5q-6 0 -28.5 10.5t-41.5 15.5q-38 11 -81 11q-143 0 -191 -175q-18 -66 -20 -171q62 111 187 111q100 0 155 -57t55 -152q0 -94 -58.5 -154t-154.5 -60 q-51 0 -91.5 17t-66.5 45.5t-43 69.5t-24 86.5t-7 98.5zM115 246q16 -214 183 -214q77 0 122 48t45 123q0 76 -43.5 122t-124.5 46q-62 0 -109.5 -34t-72.5 -91z" />
<glyph unicode="&#xf63f;" horiz-adv-x="481" d="M51 681h397q9 0 15 -6.5t6 -14.5q0 -7 -8 -23l-297 -631q-8 -21 -30 -14q-10 3 -14.5 12.5t0.5 19.5l260 544q15 36 37 71h-344v-95q0 -9 -6.5 -15t-15.5 -6t-15 6t-6 15v116q0 8 6 14.5t15 6.5z" />
<glyph unicode="&#xf640;" horiz-adv-x="567" d="M470 175q0 33 -15.5 59.5t-45.5 46t-59 32t-70 26.5q-182 -57 -182 -164q0 -68 47.5 -106.5t138.5 -38.5t138.5 38t47.5 107zM446 523q0 61 -42 95t-120 34q-79 0 -120.5 -33.5t-41.5 -93.5q0 -29 14.5 -53t41.5 -41.5t50.5 -28t56.5 -21.5q72 26 116.5 59t44.5 83z M332 361q39 -16 66 -29.5t57.5 -36t46 -54t15.5 -69.5q0 -87 -62 -134.5t-171 -47.5q-110 0 -172 47.5t-62 134.5q0 40 17 72t48.5 54.5t57 36t60.5 26.5q-33 13 -56.5 25.5t-49 32t-39 46.5t-13.5 60q0 77 55 121t153 44t153.5 -44t55.5 -121q0 -61 -44.5 -98.5 t-115.5 -65.5z" />
<glyph unicode="&#xf641;" horiz-adv-x="560" d="M495 373q0 -47 -5 -92.5t-22 -100t-44 -95t-76 -68t-113 -27.5q-72 0 -121 19q-51 18 -51 37q0 10 6 16.5t16 6.5q6 0 28.5 -10.5t41.5 -15.5q36 -11 81 -11q141 0 191 174q19 70 19 172q-62 -111 -187 -111q-100 0 -155 57t-55 152q0 94 59 154t155 60q63 0 109.5 -25 t72.5 -70t38 -100t12 -122zM446 434q-18 214 -183 214q-77 0 -122 -48t-45 -123q0 -77 43 -123t124 -46q62 0 109.5 34.5t73.5 91.5z" />
<glyph unicode="&#xf642;" horiz-adv-x="594" d="M495 596l-383 -596q-8 -10 -14 -10q-15 0 -15 15q0 2 4 10l383 596q5 10 14 10q14 0 14 -15q0 -6 -3 -10zM272 481q0 47 -32.5 80t-79.5 33q-46 0 -79.5 -33t-33.5 -80q0 -46 33.5 -79t79.5 -33t79 32.5t33 79.5zM298 481q0 -57 -40.5 -97.5t-97.5 -40.5t-98 40.5 t-41 97.5q0 58 41 98.5t98 40.5t97.5 -40.5t40.5 -98.5zM304 128q0 -46 33.5 -79t80.5 -33q46 0 79 33t33 79q0 47 -32.5 80t-79.5 33t-80.5 -33t-33.5 -80zM278 128q0 58 41 98.5t98 40.5q58 0 98.5 -40.5t40.5 -98.5q0 -56 -41 -97t-98 -41t-98 40.5t-41 97.5z" />
<glyph unicode="&#xf643;" d="M111 268q0 -118 48 -177q49 -60 147 -60t147 60t49 177q0 116 -49 176q-49 61 -147 61t-147 -61q-48 -59 -48 -176zM65 268q0 134 59 204q61 73 182 73q120 0 182 -73q60 -73 60 -204q0 -133 -60 -205t-182 -72q-120 0 -182 72q-59 73 -59 205z" />
<glyph unicode="&#xf644;" d="M331 42h129q8 0 14 -6.5t6 -14.5q0 -9 -6 -15t-14 -6h-330q-9 0 -15 6t-6 15q0 8 6 14.5t15 6.5h153v451l-131 -53q-9 -4 -14 -4q-8 0 -14 6t-6 15q0 15 17 20l158 65q8 4 15 4q10 0 16.5 -7t6.5 -16v-481z" />
<glyph unicode="&#xf645;" d="M479 389q0 -75 -65 -119q-31 -22 -106 -54.5t-107 -57.5q-57 -44 -57 -118h321q8 0 14 -6t6 -14t-6 -14t-14 -6h-347q-22 0 -22 22q0 100 63 154q36 30 114 63.5t108 53.5q53 37 53 95q0 55 -37 86.5t-108 31.5q-65 0 -118 -32q-6 -4 -15 -9.5t-13.5 -8.5t-10 -5.5 t-9.5 -2.5q-19 0 -19 21q0 10 20.5 25.5t39.5 23.5q58 26 126 26q89 0 139 -41t50 -114z" />
<glyph unicode="&#xf646;" d="M507 38q0 -86 -61.5 -139t-162.5 -53q-64 0 -115 14q-66 19 -66 43q0 8 6 14.5t15 6.5q6 0 14 -3.5t21.5 -9.5t25.5 -10q43 -15 97 -15q83 0 131.5 42.5t48.5 112.5q0 105 -102 136q-33 11 -80 11q-24 0 -24 20t21 20q53 0 86 15q77 32 77 119q0 61 -42 101.5t-111 40.5 q-53 0 -96 -20q-13 -6 -25 -13t-18.5 -10.5t-11.5 -3.5q-9 0 -15 6t-6 15q0 16 39 36q61 32 136 32q87 0 140.5 -51t53.5 -128q0 -58 -29.5 -98.5t-85.5 -57.5q67 -17 103 -62t36 -111z" />
<glyph unicode="&#xf647;" d="M398 458l-295 -418h295v418zM445 40h93q8 0 13.5 -6t5.5 -14t-5.5 -14t-13.5 -6h-93v-156q0 -10 -6.5 -16.5t-16.5 -6.5t-17 6.5t-7 16.5v156h-335q-8 0 -14 6t-6 14t5 15l350 494q10 13 23 13q11 0 17.5 -7t6.5 -17v-478z" />
<glyph unicode="&#xf648;" d="M89 -70q0 9 6.5 15t14.5 6q5 0 12 -5.5t18.5 -14.5t21.5 -15q49 -31 127 -31q79 0 130.5 51.5t51.5 128.5q0 78 -46.5 128.5t-119.5 50.5q-60 0 -109 -33q-16 -11 -30.5 -24t-21.5 -18.5t-13 -5.5q-9 0 -15 6t-6 14q0 4 2 24l24 310q2 19 21 19h322q8 0 14 -6.5t6 -14.5 t-6 -14.5t-14 -6.5h-300l-21 -268q67 59 150 59q95 0 152.5 -62t57.5 -158q0 -94 -64 -157t-165 -63q-100 0 -160 41q-40 26 -40 44z" />
<glyph unicode="&#xf649;" d="M77 307q0 47 5 92.5t22 100t44 95t76 68t113 27.5q72 0 121 -19q52 -18 52 -38q0 -9 -6.5 -15.5t-16.5 -6.5q-6 0 -28.5 10.5t-41.5 15.5q-36 11 -81 11q-142 0 -191 -175q-19 -69 -19 -171q62 111 187 111q100 0 155 -57t55 -152q0 -94 -59 -154t-155 -60 q-63 0 -109.5 25t-72.5 70t-38 100t-12 122zM127 246q16 -214 182 -214q77 0 122 48t45 123q0 76 -43 122t-124 46q-62 0 -109.5 -34t-72.5 -91z" />
<glyph unicode="&#xf64a;" d="M116 537h397q8 0 14 -6.5t6 -14.5q0 -7 -8 -23l-296 -632q-10 -19 -31 -14q-10 4 -14 13t1 20l259 544q22 44 38 71h-345v-95q0 -9 -6 -15t-15 -6q-10 0 -16 6t-6 15v116q0 8 6 14.5t16 6.5z" />
<glyph unicode="&#xf64b;" d="M487 175q0 33 -15.5 59.5t-45.5 46t-59 32t-70 26.5q-81 -26 -132 -64t-51 -100q0 -68 48 -106.5t139 -38.5t138.5 38t47.5 107zM463 523q0 61 -42 95t-120 34q-79 0 -121 -33.5t-42 -93.5q0 -29 14.5 -53t42 -41.5t51 -28t56.5 -21.5q72 26 116.5 59t44.5 83zM349 361 q39 -16 66 -29.5t57.5 -36t46 -54t15.5 -69.5q0 -86 -62 -134t-171 -48q-110 0 -172 47.5t-62 134.5q0 40 17 72t48.5 54.5t57 36t60.5 26.5q-33 13 -56.5 25.5t-49 32t-39 46.5t-13.5 60q0 77 55 121t153 44t153.5 -44t55.5 -121q0 -61 -44.5 -98.5t-115.5 -65.5z" />
<glyph unicode="&#xf64c;" d="M523 228q0 -47 -5 -92.5t-22 -100t-44 -95t-76 -68t-113 -27.5q-72 0 -121 19q-51 18 -51 38q0 9 6 15.5t16 6.5q6 0 28.5 -10.5t41.5 -15.5q38 -10 81 -10q142 0 191 174q19 69 19 172q-62 -112 -187 -112q-100 0 -155 57t-55 152q0 94 59 154t155 60q63 0 109.5 -25 t72.5 -70t38 -100t12 -122zM474 289q-18 214 -183 214q-77 0 -122 -48t-45 -123q0 -76 43 -122t124 -46q62 0 109.5 34t73.5 91z" />
<glyph unicode="&#xf64e;" d="M34 261h44q-2 15 -2 46q0 13 2 41h-44q-14 0 -14 14t14 14h49q24 106 109.5 175.5t192.5 69.5q81 0 153 -31q36 -16 36 -32q0 -9 -6 -15t-14 -6q-6 0 -40 17q-58 28 -130 28q-88 0 -161 -57.5t-96 -148.5h353q14 0 14 -14t-14 -14h-358q-3 -21 -3 -41q0 -23 3 -46h307 q14 0 14 -14t-14 -14h-302q22 -92 91.5 -147.5t165.5 -55.5q71 0 131 30q7 3 16.5 7.5t15.5 7t10 2.5q8 0 13.5 -6t5.5 -14q0 -19 -42 -35q-67 -31 -150 -31q-116 0 -197 66t-104 176h-49q-14 0 -14 14t14 14z" />
<glyph unicode="&#xf64f;" d="M192 436h60l16 88q27 144 145 144q48 0 84 -18q23 -13 23 -27q0 -18 -18 -18q-7 0 -24 10q-27 16 -62 16q-48 0 -71.5 -28t-33.5 -83l-15 -84h138q7 0 11.5 -5t4.5 -12q0 -17 -16 -17h-144l-89 -492q-26 -145 -150 -145q-29 0 -50 7q-26 8 -26 24q0 18 18 18q3 0 10 -2.5 t10 -3.5q16 -6 37 -6q89 0 110 113l86 487h-54q-7 0 -12 5t-5 12t5 12t12 5z" />
<glyph unicode="&#xf650;" horiz-adv-x="680" d="M214 169h209l42 203h-209zM473 409l42 196q2 8 8.5 12t13.5 2q7 -1 11 -7.5t2 -13.5l-40 -189h152q8 0 13 -5.5t5 -12.5q0 -8 -5.5 -13.5t-12.5 -5.5h-160l-42 -203h153q7 0 12.5 -5.5t5.5 -12.5t-5.5 -12.5t-12.5 -5.5h-161l-42 -198q-4 -16 -21 -13q-17 4 -14 21 l40 190h-209l-42 -198q-4 -16 -21 -13q-17 4 -14 21l40 190h-151q-8 0 -13 5.5t-5 12.5t5 12.5t13 5.5h159l42 203h-152q-7 0 -12.5 5.5t-5.5 13.5q0 7 5.5 12.5t12.5 5.5h160l41 196q6 19 22 14q18 -4 14 -21l-40 -189h209z" />
<glyph unicode="&#xf651;" d="M108 40h35q55 50 55 120q0 41 -24 106h-47q-7 0 -12.5 5t-5.5 13t5.5 13t12.5 5h33q-30 77 -30 133q0 78 51.5 132.5t145.5 54.5q56 0 97 -11q42 -10 42 -28q0 -8 -5.5 -14t-13.5 -6q-3 0 -31 8q-39 13 -86 13q-77 0 -117 -44t-40 -106q0 -51 31 -132h193q17 0 17 -18 t-17 -18h-180q22 -62 22 -106q0 -69 -48 -120h277q8 0 14 -6t6 -14t-6 -14t-14 -6h-360q-8 0 -14 6t-6 14t6 14t14 6z" />
<glyph unicode="&#xf652;" d="M339 305h163q16 0 16 -16t-16 -16h-180v-80h180q7 0 11.5 -5t4.5 -11q0 -7 -4.5 -12t-11.5 -5h-180v-146q0 -10 -6.5 -16.5t-15.5 -6.5q-10 0 -16 6.5t-6 16.5v146h-181q-7 0 -11.5 5t-4.5 12q0 6 4.5 11t11.5 5h181v80h-181q-16 0 -16 16t16 16h163l-206 277 q-6 10 -6 17q0 8 6 14.5t15 6.5q13 0 22 -13l209 -283l209 283q9 13 22 13q9 0 15 -6t6 -15q0 -7 -6 -17z" />
<glyph unicode="&#xf653;" d="M287 620v56q0 15 14 15q6 0 10.5 -4.5t4.5 -10.5v-56q75 -3 128 -27q34 -15 34 -31q0 -20 -21 -20q-9 0 -27.5 9t-28.5 12q-51 17 -97 17q-161 0 -161 -118q0 -67 89 -101q23 -9 88.5 -28t99.5 -36q36 -19 60.5 -52t24.5 -78q0 -79 -50.5 -125.5t-138.5 -51.5v-53 q0 -6 -4.5 -10.5t-10.5 -4.5q-14 0 -14 15v53q-109 3 -178 51q-16 11 -16 24q0 23 23 23q6 0 14 -5t22.5 -14t29.5 -16q51 -23 113 -23q78 0 120.5 36t42.5 97q0 68 -73 101q-30 14 -91.5 32.5t-95.5 32.5q-102 44 -102 133q0 73 49 113t142 45z" />
<glyph unicode="&#xf654;" d="M333 456v61q0 14 14 14q13 0 13 -14v-61q54 -1 102 -26q25 -13 25 -25q0 -7 -5.5 -12.5t-12.5 -5.5q-4 0 -7 1.5t-10 5.5t-14 7q-38 19 -90 19q-92 0 -150 -69q-43 -53 -43 -127q0 -87 53 -143q52 -54 141 -54q59 0 92 16q7 3 13.5 6.5t9.5 5t7 1.5q7 0 12.5 -5t5.5 -13 q0 -13 -29 -26q-40 -19 -100 -21v-60q0 -14 -13 -14q-14 0 -14 14v60q-97 5 -156 62q-66 64 -66 171q0 87 54 151q65 75 168 81z" />
<glyph unicode="&#xf6dc;" horiz-adv-x="431" d="M245 42h132q9 0 14.5 -6t5.5 -15q0 -21 -20 -21h-321q-8 0 -14 6t-6 15q0 8 6 14.5t14 6.5h141v595l-132 -53q-9 -4 -14 -4q-8 0 -14 6t-6 15q0 15 18 20l157 65q8 4 16 4q10 0 16.5 -7t6.5 -16v-625z" />
<glyph unicode="&#xf6fa;" horiz-adv-x="975" d="M53 272q0 105 64 182q82 98 218 98t218 -98q17 -21 20 -27v96q0 9 6.5 15t15.5 6h344q19 0 19 -19t-19 -19h-323v-214h284q8 0 13.5 -6t5.5 -14t-5.5 -13.5t-13.5 -5.5h-284v-215h323q19 0 19 -19t-19 -19h-344q-9 0 -15.5 6t-6.5 15v95q-9 -13 -20 -26q-82 -98 -218 -98 t-218 98q-64 77 -64 182zM98 272q0 -91 57 -158q70 -81 180 -81q111 0 181 81q57 67 57 158q0 92 -57 158q-70 81 -181 81q-110 0 -180 -81q-57 -66 -57 -158z" />
<glyph unicode="&#xf761;" horiz-adv-x="509" d="M453 8l-57 136h-283l-56 -136q-6 -16 -22 -16q-21 0 -21 20q0 8 3 12l210 506q9 22 28 22q21 0 29 -22l209 -506q3 -9 3 -12q0 -8 -6 -14t-15 -6q-17 0 -22 16zM255 491l-130 -313h259z" />
<glyph unicode="&#xf762;" horiz-adv-x="540" d="M494 146q0 -76 -51 -111t-133 -35h-212q-9 0 -15.5 6t-6.5 15v502q0 21 21 21h181q74 0 122.5 -35t48.5 -104q0 -87 -72 -122q56 -10 86.5 -47.5t30.5 -89.5zM405 400q0 53 -36.5 79.5t-94.5 26.5h-154v-211h172q49 0 81 27t32 78zM449 150q0 46 -32.5 77t-92.5 31h-204 v-221h184q145 0 145 113z" />
<glyph unicode="&#xf763;" horiz-adv-x="533" d="M330 552q79 0 135 -27q40 -20 40 -37q0 -9 -6 -15t-14 -6q-6 0 -13 3.5t-19 10.5t-24 12q-41 18 -99 18q-112 0 -184 -90q-53 -66 -53 -148q0 -102 68 -170q70 -70 169 -70q58 0 104 19q13 5 25 12.5t18.5 11t12.5 3.5q19 0 19 -21q0 -18 -42 -38q-58 -28 -137 -28 q-120 0 -200 80q-82 80 -82 201q0 98 66 177q40 47 96.5 74.5t119.5 27.5z" />
<glyph unicode="&#xf764;" horiz-adv-x="613" d="M564 272q0 -135 -82.5 -203.5t-221.5 -68.5h-162q-9 0 -15.5 6t-6.5 15v502q0 9 6.5 15t15.5 6h176q135 0 212.5 -72t77.5 -200zM120 506v-468h139q124 0 192 60.5t68 173.5q0 109 -63.5 171.5t-185.5 62.5h-150z" />
<glyph unicode="&#xf765;" horiz-adv-x="478" d="M120 253v-215h323q8 0 13.5 -5.5t5.5 -13.5q0 -19 -19 -19h-345q-9 0 -15.5 6t-6.5 15v502q0 9 6.5 15t15.5 6h345q8 0 13.5 -5.5t5.5 -13.5q0 -19 -19 -19h-323v-214h283q8 0 13.5 -6t5.5 -14q0 -19 -19 -19h-283z" />
<glyph unicode="&#xf766;" horiz-adv-x="452" d="M98 544h320q8 0 13.5 -5.5t5.5 -13.5q0 -19 -19 -19h-298v-214h257q8 0 13.5 -6t5.5 -14q0 -19 -19 -19h-257v-240q0 -9 -6.5 -15t-15.5 -6t-15.5 6t-6.5 15v510q0 9 6.5 15t15.5 6z" />
<glyph unicode="&#xf767;" horiz-adv-x="612" d="M330 552q79 0 135 -27q40 -20 40 -37q0 -9 -6 -15t-14 -6q-6 0 -13 3.5t-19 10.5t-24 12q-41 18 -99 18q-112 0 -184 -90q-53 -66 -53 -148q0 -104 65 -171q67 -69 173 -69q101 0 165 56v135h-178q-20 0 -20 19q0 8 6 13.5t14 5.5h199q22 0 22 -21v-228q0 -21 -22 -21 q-9 0 -15 6t-6 15v28q-70 -49 -166 -49q-123 0 -203 78q-79 77 -79 203q0 98 66 177q40 47 96.5 74.5t119.5 27.5z" />
<glyph unicode="&#xf768;" horiz-adv-x="598" d="M478 531q0 9 6.5 15t15.5 6t15.5 -6t6.5 -15v-518q0 -9 -6.5 -15t-15.5 -6t-15.5 6t-6.5 15v240h-358v-240q0 -9 -6.5 -15t-15.5 -6t-15.5 6t-6.5 15v518q0 9 6.5 15t15.5 6t15.5 -6t6.5 -15v-239h358v239z" />
<glyph unicode="&#xf769;" horiz-adv-x="196" d="M76 13v518q0 9 6.5 15t15.5 6t15.5 -6t6.5 -15v-518q0 -9 -6.5 -15t-15.5 -6t-15.5 6t-6.5 15z" />
<glyph unicode="&#xf76a;" horiz-adv-x="430" d="M355 531v-333q0 -88 -44 -140q-53 -66 -155 -66q-59 0 -104 25q-33 20 -33 36q0 8 6 14t14 6q7 0 36 -18q40 -23 81 -23q76 0 119 50q36 44 36 118v331q0 9 6.5 15t15.5 6t15.5 -6t6.5 -15z" />
<glyph unicode="&#xf76b;" horiz-adv-x="492" d="M427 513l-212 -208l239 -272q9 -11 9 -19q0 -9 -6 -15.5t-16 -6.5q-11 0 -19 10l-237 271l-65 -63v-197q0 -9 -6.5 -15t-15.5 -6t-15.5 6t-6.5 15v518q0 9 6.5 15t15.5 6t15.5 -6t6.5 -15v-264l279 277q6 8 17 8q8 0 14 -6.5t6 -14.5q0 -9 -9 -18z" />
<glyph unicode="&#xf76c;" horiz-adv-x="441" d="M76 21v510q0 9 6.5 15t15.5 6t15.5 -6t6.5 -15v-493h285q8 0 13.5 -5.5t5.5 -13.5q0 -19 -19 -19h-307q-9 0 -15.5 6t-6.5 15z" />
<glyph unicode="&#xf76d;" horiz-adv-x="684" d="M76 13v514q0 11 7 18t18 7q14 0 23 -14l218 -358l218 358q9 14 23 14q11 0 18 -7t7 -18v-514q0 -21 -21 -21t-21 21v457l-202 -329q-7 -14 -22 -14q-13 0 -22 14l-201 329v-457q0 -9 -6 -15t-15 -6q-10 0 -16 6t-6 15z" />
<glyph unicode="&#xf76e;" horiz-adv-x="623" d="M547 532v-520q0 -8 -6.5 -14t-14.5 -6q-11 0 -21 13l-387 469v-462q0 -8 -6 -14t-15 -6t-15 6t-6 14v520q0 8 6.5 14t14.5 6q11 0 21 -13l387 -470v463q0 8 6 14t15 6t15 -6t6 -14z" />
<glyph unicode="&#xf76f;" horiz-adv-x="662" d="M93 272q0 -91 57 -158q70 -81 181 -81q110 0 180 81q57 67 57 158q0 92 -57 158q-70 81 -180 81q-111 0 -181 -81q-57 -66 -57 -158zM48 272q0 106 65 182q82 98 218 98t218 -98q64 -77 64 -182t-64 -182q-82 -98 -218 -98t-218 98q-65 76 -65 182z" />
<glyph unicode="&#xf770;" horiz-adv-x="511" d="M98 544h184q84 0 136 -41q60 -49 60 -132q0 -88 -60 -133q-54 -42 -143 -42h-155v-183q0 -9 -6.5 -15t-15.5 -6t-15.5 6t-6.5 15v509q0 10 6.5 16t15.5 6zM434 371q0 67 -49 106q-36 29 -107 29h-158v-272h153q70 0 110 29q51 36 51 108z" />
<glyph unicode="&#xf771;" horiz-adv-x="661" d="M48 272q0 119 80.5 199.5t201.5 80.5t201.5 -80t80.5 -200q0 -113 -70.5 -190.5t-180.5 -87.5q0 -5 8 -8q43 -16 94 -30.5t98.5 -26.5t50.5 -13q62 -16 62 -32q0 -20 -26 -20q-40 0 -302 89q-3 1 -10 3.5t-10.5 3.5t-9.5 3.5t-9.5 4.5t-7 4.5t-5 5.5t-1.5 6q0 6 2 10 q-107 12 -177 89.5t-70 188.5zM93 272q0 -101 68.5 -170t168.5 -69q101 0 169 69t68 170t-67.5 170t-169.5 69q-101 0 -169 -69t-68 -170z" />
<glyph unicode="&#xf772;" horiz-adv-x="539" d="M445 2l-173 219h-152v-208q0 -9 -6.5 -15t-15.5 -6t-15.5 6t-6.5 15v509q0 10 6.5 16t15.5 6h195q85 0 139 -37.5t54 -123.5q0 -143 -164 -160l155 -191q8 -11 8 -19q0 -21 -22 -21q-11 0 -18 10zM291 506h-171v-248h168q153 0 153 124t-150 124z" />
<glyph unicode="&#xf773;" horiz-adv-x="446" d="M383 497q0 -8 -6 -14t-14 -6q-5 0 -12 3.5t-18.5 10t-23.5 10.5q-45 15 -82 15q-143 0 -143 -103q0 -64 87 -95q18 -6 57 -17t69 -21.5t52 -25.5q58 -38 58 -107q0 -73 -50.5 -114t-135.5 -41q-76 0 -133 27q-48 25 -48 43q0 19 20 19q6 0 13 -3.5t19.5 -12t23.5 -14.5 q46 -23 105 -23q68 0 105.5 31t37.5 86q0 40 -26.5 64t-73.5 39q-16 6 -53.5 16.5t-64 20.5t-47.5 23q-57 37 -57 105t48.5 103.5t138.5 35.5q64 0 116 -22q38 -17 38 -33z" />
<glyph unicode="&#xf774;" horiz-adv-x="453" d="M428 505h-179v-492q0 -9 -6.5 -15t-15.5 -6t-15.5 6t-6.5 15v492h-179q-8 0 -14 5.5t-6 13.5q0 9 6 14.5t14 5.5h402q8 0 13.5 -5.5t5.5 -14.5q0 -8 -5.5 -13.5t-13.5 -5.5z" />
<glyph unicode="&#xf775;" horiz-adv-x="609" d="M304 33q89 0 136 43q56 50 56 141v314q0 9 6.5 15t15.5 6t15.5 -6t6.5 -15v-315q0 -111 -68 -171q-62 -53 -168 -53q-105 0 -167 53q-68 60 -68 171v315q0 9 6.5 15t15.5 6t15.5 -6t6.5 -15v-314q0 -91 56 -141q46 -43 135 -43z" />
<glyph unicode="&#xf776;" horiz-adv-x="528" d="M263 50l209 487q7 15 21 15q22 0 22 -20q0 -7 -4 -16l-219 -503q-10 -21 -29 -21t-29 21l-218 504q-4 12 -4 14q0 21 23 21q15 0 21 -16z" />
<glyph unicode="&#xf777;" horiz-adv-x="838" d="M443 533l167 -479l174 480q5 18 22 18q11 0 17 -7t6 -16q0 -6 -5 -18l-184 -498q-7 -21 -30 -21t-30 22l-161 454l-164 -454q-7 -22 -30 -22q-21 0 -30 21l-182 498q-4 14 -4 18q0 9 6 16t17 7q17 0 22 -18l172 -480l169 479q6 19 24 19t24 -19z" />
<glyph unicode="&#xf778;" horiz-adv-x="510" d="M57 541l199 -238l198 238q8 11 20 11q9 0 16 -6t7 -16q0 -6 -9 -19l-205 -240l208 -239q9 -11 9 -18q0 -10 -6.5 -16t-15.5 -6q-13 0 -21 11q-2 3 -100 117t-101 119l-201 -236q-8 -11 -21 -11q-9 0 -16 6t-7 16q0 7 9 18l209 238l-205 241q-9 11 -9 19q0 9 6.5 15.5 t15.5 6.5q13 0 20 -11z" />
<glyph unicode="&#xf779;" horiz-adv-x="473" d="M453 510l-195 -265v-232q0 -21 -22 -21q-21 0 -21 21v232l-195 265q-9 13 -9 22t6 14.5t14 5.5q12 0 21 -12l184 -253l186 254q7 11 20 11q8 0 14 -5.5t6 -14.5t-9 -22z" />
<glyph unicode="&#xf77a;" horiz-adv-x="439" d="M33 544h364q9 0 14.5 -6t5.5 -14q0 -5 -7 -17l-339 -468h335q8 0 14 -5.5t6 -14.5q0 -19 -20 -19h-373q-20 0 -20 19q0 6 7 18l339 468h-326q-8 0 -13.5 5.5t-5.5 13.5q0 9 5.5 14.5t13.5 5.5z" />
<glyph unicode="&#xf7e6;" horiz-adv-x="808" d="M147 143l-102 -137q-11 -14 -23 -14q-8 0 -13.5 5t-5.5 12q0 1 1 3v1l4 10l324 427q5 6 16.5 22t19 26t18 22t19.5 18t17 6h350q8 0 13.5 -6t5.5 -14q0 -19 -19 -19h-323v-214h284q8 0 13.5 -5.5t5.5 -13.5q0 -19 -19 -19h-284v-215h323q16 0 18 -16q0 -22 -28 -22h-337 q-8 0 -13.5 5.5t-5.5 12.5v125h-259zM173 178h233v306z" />
<glyph unicode="&#xf8ff;" horiz-adv-x="641" d="M322 691q83 0 136.5 -47.5t71.5 -117t9 -150.5q14 8 24 8q14 0 20 -15q5 -10 2 -38q-1 -8 -17 -49q-1 -7 -7 -16.5t-7 -12.5q-8 -17 -20 -24q-8 -130 -112 -197q-48 -42 -100 -42q-42 0 -89 30q-23 9 -46 30t-36 43q-34 66 -40 131q-4 4 -8.5 9.5t-10 13.5t-8.5 12 q-6 8 -22 56q-8 32 -8 39q0 14 5.5 25.5t15.5 11.5q9 0 27 -10q-14 133 48 221.5t172 88.5zM460 551v31l-31 3q-58 9 -61 -42q-28 10 -55 10q-53 0 -84.5 -30.5t-31.5 -81.5q0 -77 58 -101q-17 -13 -17 -32q0 -22 26.5 -38.5t58.5 -24.5t58.5 -22t26.5 -33q0 -27 -23 -43.5 t-63 -16.5q-41 0 -65 17t-24 42v6l-31 -15q0 -43 37 -63.5t83 -20.5q48 0 87 23.5t39 70.5q0 29 -18 45.5t-51 30.5q-16 7 -53.5 18t-47.5 18v31q25 -5 35 -5q51 0 81 30t30 83q0 50 -30 83q3 27 29 27h37zM386 441q0 -36 -19 -58t-54 -22q-37 0 -56.5 21.5t-19.5 58.5 q0 35 19.5 56.5t56.5 21.5q35 0 54 -21t19 -57zM348 186q0 11 -11 11h-13v-30h9v9h2q13 0 13 10zM355 197v-30h21v8h-12v4h11v7h-11v4h12v7h-21zM317 197h-9l-4 -11l-5 11h-10l10 -18v-12h9v12zM260 197v-7h8v-23h9v23h8v7h-25zM340 186q0 -4 -6 -4h-1v9h1q6 0 6 -5z" />
<glyph unicode="&#xfb06;" horiz-adv-x="727" d="M524 413v-270q0 -58 22.5 -86.5t77.5 -28.5q32 0 62 17t34 17q7 0 12 -5t5 -12q0 -17 -40 -37q-38 -18 -80 -18q-137 0 -137 150v273h-47q-7 0 -12 5.5t-5 12.5t5 12t12 5h47v51q0 167 -111 167q-54 0 -85 -32t-31 -78q0 -87 62 -120q29 -17 29 -26q0 -18 -17 -18 q-5 0 -37 13q-37 15 -80 15q-116 0 -116 -77q0 -47 59 -73q17 -7 58.5 -22t56.5 -22q44 -20 67 -44.5t23 -65.5q0 -60 -42 -93t-114 -33q-77 0 -130 30q-32 16 -32 34q0 7 5.5 13t12.5 6q4 0 8 -1.5t7 -3.5t9 -6.5l10 -7.5q43 -28 109 -28q53 0 82 22.5t29 64.5 q0 32 -18 49.5t-56 34.5q-13 6 -54.5 20.5t-60.5 23.5q-74 33 -74 102q0 54 41 84t117 30q29 0 49 -5q-41 41 -41 109q0 60 42 99.5t115 39.5q79 0 115.5 -55.5t36.5 -144.5v-52h162q7 0 12.5 -5t5.5 -12t-5 -12.5t-13 -5.5h-162z" />
<glyph horiz-adv-x="691" d="M345 646q-98 0 -160 -70q-60 -70 -60 -184v-92h440v92q0 113 -61 184q-62 70 -159 70zM613 393v-380q0 -9 -7 -16t-17 -7t-17 7t-7 16v244h-440v-244q0 -9 -7 -16t-17 -7t-17 7t-7 16v380q0 133 76 216q73 81 192 81q120 0 191 -81q77 -87 77 -216z" />
<glyph horiz-adv-x="630" d="M90 606q0 21 46 43q87 41 189 41q122 0 179 -71q50 -63 50 -187v-419q0 -9 -7 -16t-17 -7t-17 7t-7 16v31q-89 -54 -209 -54q-43 0 -83.5 10t-76.5 30.5t-58 58t-22 86.5q0 113 104 167q41 22 104.5 36.5t112 19.5t128.5 11v21q0 109 -42 162q-46 56 -142 56 q-82 0 -160 -41q-6 -3 -14.5 -8t-13 -8t-11 -5t-11.5 -2q-10 0 -16 6.5t-6 15.5zM108 177q0 -52 32 -86.5t76 -47.5t96 -13q111 0 194 54v286q-71 -5 -110.5 -8.5t-96.5 -15t-93 -28.5q-98 -46 -98 -141z" />
<glyph horiz-adv-x="689" d="M345 646q-98 0 -160 -70q-60 -70 -60 -184v-98h440v98q0 113 -61 184q-62 70 -159 70zM613 393v-380q0 -9 -7 -16t-17 -7t-17 7t-7 16v239h-440v-239q0 -9 -7 -16t-17 -7t-17 7t-7 16v380q0 133 76 216q73 81 192 81q120 0 191 -81q77 -84 77 -216z" />
<glyph horiz-adv-x="1175" d="M57 175q0 118 145 165q104 34 303 36v54q0 111 -42 162q-45 56 -141 56q-83 0 -161 -41q-5 -3 -13.5 -8t-13.5 -7.5t-11 -5t-11 -2.5q-10 0 -16.5 6.5t-6.5 15.5q0 20 47 43q87 41 189 41q121 0 178 -71q30 -37 41 -96q18 34 44 65q89 102 238 102q138 0 224 -96 q79 -86 79 -224q0 -35 -32 -35h-539q3 -121 66 -200q82 -102 221 -102q83 0 148 28q21 9 40.5 21t30 19t16.5 7q9 0 15 -6t6 -16q0 -28 -77 -61q-86 -35 -178 -35q-164 0 -257 109q-57 -51 -124 -80t-167 -29q-60 0 -112 16.5t-90.5 60.5t-38.5 108zM558 376h522 q-3 116 -67 188q-70 82 -186 82q-131 0 -206 -93q-57 -69 -63 -177zM312 30q63 0 115 16.5t79.5 35.5t59.5 48q-58 86 -61 205q-181 0 -275 -29q-123 -40 -123 -129q0 -52 32 -86.5t76 -47.5t97 -13z" />
<glyph horiz-adv-x="1020" d="M609 639v-277h307q9 0 15 -6.5t6 -14.5q0 -9 -6 -15.5t-15 -6.5h-307v-277h359q8 0 14 -6t6 -15t-6 -15t-14 -6h-383q-9 0 -16.5 6.5t-7.5 16.5v229h-436v-239q0 -9 -7 -16t-17 -7t-17 7t-7 16v380q0 130 76 216q71 81 190 81q144 0 218 -118v86q0 9 7 16t17 7h383 q8 0 14 -6.5t6 -14.5q0 -9 -6 -15t-14 -6h-359zM343 646q-98 0 -158 -70t-60 -184v-98h436v98q0 113 -60 184q-62 70 -158 70z" />
<glyph horiz-adv-x="691" d="M345 646q-98 0 -160 -70q-60 -70 -60 -184v-92h440v92q0 113 -61 184q-62 70 -159 70zM613 393v-380q0 -9 -7 -16t-17 -7t-17 7t-7 16v244h-440v-244q0 -9 -7 -16t-17 -7t-17 7t-7 16v380q0 133 76 216q73 81 192 81q120 0 191 -81q77 -87 77 -216zM280 788q0 3 4 13 l88 155q7 15 19 15q8 0 13.5 -5t5.5 -13q0 -6 -6 -16l-91 -150q-7 -13 -17 -13q-16 0 -16 14z" />
<glyph horiz-adv-x="630" d="M90 606q0 21 46 43q87 41 189 41q122 0 179 -71q50 -63 50 -187v-419q0 -9 -7 -16t-17 -7t-17 7t-7 16v31q-89 -54 -209 -54q-43 0 -83.5 10t-76.5 30.5t-58 58t-22 86.5q0 113 104 167q41 22 104.5 36.5t112 19.5t128.5 11v21q0 109 -42 162q-46 56 -142 56 q-82 0 -160 -41q-6 -3 -14.5 -8t-13 -8t-11 -5t-11.5 -2q-10 0 -16 6.5t-6 15.5zM108 177q0 -52 32 -86.5t76 -47.5t96 -13q111 0 194 54v286q-71 -5 -110.5 -8.5t-96.5 -15t-93 -28.5q-98 -46 -98 -141zM256 788q0 3 4 13l88 155q7 15 19 15q8 0 13.5 -5t5.5 -13 q0 -6 -6 -16l-91 -150q-7 -13 -17 -13q-16 0 -16 14z" />
<glyph horiz-adv-x="689" d="M279 790q0 3 4 13l88 155q7 15 19 15q8 0 13.5 -5t5.5 -13q0 -6 -6 -16l-91 -150q-7 -13 -17 -13q-16 0 -16 14zM345 646q-98 0 -160 -70q-60 -70 -60 -184v-98h440v98q0 113 -61 184q-62 70 -159 70zM613 393v-380q0 -9 -7 -16t-17 -7t-17 7t-7 16v239h-440v-239 q0 -9 -7 -16t-17 -7t-17 7t-7 16v380q0 133 76 216q73 81 192 81q120 0 191 -81q77 -84 77 -216z" />
<glyph horiz-adv-x="691" d="M345 646q-98 0 -160 -70q-60 -70 -60 -184v-92h440v92q0 113 -61 184q-62 70 -159 70zM613 393v-380q0 -9 -7 -16t-17 -7t-17 7t-7 16v244h-440v-244q0 -9 -7 -16t-17 -7t-17 7t-7 16v380q0 133 76 216q73 81 192 81q120 0 191 -81q77 -87 77 -216zM345 970q11 0 18 -9 l131 -140q8 -8 8 -15t-5 -12t-12 -5t-13 6l-127 134l-127 -134q-6 -6 -13 -6q-16 0 -16 17q0 8 7 15l132 140q7 9 17 9z" />
<glyph horiz-adv-x="630" d="M90 606q0 21 46 43q87 41 189 41q122 0 179 -71q50 -63 50 -187v-419q0 -9 -7 -16t-17 -7t-17 7t-7 16v31q-89 -54 -209 -54q-43 0 -83.5 10t-76.5 30.5t-58 58t-22 86.5q0 113 104 167q41 22 104.5 36.5t112 19.5t128.5 11v21q0 109 -42 162q-46 56 -142 56 q-82 0 -160 -41q-6 -3 -14.5 -8t-13 -8t-11 -5t-11.5 -2q-10 0 -16 6.5t-6 15.5zM108 177q0 -52 32 -86.5t76 -47.5t96 -13q111 0 194 54v286q-71 -5 -110.5 -8.5t-96.5 -15t-93 -28.5q-98 -46 -98 -141zM319 970q11 0 18 -9l131 -140q8 -8 8 -15t-5 -12t-12 -5t-13 6 l-127 134l-127 -134q-6 -6 -13 -6q-16 0 -16 17q0 8 7 15l132 140q7 9 17 9z" />
<glyph horiz-adv-x="689" d="M345 646q-98 0 -160 -70q-60 -70 -60 -184v-98h440v98q0 113 -61 184q-62 70 -159 70zM613 393v-380q0 -9 -7 -16t-17 -7t-17 7t-7 16v239h-440v-239q0 -9 -7 -16t-17 -7t-17 7t-7 16v380q0 133 76 216q73 81 192 81q120 0 191 -81q77 -84 77 -216zM345 971q7 0 18 -9 l131 -140q8 -8 8 -15t-5 -12t-12 -5t-13 6l-127 134l-127 -134q-6 -6 -13 -6q-16 0 -16 17q0 8 7 15l132 140q11 9 17 9z" />
<glyph horiz-adv-x="691" d="M345 646q-98 0 -160 -70q-60 -70 -60 -184v-92h440v92q0 113 -61 184q-62 70 -159 70zM613 393v-380q0 -9 -7 -16t-17 -7t-17 7t-7 16v244h-440v-244q0 -9 -7 -16t-17 -7t-17 7t-7 16v380q0 133 76 216q73 81 192 81q120 0 191 -81q77 -87 77 -216zM263 846q-12 0 -20 8 t-8 20q0 11 8 19t20 8q11 0 19.5 -8t8.5 -19q0 -12 -8.5 -20t-19.5 -8zM429 846q-12 0 -20 8t-8 20q0 11 8 19t20 8q11 0 19 -8t8 -19q0 -12 -8 -20t-19 -8z" />
<glyph horiz-adv-x="630" d="M90 606q0 21 46 43q87 41 189 41q122 0 179 -71q50 -63 50 -187v-419q0 -9 -7 -16t-17 -7t-17 7t-7 16v31q-89 -54 -209 -54q-43 0 -83.5 10t-76.5 30.5t-58 58t-22 86.5q0 113 104 167q41 22 104.5 36.5t112 19.5t128.5 11v21q0 109 -42 162q-46 56 -142 56 q-82 0 -160 -41q-6 -3 -14.5 -8t-13 -8t-11 -5t-11.5 -2q-10 0 -16 6.5t-6 15.5zM108 177q0 -52 32 -86.5t76 -47.5t96 -13q111 0 194 54v286q-71 -5 -110.5 -8.5t-96.5 -15t-93 -28.5q-98 -46 -98 -141zM233 846q-12 0 -20 8t-8 20q0 11 8 19t20 8q11 0 19.5 -8t8.5 -19 q0 -12 -8.5 -20t-19.5 -8zM399 846q-12 0 -20 8t-8 20q0 11 8 19t20 8q11 0 19 -8t8 -19q0 -12 -8 -20t-19 -8z" />
<glyph horiz-adv-x="689" d="M345 646q-98 0 -160 -70q-60 -70 -60 -184v-98h440v98q0 113 -61 184q-62 70 -159 70zM613 393v-380q0 -9 -7 -16t-17 -7t-17 7t-7 16v239h-440v-239q0 -9 -7 -16t-17 -7t-17 7t-7 16v380q0 133 76 216q73 81 192 81q120 0 191 -81q77 -84 77 -216zM262 846q-12 0 -20 8 t-8 20q0 11 8 19t20 8q11 0 19.5 -8t8.5 -19q0 -12 -8.5 -20t-19.5 -8zM428 846q-12 0 -20 8t-8 20q0 11 8 19t20 8q11 0 19 -8t8 -19q0 -12 -8 -20t-19 -8z" />
<glyph horiz-adv-x="691" d="M345 646q-98 0 -160 -70q-60 -70 -60 -184v-92h440v92q0 113 -61 184q-62 70 -159 70zM613 393v-380q0 -9 -7 -16t-17 -7t-17 7t-7 16v244h-440v-244q0 -9 -7 -16t-17 -7t-17 7t-7 16v380q0 133 76 216q73 81 192 81q120 0 191 -81q77 -87 77 -216zM410 788 q0 -14 -15 -14q-11 0 -18 13l-91 150q-6 10 -6 16q0 8 5.5 13t13.5 5q11 0 19 -15l88 -155q4 -7 4 -13z" />
<glyph horiz-adv-x="630" d="M90 606q0 21 46 43q87 41 189 41q122 0 179 -71q50 -63 50 -187v-419q0 -9 -7 -16t-17 -7t-17 7t-7 16v31q-89 -54 -209 -54q-43 0 -83.5 10t-76.5 30.5t-58 58t-22 86.5q0 113 104 167q41 22 104.5 36.5t112 19.5t128.5 11v21q0 109 -42 162q-46 56 -142 56 q-82 0 -160 -41q-6 -3 -14.5 -8t-13 -8t-11 -5t-11.5 -2q-10 0 -16 6.5t-6 15.5zM108 177q0 -52 32 -86.5t76 -47.5t96 -13q111 0 194 54v286q-71 -5 -110.5 -8.5t-96.5 -15t-93 -28.5q-98 -46 -98 -141zM388 788q0 -14 -15 -14q-11 0 -18 13l-91 150q-6 10 -6 16 q0 8 5.5 13t13.5 5q11 0 19 -15l88 -155q4 -7 4 -13z" />
<glyph horiz-adv-x="689" d="M409 790q0 -14 -15 -14q-11 0 -18 13l-91 150q-6 12 -6 16q0 8 5.5 13t13.5 5q12 0 19 -15l88 -155q4 -7 4 -13zM345 646q-98 0 -160 -70q-60 -70 -60 -184v-98h440v98q0 113 -61 184q-62 70 -159 70zM613 393v-380q0 -9 -7 -16t-17 -7t-17 7t-7 16v239h-440v-239 q0 -9 -7 -16t-17 -7t-17 7t-7 16v380q0 133 76 216q73 81 192 81q120 0 191 -81q77 -84 77 -216z" />
<glyph horiz-adv-x="691" d="M345 646q-98 0 -160 -70q-60 -70 -60 -184v-92h440v92q0 113 -61 184q-62 70 -159 70zM613 393v-380q0 -9 -7 -16t-17 -7t-17 7t-7 16v244h-440v-244q0 -9 -7 -16t-17 -7t-17 7t-7 16v380q0 133 76 216q73 81 192 81q120 0 191 -81q77 -87 77 -216zM458 864 q0 -47 -32.5 -80t-79.5 -33t-80 33t-33 80t33 80t80 33t79.5 -33t32.5 -80zM433 864q0 37 -25.5 63t-61.5 26t-62 -26t-26 -63t26 -62.5t62 -25.5t61.5 25.5t25.5 62.5z" />
<glyph horiz-adv-x="630" d="M90 606q0 21 46 43q87 41 189 41q122 0 179 -71q50 -63 50 -187v-419q0 -9 -7 -16t-17 -7t-17 7t-7 16v31q-89 -54 -209 -54q-43 0 -83.5 10t-76.5 30.5t-58 58t-22 86.5q0 113 104 167q41 22 104.5 36.5t112 19.5t128.5 11v21q0 109 -42 162q-46 56 -142 56 q-82 0 -160 -41q-6 -3 -14.5 -8t-13 -8t-11 -5t-11.5 -2q-10 0 -16 6.5t-6 15.5zM108 177q0 -52 32 -86.5t76 -47.5t96 -13q111 0 194 54v286q-71 -5 -110.5 -8.5t-96.5 -15t-93 -28.5q-98 -46 -98 -141zM430 864q0 -47 -32.5 -80t-79.5 -33t-80 33t-33 80t33 80t80 33 t79.5 -33t32.5 -80zM405 864q0 37 -25.5 63t-61.5 26t-62 -26t-26 -63t26 -62.5t62 -25.5t61.5 25.5t25.5 62.5z" />
<glyph horiz-adv-x="689" d="M457 864q0 -47 -32.5 -80t-79.5 -33t-80 33t-33 80t33 80t80 33t79.5 -33t32.5 -80zM432 864q0 37 -25.5 63t-61.5 26t-62 -26t-26 -63t26 -62.5t62 -25.5t61.5 25.5t25.5 62.5zM345 646q-98 0 -160 -70q-60 -70 -60 -184v-98h440v98q0 113 -61 184q-62 70 -159 70z M613 393v-380q0 -9 -7 -16t-17 -7t-17 7t-7 16v239h-440v-239q0 -9 -7 -16t-17 -7t-17 7t-7 16v380q0 133 76 216q73 81 192 81q120 0 191 -81q77 -84 77 -216z" />
<glyph horiz-adv-x="509" d="M189 647q0 3 4 13l88 155q7 15 19 15q8 0 13.5 -5t5.5 -13q0 -6 -6 -16l-91 -150q-7 -13 -17 -13q-16 0 -16 14zM453 8l-57 136h-283l-56 -136q-6 -16 -22 -16q-21 0 -21 20q0 8 3 12l210 506q9 22 28 22q21 0 29 -22l209 -506q3 -9 3 -12q0 -8 -6 -14t-15 -6 q-17 0 -22 16zM255 491l-130 -313h259z" />
<glyph horiz-adv-x="509" d="M453 8l-57 136h-283l-56 -136q-6 -16 -22 -16q-21 0 -21 20q0 8 3 12l210 506q9 22 28 22q21 0 29 -22l209 -506q3 -9 3 -12q0 -8 -6 -14t-15 -6q-17 0 -22 16zM255 491l-130 -313h259zM254 829q7 0 18 -9l131 -140q8 -8 8 -15t-5 -12t-12 -5t-13 6l-127 134l-127 -134 q-6 -6 -13 -6q-16 0 -16 17q0 8 7 15l132 140q11 9 17 9z" />
<glyph horiz-adv-x="509" d="M453 8l-57 136h-283l-56 -136q-6 -16 -22 -16q-21 0 -21 20q0 8 3 12l210 506q9 22 28 22q21 0 29 -22l209 -506q3 -9 3 -12q0 -8 -6 -14t-15 -6q-17 0 -22 16zM255 491l-130 -313h259zM172 703q-12 0 -20 8t-8 20q0 11 8 19t20 8q11 0 19.5 -8t8.5 -19q0 -12 -8.5 -20 t-19.5 -8zM338 703q-12 0 -20 8t-8 20q0 11 8 19t20 8q11 0 19 -8t8 -19q0 -12 -8 -20t-19 -8z" />
<glyph horiz-adv-x="509" d="M318 647q0 -14 -15 -14q-11 0 -18 13l-91 150q-6 12 -6 16q0 8 5.5 13t13.5 5q12 0 19 -15l88 -155q4 -7 4 -13zM453 8l-57 136h-283l-56 -136q-6 -16 -22 -16q-21 0 -21 20q0 8 3 12l210 506q9 22 28 22q21 0 29 -22l209 -506q3 -9 3 -12q0 -8 -6 -14t-15 -6 q-17 0 -22 16zM255 491l-130 -313h259z" />
<glyph horiz-adv-x="509" d="M367 719q0 -47 -32.5 -80t-79.5 -33t-80 33t-33 80t33 80t80 33t79.5 -33t32.5 -80zM342 719q0 37 -25.5 63t-61.5 26t-62 -26t-26 -63t26 -62.5t62 -25.5t61.5 25.5t25.5 62.5zM453 8l-57 136h-283l-56 -136q-6 -16 -22 -16q-21 0 -21 20q0 8 3 12l210 506q9 22 28 22 q21 0 29 -22l209 -506q3 -9 3 -12q0 -8 -6 -14t-15 -6q-17 0 -22 16zM255 491l-130 -313h259z" />
<glyph horiz-adv-x="509" d="M410 742q0 -15 -21 -34q-24 -24 -65 -24q-26 0 -72 27q-40 26 -65 26q-24 0 -43 -17q-5 -4 -10.5 -11t-10 -10.5t-9.5 -3.5q-16 0 -16 17q0 14 20 34q26 24 65 24q32 0 74 -25q42 -27 64 -27q23 0 42 15q5 4 11 11t10.5 11t8.5 4q17 0 17 -17zM453 8l-57 136h-283 l-56 -136q-6 -16 -22 -16q-21 0 -21 20q0 8 3 12l210 506q9 22 28 22q21 0 29 -22l209 -506q3 -9 3 -12q0 -8 -6 -14t-15 -6q-17 0 -22 16zM255 491l-130 -313h259z" />
<glyph horiz-adv-x="691" d="M345 646q-98 0 -160 -70q-60 -70 -60 -184v-92h440v92q0 113 -61 184q-62 70 -159 70zM613 393v-380q0 -9 -7 -16t-17 -7t-17 7t-7 16v244h-440v-244q0 -9 -7 -16t-17 -7t-17 7t-7 16v380q0 133 76 216q73 81 192 81q120 0 191 -81q77 -87 77 -216zM501 917 q0 -16 -21 -35q-25 -23 -67 -23q-26 0 -72 27q-40 26 -65 26q-27 0 -45.5 -21t-25.5 -21q-16 0 -16 17q0 14 20 34q26 24 67 24q32 0 74 -25q42 -27 64 -27q20 0 34 10.5t22 20.5t14 10q17 0 17 -17z" />
<glyph horiz-adv-x="630" d="M90 606q0 21 46 43q87 41 189 41q122 0 179 -71q50 -63 50 -187v-419q0 -9 -7 -16t-17 -7t-17 7t-7 16v31q-89 -54 -209 -54q-43 0 -83.5 10t-76.5 30.5t-58 58t-22 86.5q0 113 104 167q41 22 104.5 36.5t112 19.5t128.5 11v21q0 109 -42 162q-46 56 -142 56 q-82 0 -160 -41q-6 -3 -14.5 -8t-13 -8t-11 -5t-11.5 -2q-10 0 -16 6.5t-6 15.5zM108 177q0 -52 32 -86.5t76 -47.5t96 -13q111 0 194 54v286q-71 -5 -110.5 -8.5t-96.5 -15t-93 -28.5q-98 -46 -98 -141zM474 917q0 -16 -21 -35q-25 -23 -67 -23q-26 0 -72 27q-40 26 -65 26 q-21 0 -34.5 -10.5t-21 -21t-15.5 -10.5q-16 0 -16 17q0 14 20 34q26 24 67 24q32 0 74 -25q42 -27 64 -27q20 0 34 10.5t22 20.5t14 10q17 0 17 -17z" />
<glyph horiz-adv-x="689" d="M501 917q0 -15 -21 -34q-24 -24 -65 -24q-26 0 -72 27q-40 26 -65 26q-24 0 -43 -17q-5 -4 -10.5 -11t-10 -10.5t-9.5 -3.5q-16 0 -16 17q0 14 20 34q26 24 65 24q32 0 74 -25q42 -27 64 -27q23 0 42 15q5 4 11 11t10.5 11t8.5 4q17 0 17 -17zM345 646q-98 0 -160 -70 q-60 -70 -60 -184v-98h440v98q0 113 -61 184q-62 70 -159 70zM613 393v-380q0 -9 -7 -16t-17 -7t-17 7t-7 16v239h-440v-239q0 -9 -7 -16t-17 -7t-17 7t-7 16v380q0 133 76 216q73 81 192 81q120 0 191 -81q77 -84 77 -216z" />
<glyph horiz-adv-x="674" d="M622 180q0 -90 -64.5 -135t-160.5 -45h-295q-10 0 -17 7t-7 16v635q0 9 7 16t17 7h257q87 0 147 -44t60 -129q0 -112 -92 -152v-2q71 -13 109.5 -59.5t38.5 -114.5zM517 504q0 67 -47 102t-116 35h-228v-275h248q64 0 103.5 34.5t39.5 103.5zM574 185q0 60 -41.5 100.5 t-117.5 40.5h-289v-286h264q80 0 131.5 35t52.5 110z" />
<glyph horiz-adv-x="703" d="M415 33q66 0 134 22q21 8 39.5 17.5t28 15t15.5 5.5q22 0 22 -22t-49 -42q-92 -39 -189 -39q-160 0 -262.5 95.5t-102.5 255.5q0 150 104 249.5t264 99.5q101 0 171 -35.5t70 -98.5q0 -34 -22.5 -54t-53.5 -20q-35 0 -35 21q0 18 25 18q16 0 27 9.5t11 26.5 q0 37 -53.5 64t-139.5 27q-138 0 -228.5 -88t-90.5 -219q0 -139 89 -223.5t226 -84.5z" />
<glyph horiz-adv-x="703" d="M516 -108q0 -42 -35 -61.5t-79 -19.5q-18 0 -33 3q-12 3 -12 14q0 13 13 13q3 0 14 -1.5t21 -1.5q31 0 54.5 13t23.5 41q0 24 -19.5 35.5t-46.5 11.5q-19 0 -18 20l2 32q-155 5 -252.5 99.5t-97.5 250.5q0 150 104 249.5t264 99.5q101 0 171 -35.5t70 -98.5 q0 -34 -22.5 -54t-53.5 -20q-35 0 -35 21q0 18 25 18q16 0 27 9.5t11 26.5q0 37 -53.5 64t-139.5 27q-138 0 -228.5 -88t-90.5 -219q0 -139 89 -223.5t226 -84.5q66 0 134 22q21 8 39.5 17.5t28 15t15.5 5.5q22 0 22 -22t-49 -42q-87 -37 -178 -39v-29q38 -1 63.5 -18.5 t25.5 -50.5z" />
<glyph horiz-adv-x="538" d="M427 -108q0 -42 -35 -61.5t-79 -19.5q-18 0 -33 3q-12 3 -12 14q0 13 13 13q3 0 14 -1.5t21 -1.5q31 0 54.5 13t23.5 41q0 24 -19.5 35.5t-46.5 11.5q-19 0 -18 20l2 34q-107 8 -178 79q-82 80 -82 201q0 98 66 177q40 47 96.5 74.5t119.5 27.5q79 0 135 -27 q40 -20 40 -37q0 -9 -6 -15t-14 -6q-6 0 -13 3.5t-19 10.5t-24 12q-41 18 -99 18q-112 0 -184 -90q-53 -66 -53 -148q0 -102 68 -170q70 -70 169 -70q58 0 104 19q13 5 25 12.5t18.5 11t12.5 3.5q19 0 19 -21q0 -18 -42 -38q-53 -26 -133 -28v-31q38 -1 63.5 -18.5 t25.5 -50.5z" />
<glyph horiz-adv-x="563" d="M530 660q0 -9 -6 -15t-14 -6h-160q-142 0 -195 -80q-38 -56 -38 -151v-44h342q9 0 15 -6t6 -15t-6 -15t-15 -6h-342v-48q0 -113 52 -169q57 -63 181 -63h160q8 0 14 -6t6 -15t-6 -15t-14 -6h-160q-153 0 -221 80q-60 70 -60 203v115q0 120 50 190q66 93 231 93h160 q8 0 14 -6.5t6 -14.5z" />
<glyph horiz-adv-x="627" d="M126 264v-222h449q8 0 14 -6t6 -15t-6 -15t-14 -6h-473q-10 0 -17 7t-7 16v635q0 9 7 16t17 7h473q8 0 14 -6.5t6 -14.5q0 -9 -6 -15t-14 -6h-449v-332h394q9 0 15 -6.5t6 -14.5q0 -9 -6 -15.5t-15 -6.5h-394z" />
<glyph horiz-adv-x="720" d="M642 335h-539q3 -121 66 -200q82 -102 222 -102q82 0 147 28q22 9 41.5 21t30 19t15.5 7q9 0 15 -6t6 -16q0 -28 -77 -61q-86 -35 -177 -35q-169 0 -262 115q-79 95 -79 244q0 145 82 239q89 102 238 102q138 0 224 -96q79 -86 79 -224q0 -35 -32 -35zM103 376h522 q-3 115 -66 188q-72 82 -187 82q-131 0 -205 -93q-58 -69 -64 -177z" />
<glyph horiz-adv-x="562" d="M530 660q0 -9 -6 -15t-14 -6h-160q-142 0 -195 -80q-38 -56 -38 -151v-44h342q9 0 15 -6t6 -15t-6 -15t-15 -6h-342v-48q0 -113 52 -169q57 -63 181 -63h160q8 0 14 -6t6 -15t-6 -15t-14 -6h-160q-153 0 -221 80q-60 70 -60 203v115q0 120 50 190q66 93 231 93h160 q8 0 14 -6.5t6 -14.5zM259 788q0 3 4 13l88 155q7 15 19 15q8 0 13.5 -5t5.5 -13q0 -6 -6 -16l-91 -150q-7 -13 -17 -13q-16 0 -16 14z" />
<glyph horiz-adv-x="627" d="M126 264v-222h449q8 0 14 -6t6 -15t-6 -15t-14 -6h-473q-10 0 -17 7t-7 16v635q0 9 7 16t17 7h473q8 0 14 -6.5t6 -14.5q0 -9 -6 -15t-14 -6h-449v-332h394q9 0 15 -6.5t6 -14.5q0 -9 -6 -15.5t-15 -6.5h-394zM272 788q0 3 4 13l88 155q7 15 19 15q8 0 13.5 -5t5.5 -13 q0 -6 -6 -16l-91 -150q-7 -13 -17 -13q-16 0 -16 14z" />
<glyph horiz-adv-x="720" d="M642 335h-539q3 -121 66 -200q82 -102 222 -102q82 0 147 28q22 9 41.5 21t30 19t15.5 7q9 0 15 -6t6 -16q0 -28 -77 -61q-86 -35 -177 -35q-169 0 -262 115q-79 95 -79 244q0 145 82 239q89 102 238 102q138 0 224 -96q79 -86 79 -224q0 -35 -32 -35zM103 376h522 q-3 115 -66 188q-72 82 -187 82q-131 0 -205 -93q-58 -69 -64 -177zM309 788q0 3 4 13l88 155q7 15 19 15q8 0 13.5 -5t5.5 -13q0 -6 -6 -16l-91 -150q-7 -13 -17 -13q-16 0 -16 14z" />
<glyph horiz-adv-x="562" d="M530 660q0 -9 -6 -15t-14 -6h-160q-142 0 -195 -80q-38 -56 -38 -151v-44h342q9 0 15 -6t6 -15t-6 -15t-15 -6h-342v-48q0 -113 52 -169q57 -63 181 -63h160q8 0 14 -6t6 -15t-6 -15t-14 -6h-160q-153 0 -221 80q-60 70 -60 203v115q0 120 50 190q66 93 231 93h160 q8 0 14 -6.5t6 -14.5zM323 970q11 0 18 -9l131 -140q8 -8 8 -15t-5 -12t-12 -5t-13 6l-127 134l-127 -134q-6 -6 -13 -6q-16 0 -16 17q0 8 7 15l132 140q7 9 17 9z" />
<glyph horiz-adv-x="627" d="M126 264v-222h449q8 0 14 -6t6 -15t-6 -15t-14 -6h-473q-10 0 -17 7t-7 16v635q0 9 7 16t17 7h473q8 0 14 -6.5t6 -14.5q0 -9 -6 -15t-14 -6h-449v-332h394q9 0 15 -6.5t6 -14.5q0 -9 -6 -15.5t-15 -6.5h-394zM334 970q11 0 18 -9l131 -140q8 -8 8 -15t-5 -12t-12 -5 t-13 6l-127 134l-127 -134q-6 -6 -13 -6q-16 0 -16 17q0 8 7 15l132 140q7 9 17 9z" />
<glyph horiz-adv-x="720" d="M642 335h-539q3 -121 66 -200q82 -102 222 -102q82 0 147 28q22 9 41.5 21t30 19t15.5 7q9 0 15 -6t6 -16q0 -28 -77 -61q-86 -35 -177 -35q-169 0 -262 115q-79 95 -79 244q0 145 82 239q89 102 238 102q138 0 224 -96q79 -86 79 -224q0 -35 -32 -35zM103 376h522 q-3 115 -66 188q-72 82 -187 82q-131 0 -205 -93q-58 -69 -64 -177zM374 970q11 0 18 -9l131 -140q8 -8 8 -15t-5 -12t-12 -5t-13 6l-127 134l-127 -134q-6 -6 -13 -6q-16 0 -16 17q0 8 7 15l132 140q7 9 17 9z" />
<glyph horiz-adv-x="562" d="M530 660q0 -9 -6 -15t-14 -6h-160q-142 0 -195 -80q-38 -56 -38 -151v-44h342q9 0 15 -6t6 -15t-6 -15t-15 -6h-342v-48q0 -113 52 -169q57 -63 181 -63h160q8 0 14 -6t6 -15t-6 -15t-14 -6h-160q-153 0 -221 80q-60 70 -60 203v115q0 120 50 190q66 93 231 93h160 q8 0 14 -6.5t6 -14.5zM241 846q-12 0 -20 8t-8 20q0 11 8 19t20 8q11 0 19.5 -8t8.5 -19q0 -12 -8.5 -20t-19.5 -8zM407 846q-12 0 -20 8t-8 20q0 11 8 19t20 8q11 0 19 -8t8 -19q0 -12 -8 -20t-19 -8z" />
<glyph horiz-adv-x="627" d="M126 264v-222h449q8 0 14 -6t6 -15t-6 -15t-14 -6h-473q-10 0 -17 7t-7 16v635q0 9 7 16t17 7h473q8 0 14 -6.5t6 -14.5q0 -9 -6 -15t-14 -6h-449v-332h394q9 0 15 -6.5t6 -14.5q0 -9 -6 -15.5t-15 -6.5h-394zM257 846q-12 0 -20 8t-8 20q0 11 8 19t20 8q11 0 19.5 -8 t8.5 -19q0 -12 -8.5 -20t-19.5 -8zM423 846q-12 0 -20 8t-8 20q0 11 8 19t20 8q11 0 19 -8t8 -19q0 -12 -8 -20t-19 -8z" />
<glyph horiz-adv-x="720" d="M642 335h-539q3 -121 66 -200q82 -102 222 -102q82 0 147 28q22 9 41.5 21t30 19t15.5 7q9 0 15 -6t6 -16q0 -28 -77 -61q-86 -35 -177 -35q-169 0 -262 115q-79 95 -79 244q0 145 82 239q89 102 238 102q138 0 224 -96q79 -86 79 -224q0 -35 -32 -35zM103 376h522 q-3 115 -66 188q-72 82 -187 82q-131 0 -205 -93q-58 -69 -64 -177zM291 846q-12 0 -20 8t-8 20q0 11 8 19t20 8q11 0 19.5 -8t8.5 -19q0 -12 -8.5 -20t-19.5 -8zM457 846q-12 0 -20 8t-8 20q0 11 8 19t20 8q11 0 19 -8t8 -19q0 -12 -8 -20t-19 -8z" />
<glyph horiz-adv-x="562" d="M530 660q0 -9 -6 -15t-14 -6h-160q-142 0 -195 -80q-38 -56 -38 -151v-44h342q9 0 15 -6t6 -15t-6 -15t-15 -6h-342v-48q0 -113 52 -169q57 -63 181 -63h160q8 0 14 -6t6 -15t-6 -15t-14 -6h-160q-153 0 -221 80q-60 70 -60 203v115q0 120 50 190q66 93 231 93h160 q8 0 14 -6.5t6 -14.5zM385 788q0 -14 -15 -14q-11 0 -18 13l-91 150q-6 10 -6 16q0 8 5.5 13t13.5 5q11 0 19 -15l88 -155q4 -7 4 -13z" />
<glyph horiz-adv-x="627" d="M126 264v-222h449q8 0 14 -6t6 -15t-6 -15t-14 -6h-473q-10 0 -17 7t-7 16v635q0 9 7 16t17 7h473q8 0 14 -6.5t6 -14.5q0 -9 -6 -15t-14 -6h-449v-332h394q9 0 15 -6.5t6 -14.5q0 -9 -6 -15.5t-15 -6.5h-394zM405 788q0 -14 -15 -14q-11 0 -18 13l-91 150q-6 10 -6 16 q0 8 5.5 13t13.5 5q11 0 19 -15l88 -155q4 -7 4 -13z" />
<glyph horiz-adv-x="720" d="M642 335h-539q3 -121 66 -200q82 -102 222 -102q82 0 147 28q22 9 41.5 21t30 19t15.5 7q9 0 15 -6t6 -16q0 -28 -77 -61q-86 -35 -177 -35q-169 0 -262 115q-79 95 -79 244q0 145 82 239q89 102 238 102q138 0 224 -96q79 -86 79 -224q0 -35 -32 -35zM103 376h522 q-3 115 -66 188q-72 82 -187 82q-131 0 -205 -93q-58 -69 -64 -177zM445 788q0 -14 -15 -14q-11 0 -18 13l-91 150q-6 10 -6 16q0 8 5.5 13t13.5 5q11 0 19 -15l88 -155q4 -7 4 -13z" />
<glyph horiz-adv-x="481" d="M123 253v-215h323q8 0 13.5 -5.5t5.5 -13.5q0 -19 -19 -19h-345q-9 0 -15.5 6t-6.5 15v502q0 9 6.5 15t15.5 6h345q8 0 13.5 -5.5t5.5 -13.5q0 -19 -19 -19h-323v-214h283q8 0 14 -6t6 -14t-6 -13.5t-14 -5.5h-283zM209 645q0 6 4 13l88 155q7 15 19 15q8 0 13.5 -5.5 t5.5 -12.5q0 -4 -6 -16l-91 -150q-7 -13 -18 -13q-15 0 -15 14z" />
<glyph horiz-adv-x="481" d="M123 253v-215h323q8 0 13.5 -5.5t5.5 -13.5q0 -19 -19 -19h-345q-9 0 -15.5 6t-6.5 15v502q0 9 6.5 15t15.5 6h345q8 0 13.5 -5.5t5.5 -13.5q0 -19 -19 -19h-323v-214h283q8 0 13.5 -6t5.5 -14q0 -19 -19 -19h-283zM267 827q11 0 18 -9l131 -140q8 -8 8 -15t-5 -12 t-12 -5t-13 6l-127 134l-127 -134q-6 -6 -13 -6q-16 0 -16 17q0 8 7 15l132 140q7 9 17 9z" />
<glyph horiz-adv-x="481" d="M123 253v-215h323q8 0 13.5 -5.5t5.5 -13.5q0 -19 -19 -19h-345q-9 0 -15.5 6t-6.5 15v502q0 9 6.5 15t15.5 6h345q8 0 13.5 -5.5t5.5 -13.5q0 -19 -19 -19h-323v-214h283q8 0 13.5 -6t5.5 -14q0 -19 -19 -19h-283zM187 703q-12 0 -20 8t-8 20q0 11 8 19t20 8 q11 0 19.5 -8t8.5 -19q0 -12 -8.5 -20t-19.5 -8zM353 703q-12 0 -20 8t-8 20q0 11 8 19t20 8q11 0 19 -8t8 -19q0 -12 -8 -20t-19 -8z" />
<glyph horiz-adv-x="481" d="M123 253v-215h323q8 0 13.5 -5.5t5.5 -13.5q0 -19 -19 -19h-345q-9 0 -15.5 6t-6.5 15v502q0 9 6.5 15t15.5 6h345q8 0 13.5 -5.5t5.5 -13.5q0 -19 -19 -19h-323v-214h283q8 0 14 -6t6 -14t-6 -13.5t-14 -5.5h-283zM343 645q0 -6 -5 -10t-11 -4q-10 0 -17 13l-91 150 q-6 10 -6 16q0 8 5.5 13t13.5 5q11 0 19 -15l87 -155q5 -8 5 -13z" />
<glyph horiz-adv-x="538" d="M513 660q0 -21 -22 -21h-141q-140 0 -195 -79q-38 -54 -38 -152v-44h321q22 0 22 -21t-22 -21h-321v-309q0 -9 -7 -16t-17 -7t-17 7t-7 16v385q0 125 52 193q66 90 229 90h141q22 0 22 -21z" />
<glyph horiz-adv-x="589" d="M102 681h441q9 0 15 -6.5t6 -14.5q0 -9 -6 -15t-15 -6h-417v-332h364q9 0 15 -6.5t6 -14.5q0 -9 -6 -15.5t-15 -6.5h-364v-251q0 -9 -7 -16t-17 -7t-17 7t-7 16v645q0 9 7 16t17 7z" />
<glyph horiz-adv-x="789" d="M430 306h291q22 0 22 -23q0 -141 -109 -224q-91 -69 -221 -69q-155 0 -258.5 94t-103.5 257q0 149 104.5 249t256.5 100q98 0 181 -38q45 -20 45 -40q0 -9 -7 -15.5t-17 -6.5q-8 0 -17.5 5.5t-29 16t-43.5 18.5q-53 17 -111 17q-131 0 -222 -87.5t-91 -218.5 q0 -139 90.5 -223.5t223.5 -84.5q110 0 185 55q87 61 94 176h-263q-9 0 -15 6t-6 15t6 15t15 6z" />
<glyph horiz-adv-x="751" d="M78 13v654q0 9 7 16t17 7t17 -7t7 -16v-360h499v360q0 9 7 16t17 7t17 -7t7 -16v-654q0 -9 -7 -16t-17 -7t-17 7t-7 16v252h-499v-252q0 -9 -7 -16t-17 -7t-17 7t-7 16z" />
<glyph horiz-adv-x="202" d="M79 13v518q0 9 6.5 15t15.5 6t15.5 -6t6.5 -15v-518q0 -9 -6.5 -15t-15.5 -6t-15.5 6t-6.5 15zM36 645q0 5 5 13l87 155q8 15 19 15q8 0 13.5 -5t5.5 -13q0 -6 -6 -16l-91 -150q-7 -13 -17 -13q-6 0 -11 4t-5 10z" />
<glyph horiz-adv-x="202" d="M79 13v518q0 9 6.5 15t15.5 6t15.5 -6t6.5 -15v-518q0 -9 -6.5 -15t-15.5 -6t-15.5 6t-6.5 15zM101 827q11 0 18 -9l131 -140q8 -8 8 -15t-5 -12t-12 -5t-13 6l-127 134l-127 -134q-6 -6 -13 -6q-16 0 -16 17q0 8 7 15l132 140q7 9 17 9z" />
<glyph horiz-adv-x="202" d="M79 13v518q0 9 6.5 15t15.5 6t15.5 -6t6.5 -15v-518q0 -9 -6.5 -15t-15.5 -6t-15.5 6t-6.5 15zM19 703q-12 0 -20 8t-8 20q0 11 8 19t20 8q11 0 19.5 -8t8.5 -19q0 -12 -8.5 -20t-19.5 -8zM185 703q-12 0 -20 8t-8 20q0 11 8 19t20 8q11 0 19 -8t8 -19q0 -12 -8 -20 t-19 -8z" />
<glyph horiz-adv-x="202" d="M79 13v518q0 9 6.5 15t15.5 6t15.5 -6t6.5 -15v-518q0 -9 -6.5 -15t-15.5 -6t-15.5 6t-6.5 15zM166 645q0 -14 -15 -14q-11 0 -18 13l-91 150q-6 12 -6 16q0 7 5.5 12.5t13.5 5.5q12 0 19 -15l88 -155q4 -7 4 -13z" />
<glyph horiz-adv-x="655" d="M78 13v654q0 9 7 16t17 7t17 -7t7 -16v-400l409 414q9 9 20 9q9 0 15.5 -6.5t6.5 -16.5q0 -9 -8 -17l-295 -296q144 -12 228 -89q95 -89 95 -247q0 -28 -24 -28t-24 23q0 145 -88 224q-81 75 -223 81l-112 -112v-193q0 -9 -7 -16t-17 -7t-17 7t-7 16z" />
<glyph horiz-adv-x="520" d="M69 281v386q0 9 7 16t17 7t17 -7t7 -16v-391q0 -115 49 -171q56 -63 183 -63h131q9 0 15 -6t6 -15t-6 -15t-15 -6h-131q-158 0 -224 80q-56 68 -56 201z" />
<glyph horiz-adv-x="966" d="M78 661q0 12 8.5 20.5t20.5 8.5q17 0 26 -16l349 -621l351 621q9 16 26 16q12 0 20.5 -8.5t8.5 -20.5v-648q0 -9 -7 -16t-17 -7t-16.5 7t-6.5 16v583l-335 -591q-9 -15 -23 -15q-15 0 -24 15l-334 591v-583q0 -9 -6.5 -16t-16.5 -7t-17 7t-7 16v648z" />
<glyph horiz-adv-x="1179" d="M1054 13v369q0 265 -219 265q-100 0 -158 -62q-63 -65 -63 -198v-374q0 -9 -7 -16t-17 -7t-17 7t-7 16v375q0 148 -78 213q-52 46 -142 46q-102 0 -159 -63q-61 -66 -61 -205v-366q0 -9 -7 -16t-17 -7t-17 7t-7 16v654q0 9 7 16t17 7t17 -7t7 -16v-100q10 18 29 41 q73 82 196 82q97 0 159 -48q60 -47 84 -141q17 76 64 121q69 68 181 68q134 0 198.5 -82.5t64.5 -225.5v-369q0 -9 -7 -16t-17 -7t-17 7t-7 16z" />
<glyph horiz-adv-x="771" d="M647 13q0 18 -10 39.5t-31 47.5t-39.5 46.5t-51 50t-48.5 43.5t-49 42t-37 31q-126 106 -181 163q-51 51 -75 92v-555q0 -9 -6.5 -16t-16.5 -7t-17 7t-7 16v655q0 9 7 15.5t17 6.5t16.5 -7t6.5 -15q0 -28 20.5 -62t64 -77.5t80.5 -76t100 -85.5q110 -91 182 -164 q50 -51 75 -92v557q0 9 6.5 15.5t16.5 6.5t16.5 -6.5t6.5 -15.5v-655q0 -9 -6.5 -16t-16.5 -7t-16.5 7t-6.5 16z" />
<glyph horiz-adv-x="723" d="M600 13v380q0 142 -66 202q-54 51 -158 51q-139 0 -205 -107q-42 -66 -45 -156v-370q0 -9 -7 -16t-17 -7t-17 7t-7 16v654q0 9 7 16t17 7t17 -7t7 -16v-148q27 73 86 119q67 52 169 52q121 0 187 -59q80 -71 80 -232v-386q0 -9 -7 -16t-17 -7t-17 7t-7 16z" />
<glyph horiz-adv-x="629" d="M550 532v-520q0 -8 -6.5 -14t-14.5 -6q-11 0 -21 13l-387 469v-462q0 -8 -6 -14t-15 -6t-15 6t-6 14v520q0 8 6.5 14t14.5 6q9 0 22 -13l386 -470v463q0 8 6 14t15 6t15 -6t6 -14zM470 742q0 -16 -20 -34q-24 -24 -65 -24q-26 0 -72 27q-42 26 -65 26q-24 0 -43 -17 q-5 -4 -10.5 -11t-10 -10.5t-9.5 -3.5q-16 0 -16 17q0 14 20 34q26 24 65 24q32 0 74 -25q40 -27 64 -27t41 15q6 4 12 11t10.5 11t8.5 4q16 0 16 -17z" />
<glyph horiz-adv-x="771" d="M541 917q0 -16 -21 -35q-25 -23 -67 -23q-26 0 -72 27q-40 26 -65 26q-21 0 -34.5 -10.5t-21 -21t-15.5 -10.5q-16 0 -16 17q0 14 20 34q26 24 67 24q32 0 74 -25q42 -27 64 -27q20 0 34 10.5t22 20.5t14 10q17 0 17 -17zM647 13q0 18 -10 39.5t-31 47.5t-39.5 46.5 t-51 50t-48.5 43.5t-49 42t-37 31q-126 106 -181 163q-51 51 -75 92v-555q0 -9 -6.5 -16t-16.5 -7t-17 7t-7 16v655q0 9 7 15.5t17 6.5t16.5 -7t6.5 -15q0 -28 20.5 -62t64 -77.5t80.5 -76t100 -85.5q110 -91 182 -164q50 -51 75 -92v557q0 9 6.5 15.5t16.5 6.5t16.5 -6.5 t6.5 -15.5v-655q0 -9 -6.5 -16t-16.5 -7t-16.5 7t-6.5 16z" />
<glyph horiz-adv-x="723" d="M600 13v380q0 142 -66 202q-54 51 -158 51q-139 0 -205 -107q-42 -66 -45 -156v-370q0 -9 -7 -16t-17 -7t-17 7t-7 16v654q0 9 7 16t17 7t17 -7t7 -16v-148q27 73 86 119q67 52 169 52q121 0 187 -59q80 -71 80 -232v-386q0 -9 -7 -16t-17 -7t-17 7t-7 16zM539 917 q0 -16 -21 -35q-25 -23 -67 -23q-26 0 -72 27q-40 26 -65 26q-28 0 -46 -21t-25 -21q-16 0 -16 17q0 14 20 34q26 24 67 24q32 0 74 -25q42 -27 64 -27q20 0 34 10.5t22 20.5t14 10q17 0 17 -17z" />
<glyph horiz-adv-x="1199" d="M1167 660q0 -9 -6 -15t-14 -6h-160q-142 0 -195 -80q-38 -56 -38 -151v-44h342q9 0 15 -6t6 -15t-6 -15t-15 -6h-342v-48q0 -112 51 -169q57 -63 182 -63h160q8 0 14 -6t6 -15t-6 -15t-14 -6h-161q-152 0 -220 80q-35 39 -50 102q-44 -87 -128 -139.5t-185 -52.5 q-146 0 -249 102t-103 247t103.5 248.5t248.5 103.5q100 0 184.5 -53.5t128.5 -140.5q12 52 40 91q66 93 230 93h161q8 0 14 -6.5t6 -14.5zM704 339q0 124 -88.5 215.5t-213.5 91.5q-124 0 -212.5 -91.5t-88.5 -215.5t88 -214.5t213 -90.5t213.5 90.5t88.5 214.5z" />
<glyph horiz-adv-x="1255" d="M754 264v-222h449q8 0 14 -6t6 -15t-6 -15t-14 -6h-473q-10 0 -17 7t-7 16v140q-47 -79 -127.5 -126t-175.5 -47q-146 0 -249 102t-103 247t103.5 248.5t248.5 103.5q95 0 175.5 -48t127.5 -128v143q0 9 7 16t17 7h473q8 0 14 -6.5t6 -14.5q0 -9 -6 -15t-14 -6h-449v-332 h394q9 0 15 -6.5t6 -14.5q0 -9 -6 -15.5t-15 -6.5h-394zM704 339q0 124 -88.5 215.5t-213.5 91.5q-124 0 -212.5 -91.5t-88.5 -215.5t88 -214.5t213 -90.5t213.5 90.5t88.5 214.5z" />
<glyph horiz-adv-x="1372" d="M1295 335h-539q4 -122 67 -200q80 -102 221 -102q82 0 147 28q22 9 41.5 21t30 19t16.5 7q9 0 15 -6t6 -16q0 -13 -21.5 -29.5t-56.5 -31.5q-84 -35 -177 -35q-169 0 -262 115q-37 45 -56 100q-40 -96 -128.5 -155.5t-195.5 -59.5q-146 0 -249 102t-103 247t103.5 248.5 t248.5 103.5q106 0 193 -58.5t128 -153.5q22 62 63 109q87 102 238 102q138 0 224 -96q79 -88 79 -224q0 -35 -33 -35zM704 339q0 128 -89 217.5t-213 89.5t-212.5 -91.5t-88.5 -215.5t88 -214.5t213 -90.5t213.5 90t88.5 215zM757 376h522q-4 116 -67 188q-70 82 -187 82 q-128 0 -205 -93q-57 -71 -63 -177z" />
<glyph horiz-adv-x="671" d="M98 272q0 -91 57 -158q70 -81 180 -81q111 0 181 81q57 67 57 158q0 92 -57 158q-70 81 -181 81q-110 0 -180 -81q-57 -66 -57 -158zM53 272q0 105 64 182q82 98 218 98t218 -98q65 -76 65 -182t-65 -182q-82 -98 -218 -98t-218 98q-64 77 -64 182zM270 645q0 5 5 13 l87 155q8 15 20 15q8 0 13.5 -5.5t5.5 -12.5q0 -5 -7 -16l-91 -150q-7 -13 -17 -13q-6 0 -11 4t-5 10z" />
<glyph horiz-adv-x="671" d="M97 272q0 -91 57 -158q70 -81 181 -81q110 0 180 81q57 67 57 158q0 92 -57 158q-70 81 -180 81q-111 0 -181 -81q-57 -66 -57 -158zM52 272q0 106 65 182q82 98 218 98t218 -98q64 -77 64 -182t-64 -182q-82 -98 -218 -98t-218 98q-65 76 -65 182zM335 827q11 0 18 -9 l131 -140q8 -8 8 -15t-5 -12t-12 -5t-13 6l-127 134l-127 -134q-6 -6 -13 -6q-16 0 -16 17q0 8 7 15l132 140q7 9 17 9z" />
<glyph horiz-adv-x="671" d="M97 272q0 -91 57 -158q70 -81 181 -81q110 0 180 81q57 67 57 158q0 92 -57 158q-70 81 -180 81q-111 0 -181 -81q-57 -66 -57 -158zM52 272q0 106 65 182q82 98 218 98t218 -98q64 -77 64 -182t-64 -182q-82 -98 -218 -98t-218 98q-65 76 -65 182zM253 703q-12 0 -20 8 t-8 20q0 11 8 19t20 8q11 0 19.5 -8t8.5 -19q0 -12 -8.5 -20t-19.5 -8zM419 703q-12 0 -20 8t-8 20q0 11 8 19t20 8q11 0 19 -8t8 -19q0 -12 -8 -20t-19 -8z" />
<glyph horiz-adv-x="671" d="M98 272q0 -91 57 -158q70 -81 180 -81q111 0 181 81q57 67 57 158q0 92 -57 158q-70 81 -181 81q-110 0 -180 -81q-57 -66 -57 -158zM53 272q0 105 64 182q82 98 218 98t218 -98q65 -76 65 -182t-65 -182q-82 -98 -218 -98t-218 98q-64 77 -64 182zM401 645q0 -6 -5 -10 t-11 -4q-11 0 -17 13l-91 150q-7 11 -7 16q0 7 5.5 12.5t13.5 5.5q12 0 20 -15l87 -155q5 -8 5 -13z" />
<glyph horiz-adv-x="661" d="M48 272q0 106 65 182q82 98 218 98q99 0 176 -59l45 52q6 7 12 7q15 0 15 -15q0 -6 -6 -12l-43 -51l19 -20q64 -77 64 -182t-64 -182q-82 -98 -218 -98q-99 0 -171 53q-2 -2 -40 -46q-6 -7 -12 -7q-15 0 -15 14q0 4 5 12l39 46q-12 11 -24 26q-65 76 -65 182zM93 272 q0 -91 57 -158q10 -12 16 -17l313 363q-64 51 -148 51q-111 0 -181 -81q-57 -66 -57 -158zM502 440l-314 -362q63 -45 143 -45q110 0 180 81q57 67 57 158q0 92 -57 158z" />
<glyph horiz-adv-x="671" d="M98 272q0 -91 57 -158q70 -81 180 -81q111 0 181 81q57 67 57 158q0 92 -57 158q-70 81 -181 81q-110 0 -180 -81q-57 -66 -57 -158zM53 272q0 105 64 182q82 98 218 98t218 -98q65 -76 65 -182t-65 -182q-82 -98 -218 -98t-218 98q-64 77 -64 182zM491 742 q0 -14 -20 -34q-26 -24 -65 -24q-28 0 -72 27q-42 26 -66 26q-23 0 -42 -17q-5 -4 -11 -11t-10.5 -10.5t-8.5 -3.5q-16 0 -16 17q0 14 20 34q26 24 65 24q32 0 74 -25q41 -27 64 -27q22 0 41 15q6 4 12 11t10.5 11t8.5 4q16 0 16 -17z" />
<glyph horiz-adv-x="647" d="M102 681h275q93 0 154 -46q79 -60 79 -171q0 -55 -22.5 -101t-62.5 -74q-58 -42 -163 -42h-236v-234q0 -9 -7 -16t-17 -7t-17 7t-7 16v644q0 10 7 17t17 7zM561 464q0 93 -65 139q-51 36 -127 36h-243v-350h228q88 0 136 32q71 50 71 143z" />
<glyph horiz-adv-x="708" d="M126 262v-249q0 -10 -7 -16.5t-17 -6.5t-17 6.5t-7 16.5v643q0 10 7 17.5t18 7.5h232q46 0 83.5 -4.5t77 -18t66 -35.5t43.5 -60.5t17 -90.5q0 -54 -19 -94.5t-53.5 -64t-76 -35.5t-91.5 -15q18 -42 40 -79t51 -72.5t64.5 -56.5t72.5 -21q35 0 56 15t25 15q9 0 15 -6.5 t6 -15.5q0 -19 -29.5 -35t-72.5 -16q-50 0 -94.5 24t-79 68t-58.5 85t-47 94h-205zM347 640h-221v-337h213q37 0 65 2.5t61.5 12.5t55.5 27t37 49.5t15 76.5q0 41 -12 71.5t-32 48.5t-50.5 29.5t-61.5 15.5t-70 4z" />
<glyph horiz-adv-x="672" d="M243 681h408q9 0 15 -6.5t6 -14.5q0 -9 -6 -15t-15 -6h-258v-626q0 -9 -7 -16t-17 -7t-17 7t-7 16v626h-103q-183 0 -183 -64q0 -33 39 -36q23 -3 23 -18q0 -21 -34 -21q-31 0 -53.5 20t-22.5 54q0 42 33 66.5t81 32.5t118 8z" />
<glyph horiz-adv-x="611" d="M243 645q0 6 4 13l88 155q7 15 19 15q8 0 13.5 -5.5t5.5 -12.5q0 -4 -6 -16l-91 -150q-7 -13 -18 -13q-15 0 -15 14zM306 33q89 0 135 43q56 50 56 141v314q0 9 6.5 15t15.5 6t15.5 -6t6.5 -15v-315q0 -111 -68 -171q-62 -53 -167 -53q-106 0 -168 53q-68 60 -68 171v315 q0 9 6.5 15t15.5 6t15.5 -6t6.5 -15v-314q0 -91 56 -141q47 -43 136 -43z" />
<glyph horiz-adv-x="611" d="M305 33q89 0 136 43q56 50 56 141v314q0 9 6.5 15t15.5 6t15.5 -6t6.5 -15v-315q0 -111 -68 -171q-62 -53 -168 -53q-105 0 -167 53q-68 60 -68 171v315q0 9 6.5 15t15.5 6t15.5 -6t6.5 -15v-314q0 -91 56 -141q46 -43 135 -43zM305 827q11 0 18 -9l131 -140q8 -8 8 -15 t-5 -12t-12 -5t-13 6l-127 134l-127 -134q-6 -6 -13 -6q-16 0 -16 17q0 8 7 15l132 140q7 9 17 9z" />
<glyph horiz-adv-x="611" d="M305 33q89 0 136 43q56 50 56 141v314q0 9 6.5 15t15.5 6t15.5 -6t6.5 -15v-315q0 -111 -68 -171q-62 -53 -168 -53q-105 0 -167 53q-68 60 -68 171v315q0 9 6.5 15t15.5 6t15.5 -6t6.5 -15v-314q0 -91 56 -141q46 -43 135 -43zM223 703q-12 0 -20 8t-8 20q0 11 8 19 t20 8q11 0 19.5 -8t8.5 -19q0 -12 -8.5 -20t-19.5 -8zM389 703q-12 0 -20 8t-8 20q0 11 8 19t20 8q11 0 19 -8t8 -19q0 -12 -8 -20t-19 -8z" />
<glyph horiz-adv-x="611" d="M368 645q0 -14 -15 -14q-11 0 -18 13l-91 150q-6 12 -6 16q0 8 5.5 13t13.5 5q12 0 19 -15l88 -155q4 -7 4 -13zM306 33q89 0 135 43q56 50 56 141v314q0 9 6.5 15t15.5 6t15.5 -6t6.5 -15v-315q0 -111 -68 -171q-62 -53 -167 -53q-106 0 -168 53q-68 60 -68 171v315 q0 9 6.5 15t15.5 6t15.5 -6t6.5 -15v-314q0 -91 56 -141q47 -43 136 -43z" />
<glyph horiz-adv-x="992" d="M690 56l248 616q7 18 24 18q10 0 17 -6.5t7 -16.5q0 -2 -1.5 -7.5t-1.5 -6.5l-261 -638q-9 -25 -33 -25q-23 0 -32 25l-162 394l-161 -394q-11 -25 -33 -25q-23 0 -32 25l-260 638q-3 12 -3 13q0 10 7 17t17 7q17 0 24 -18l247 -616l169 419l-72 178q-4 8 -4 13 q0 10 7 17t17 7q17 0 24 -18z" />
<glyph horiz-adv-x="1086" d="M543 162q-25 -87 -89 -131q-57 -41 -133 -41q-122 0 -186 74q-58 66 -58 185v418q0 9 7 16t17 7t17 -7t7 -16v-419q0 -101 47 -154q52 -59 151 -59q73 0 122 44q74 66 74 184v404q0 9 7 16t17 7t17 -7t7 -16v-404q0 -118 74 -184q50 -44 122 -44q99 0 151 59 q48 53 48 154v419q0 9 7 16t17 7t17 -7t7 -16v-418q0 -118 -59 -185q-64 -74 -186 -74q-76 0 -133 41q-64 46 -89 131z" />
<glyph horiz-adv-x="619" d="M610 649l-277 -379v-257q0 -9 -7 -16t-17 -7t-17 7t-7 16v257l-277 379q-6 12 -6 19q0 9 6.5 15.5t16.5 6.5q13 0 23 -14l260 -359l263 359q8 14 23 14q10 0 16.5 -6.5t6.5 -16.5q0 -7 -7 -18z" />
<glyph horiz-adv-x="560" d="M62 32q70 0 115.5 37t87.5 111l-250 471q-4 10 -4 16q0 10 6.5 16.5t16.5 6.5q16 0 24 -17l231 -441l217 440q9 18 25 18q9 0 15.5 -6t6.5 -16q0 -9 -5 -17l-220 -447q-52 -105 -112.5 -159.5t-152.5 -54.5q-25 0 -25 21t24 21z" />
<glyph horiz-adv-x="619" d="M610 649l-277 -379v-257q0 -9 -7 -16t-17 -7t-17 7t-7 16v257l-277 379q-6 12 -6 19q0 9 6.5 15.5t16.5 6.5q13 0 23 -14l260 -359l263 359q8 14 23 14q10 0 16.5 -6.5t6.5 -16.5q0 -7 -7 -18zM245 788q0 3 4 13l88 155q7 15 19 15q8 0 13.5 -5t5.5 -13q0 -6 -6 -16 l-91 -150q-7 -13 -17 -13q-16 0 -16 14z" />
<glyph horiz-adv-x="560" d="M62 32q70 0 115.5 37t87.5 111l-250 471q-4 10 -4 16q0 10 6.5 16.5t16.5 6.5q16 0 24 -17l231 -441l217 440q9 18 25 18q9 0 15.5 -6t6.5 -16q0 -9 -5 -17l-220 -447q-52 -105 -112.5 -159.5t-152.5 -54.5q-25 0 -25 21t24 21zM219 788q0 3 4 13l88 155q7 15 19 15 q8 0 13.5 -5t5.5 -13q0 -6 -6 -16l-91 -150q-7 -13 -17 -13q-16 0 -16 14z" />
<glyph horiz-adv-x="619" d="M610 649l-277 -379v-257q0 -9 -7 -16t-17 -7t-17 7t-7 16v257l-277 379q-6 12 -6 19q0 9 6.5 15.5t16.5 6.5q13 0 23 -14l260 -359l263 359q8 14 23 14q10 0 16.5 -6.5t6.5 -16.5q0 -7 -7 -18zM226 846q-12 0 -20 8t-8 20q0 11 8 19t20 8q11 0 19.5 -8t8.5 -19 q0 -12 -8.5 -20t-19.5 -8zM392 846q-12 0 -20 8t-8 20q0 11 8 19t20 8q11 0 19 -8t8 -19q0 -12 -8 -20t-19 -8z" />
<glyph horiz-adv-x="560" d="M62 32q70 0 115.5 37t87.5 111l-250 471q-4 10 -4 16q0 10 6.5 16.5t16.5 6.5q16 0 24 -17l231 -441l217 440q9 18 25 18q9 0 15.5 -6t6.5 -16q0 -9 -5 -17l-220 -447q-52 -105 -112.5 -159.5t-152.5 -54.5q-25 0 -25 21t24 21zM203 846q-12 0 -20 8t-8 20q0 11 8 19 t20 8q11 0 19.5 -8t8.5 -19q0 -12 -8.5 -20t-19.5 -8zM369 846q-12 0 -20 8t-8 20q0 11 8 19t20 8q11 0 19 -8t8 -19q0 -12 -8 -20t-19 -8z" />
<glyph horiz-adv-x="473" d="M453 510l-195 -265v-232q0 -21 -22 -21q-21 0 -21 21v232l-195 265q-9 13 -9 22t6 14.5t14 5.5q12 0 21 -12l184 -253l186 254q7 11 20 11q8 0 14 -5.5t6 -14.5t-9 -22zM171 645q0 3 4 13l88 155q7 15 19 15q8 0 13.5 -5t5.5 -13q0 -6 -6 -16l-91 -150q-7 -13 -17 -13 q-16 0 -16 14z" />
<glyph horiz-adv-x="557" d="M275 457q107 0 161 -65q52 -63 52 -179v-202q0 -9 -6.5 -15t-15.5 -6q-22 0 -22 21v45q-69 -66 -175 -66q-103 0 -161 63q-60 65 -60 172q0 92 54 158q62 74 173 74zM273 26q99 0 171 70v115q0 106 -43 157q-43 52 -126 52q-92 0 -143 -68q-40 -52 -40 -128 q0 -89 47 -144q49 -54 134 -54z" />
<glyph horiz-adv-x="538" d="M418 436q0 9 6.5 15t15.5 6t15.5 -6t6.5 -15v-425q0 -9 -6.5 -15t-15.5 -6t-15.5 6t-6.5 15v20q-66 -41 -148 -41q-104 0 -164 66q-58 64 -58 169q0 94 53 156q63 76 169 76q82 0 148 -37v16zM274 26q80 0 144 42v314q-67 39 -143 39q-91 0 -143 -68q-39 -51 -39 -128 q0 -88 45 -141q51 -58 136 -58z" />
<glyph horiz-adv-x="557" d="M275 457q107 0 161 -65q52 -63 52 -179v-202q0 -9 -6.5 -15t-15.5 -6q-22 0 -22 21v45q-69 -66 -175 -66q-103 0 -161 63q-60 65 -60 172q0 92 54 158q62 74 173 74zM273 26q99 0 171 70v115q0 106 -43 157q-43 52 -126 52q-92 0 -143 -68q-40 -52 -40 -128 q0 -89 47 -144q49 -54 134 -54zM211 585q0 3 4 13l88 155q7 15 19 15q8 0 13.5 -5t5.5 -13q0 -6 -6 -16l-91 -150q-7 -13 -17 -13q-16 0 -16 14z" />
<glyph horiz-adv-x="538" d="M418 436q0 9 6.5 15t15.5 6t15.5 -6t6.5 -15v-425q0 -9 -6.5 -15t-15.5 -6t-15.5 6t-6.5 15v20q-66 -41 -148 -41q-104 0 -164 66q-58 64 -58 169q0 94 53 156q63 76 169 76q82 0 148 -37v16zM274 26q80 0 144 42v314q-67 39 -143 39q-91 0 -143 -68q-39 -51 -39 -128 q0 -88 45 -141q51 -58 136 -58zM202 585q0 3 4 13l88 155q7 15 19 15q8 0 13.5 -5t5.5 -13q0 -6 -6 -16l-91 -150q-7 -13 -17 -13q-16 0 -16 14z" />
<glyph horiz-adv-x="557" d="M275 457q107 0 161 -65q52 -63 52 -179v-202q0 -9 -6.5 -15t-15.5 -6q-22 0 -22 21v45q-69 -66 -175 -66q-103 0 -161 63q-60 65 -60 172q0 92 54 158q62 74 173 74zM273 26q99 0 171 70v115q0 106 -43 157q-43 52 -126 52q-92 0 -143 -68q-40 -52 -40 -128 q0 -89 47 -144q49 -54 134 -54zM274 767q11 0 18 -9l131 -140q8 -8 8 -15t-5 -12t-12 -5t-13 6l-127 134l-127 -134q-6 -6 -13 -6q-16 0 -16 17q0 8 7 15l132 140q7 9 17 9z" />
<glyph horiz-adv-x="538" d="M418 436q0 9 6.5 15t15.5 6t15.5 -6t6.5 -15v-425q0 -9 -6.5 -15t-15.5 -6t-15.5 6t-6.5 15v20q-66 -41 -148 -41q-104 0 -164 66q-58 64 -58 169q0 94 53 156q63 76 169 76q82 0 148 -37v16zM274 26q80 0 144 42v314q-67 39 -143 39q-91 0 -143 -68q-39 -51 -39 -128 q0 -88 45 -141q51 -58 136 -58zM273 767q11 0 18 -9l131 -140q8 -8 8 -15t-5 -12t-12 -5t-13 6l-127 134l-127 -134q-6 -6 -13 -6q-16 0 -16 17q0 8 7 15l132 140q7 9 17 9z" />
<glyph horiz-adv-x="557" d="M275 457q107 0 161 -65q52 -63 52 -179v-202q0 -9 -6.5 -15t-15.5 -6q-22 0 -22 21v45q-69 -66 -175 -66q-103 0 -161 63q-60 65 -60 172q0 92 54 158q62 74 173 74zM273 26q99 0 171 70v115q0 106 -43 157q-43 52 -126 52q-92 0 -143 -68q-40 -52 -40 -128 q0 -89 47 -144q49 -54 134 -54zM193 643q-12 0 -20 8t-8 20q0 11 8 19t20 8q11 0 19.5 -8t8.5 -19q0 -12 -8.5 -20t-19.5 -8zM359 643q-12 0 -20 8t-8 20q0 11 8 19t20 8q11 0 19 -8t8 -19q0 -12 -8 -20t-19 -8z" />
<glyph horiz-adv-x="538" d="M418 436q0 9 6.5 15t15.5 6t15.5 -6t6.5 -15v-425q0 -9 -6.5 -15t-15.5 -6t-15.5 6t-6.5 15v20q-66 -41 -148 -41q-104 0 -164 66q-58 64 -58 169q0 94 53 156q63 76 169 76q82 0 148 -37v16zM274 26q80 0 144 42v314q-67 39 -143 39q-91 0 -143 -68q-39 -51 -39 -128 q0 -88 45 -141q51 -58 136 -58zM187 643q-12 0 -20 8t-8 20q0 11 8 19t20 8q11 0 19.5 -8t8.5 -19q0 -12 -8.5 -20t-19.5 -8zM353 643q-12 0 -20 8t-8 20q0 11 8 19t20 8q11 0 19 -8t8 -19q0 -12 -8 -20t-19 -8z" />
<glyph horiz-adv-x="920" d="M837 76q7 0 12 -6t5 -13q0 -13 -27 -29q-67 -38 -150 -38q-112 0 -178 77q-7 6 -11 14v-70q0 -9 -6.5 -15t-15.5 -6q-22 0 -22 21v45q-69 -66 -175 -66q-103 0 -161 63q-60 65 -60 172q0 92 54 158q62 74 173 74q107 0 161 -65q17 -21 31 -54q12 26 35 52q59 67 163 67 q95 0 154 -64q54 -59 54 -150q0 -28 -26 -28h-357q3 -75 42 -121q55 -66 147 -66q71 0 124 30q6 3 12 7l9 6t6.5 3.5t6.5 1.5zM273 26q99 0 171 70v115q0 106 -43 157q-43 52 -126 52q-92 0 -143 -68q-40 -52 -40 -128q0 -89 47 -144q49 -54 134 -54zM490 249h340 q-1 71 -43 118q-49 52 -122 52q-87 0 -134 -58q-38 -44 -41 -112z" />
<glyph horiz-adv-x="557" d="M275 457q107 0 161 -65q52 -63 52 -179v-202q0 -9 -6.5 -15t-15.5 -6q-22 0 -22 21v45q-69 -66 -175 -66q-103 0 -161 63q-60 65 -60 172q0 92 54 158q62 74 173 74zM273 26q99 0 171 70v115q0 106 -43 157q-43 52 -126 52q-92 0 -143 -68q-40 -52 -40 -128 q0 -89 47 -144q49 -54 134 -54zM336 585q0 -14 -15 -14q-11 0 -18 13l-91 150q-6 10 -6 16q0 8 5.5 13t13.5 5q11 0 19 -15l88 -155q4 -7 4 -13z" />
<glyph horiz-adv-x="538" d="M418 436q0 9 6.5 15t15.5 6t15.5 -6t6.5 -15v-425q0 -9 -6.5 -15t-15.5 -6t-15.5 6t-6.5 15v20q-66 -41 -148 -41q-104 0 -164 66q-58 64 -58 169q0 94 53 156q63 76 169 76q82 0 148 -37v16zM274 26q80 0 144 42v314q-67 39 -143 39q-91 0 -143 -68q-39 -51 -39 -128 q0 -88 45 -141q51 -58 136 -58zM332 585q0 -14 -15 -14q-11 0 -18 13l-91 150q-6 10 -6 16q0 8 5.5 13t13.5 5q11 0 19 -15l88 -155q4 -7 4 -13z" />
<glyph horiz-adv-x="557" d="M275 457q107 0 161 -65q52 -63 52 -179v-202q0 -9 -6.5 -15t-15.5 -6q-22 0 -22 21v45q-69 -66 -175 -66q-103 0 -161 63q-60 65 -60 172q0 92 54 158q62 74 173 74zM273 26q99 0 171 70v115q0 106 -43 157q-43 52 -126 52q-92 0 -143 -68q-40 -52 -40 -128 q0 -89 47 -144q49 -54 134 -54zM386 659q0 -47 -32.5 -80t-79.5 -33t-80 33t-33 80t33 80t80 33t79.5 -33t32.5 -80zM361 659q0 37 -25.5 63t-61.5 26t-62 -26t-26 -63t26 -62.5t62 -25.5t61.5 25.5t25.5 62.5z" />
<glyph horiz-adv-x="538" d="M418 436q0 9 6.5 15t15.5 6t15.5 -6t6.5 -15v-425q0 -9 -6.5 -15t-15.5 -6t-15.5 6t-6.5 15v20q-66 -41 -148 -41q-104 0 -164 66q-58 64 -58 169q0 94 53 156q63 76 169 76q82 0 148 -37v16zM274 26q80 0 144 42v314q-67 39 -143 39q-91 0 -143 -68q-39 -51 -39 -128 q0 -88 45 -141q51 -58 136 -58zM381 659q0 -47 -32.5 -80t-79.5 -33t-80 33t-33 80t33 80t80 33t79.5 -33t32.5 -80zM356 659q0 37 -25.5 63t-61.5 26t-62 -26t-26 -63t26 -62.5t62 -25.5t61.5 25.5t25.5 62.5z" />
<glyph horiz-adv-x="557" d="M275 457q107 0 161 -65q52 -63 52 -179v-202q0 -9 -6.5 -15t-15.5 -6q-22 0 -22 21v45q-69 -66 -175 -66q-103 0 -161 63q-60 65 -60 172q0 92 54 158q62 74 173 74zM273 26q99 0 171 70v115q0 106 -43 157q-43 52 -126 52q-92 0 -143 -68q-40 -52 -40 -128 q0 -89 47 -144q49 -54 134 -54zM428 682q0 -16 -21 -35q-25 -23 -67 -23q-26 0 -72 27q-40 26 -65 26q-21 0 -34.5 -10.5t-21 -21t-15.5 -10.5q-16 0 -16 17q0 14 20 34q26 24 67 24q32 0 74 -25q42 -27 64 -27q16 0 28.5 6.5t18 14t12 14t11.5 6.5q17 0 17 -17z" />
<glyph horiz-adv-x="538" d="M418 436q0 9 6.5 15t15.5 6t15.5 -6t6.5 -15v-425q0 -9 -6.5 -15t-15.5 -6t-15.5 6t-6.5 15v20q-66 -41 -148 -41q-104 0 -164 66q-58 64 -58 169q0 94 53 156q63 76 169 76q82 0 148 -37v16zM274 26q80 0 144 42v314q-67 39 -143 39q-91 0 -143 -68q-39 -51 -39 -128 q0 -88 45 -141q51 -58 136 -58zM426 682q0 -16 -21 -35q-25 -23 -67 -23q-26 0 -72 27q-40 26 -65 26q-21 0 -34.5 -10.5t-21 -21t-15.5 -10.5q-16 0 -16 17q0 14 20 34q26 24 67 24q32 0 74 -25q42 -27 64 -27q16 0 28.5 6.5t18 14t12 14t11.5 6.5q17 0 17 -17z" />
<glyph horiz-adv-x="562" d="M113 669v-276q70 64 175 64q104 0 162 -63q59 -67 59 -172q0 -92 -54 -158q-60 -73 -173 -73q-107 0 -161 64q-52 63 -52 177v437q0 9 6.5 15t15.5 6t15.5 -6t6.5 -15zM283 422q-56 0 -95 -17.5t-75 -54.5v-120q0 -102 43 -151q42 -51 125 -51q91 0 144 67q40 52 40 127 q0 90 -46 145q-50 55 -136 55z" />
<glyph horiz-adv-x="490" d="M286 420q-92 0 -149 -68q-44 -52 -44 -128q0 -91 54 -143q55 -55 147 -55q57 0 96 17q29 13 32 13q7 0 12 -5.5t5 -12.5q0 -13 -30 -27q-47 -21 -115 -21q-113 0 -181 66q-65 65 -65 168q0 89 53 150q68 82 184 82q38 0 73.5 -9t63.5 -33.5t28 -61.5q0 -27 -17.5 -44 t-43.5 -17q-27 0 -27 15q0 10 16 12q32 3 32 32q0 35 -38 52.5t-86 17.5z" />
<glyph horiz-adv-x="800" d="M424 405q0 -7 -5.5 -12.5t-12.5 -5.5q-4 0 -7 1.5t-9.5 5t-13.5 6.5q-42 20 -90 20q-92 0 -149 -68q-44 -52 -44 -128q0 -89 52 -143q53 -55 141 -55q56 0 92 17q6 3 11.5 5.5t7.5 4t5 2.5t7 1q7 0 12 -5.5t5 -12.5q0 -13 -29 -26q-44 -22 -112 -22q-110 0 -174 66 q-63 65 -63 168q0 89 53 150q66 80 177 82q31 0 54 -4q-40 40 -40 109q0 60 41 99.5t115 39.5q79 0 114 -55t35 -145v-52h162q7 0 12 -5t5 -12t-5 -12.5t-12 -5.5h-162v-270q0 -58 22.5 -87t77.5 -29q30 0 62 17q6 3 13.5 8t12 7.5t8.5 2.5q7 0 12 -5t5 -12q0 -18 -41 -37 q-35 -18 -79 -18q-137 0 -137 150v273h-48q-7 0 -12 5.5t-5 12.5t5 12t12 5h48v51q0 167 -108 167q-56 0 -86 -31.5t-30 -78.5q0 -42 18 -75t47 -49q30 -18 30 -27z" />
<glyph horiz-adv-x="490" d="M389 -108q0 -42 -35 -61.5t-79 -19.5q-18 0 -33 3q-12 3 -12 14q0 13 13 13q3 0 14 -1.5t21 -1.5q31 0 54.5 13t23.5 41q0 24 -19.5 35.5t-46.5 11.5q-19 0 -18 20l2 32q-101 6 -161 65q-65 65 -65 168q0 89 53 150q68 82 184 82q38 0 73.5 -9t63.5 -33.5t28 -61.5 q0 -27 -17.5 -44t-43.5 -17q-27 0 -27 15q0 10 16 12q32 3 32 32q0 35 -38 52.5t-86 17.5q-92 0 -149 -68q-44 -52 -44 -128q0 -91 54 -143q55 -55 147 -55q57 0 96 17q29 13 32 13q7 0 12 -5.5t5 -12.5q0 -14 -30 -27q-45 -19 -109 -21v-29q38 -1 63.5 -18.5t25.5 -50.5z " />
<glyph horiz-adv-x="557" d="M269 457q105 0 175 -64v276q0 9 6.5 15t15.5 6t15.5 -6t6.5 -15v-437q0 -114 -52 -177q-54 -64 -161 -64q-113 0 -173 73q-54 66 -54 158q0 105 59 172q58 63 162 63zM444 230v120q-37 37 -75.5 54.5t-94.5 17.5q-86 0 -136 -55q-46 -55 -46 -145q0 -75 40 -127 q53 -67 144 -67q83 0 125 51q43 49 43 151z" />
<glyph horiz-adv-x="326" d="M246 659q-103 0 -103 -119v-92h146q7 0 12 -5t5 -12q0 -18 -17 -18h-146v-402q0 -9 -6.5 -15t-15.5 -6t-15.5 6t-6.5 15v402h-56q-17 0 -17 18q0 7 5 12t12 5h56v91q0 68 35.5 111.5t110.5 43.5q51 0 88.5 -28t37.5 -68q0 -28 -17.5 -44t-38.5 -16q-17 0 -17 13q0 5 9 9 t17.5 11.5t8.5 23.5q0 27 -27 45.5t-60 18.5z" />
<glyph horiz-adv-x="792" d="M389 386v-352q42 -6 94 -6q114 0 171 68q42 50 42 129q0 94 -52 148q-49 49 -124 49q-72 0 -131 -36zM389 606v-182q65 35 138 35q98 0 156 -64q57 -62 57 -170q0 -91 -51 -152q-70 -81 -209 -81q-69 0 -111 7q-23 4 -23 28v578q0 18 -27.5 33t-72.5 15q-55 0 -79 -33.5 t-24 -99.5v-72h141q7 0 12 -5t5 -12q0 -18 -17 -18h-141v-402q0 -9 -6.5 -15t-15.5 -6t-15.5 6t-6.5 15v402h-56q-17 0 -17 18q0 7 5 12t12 5h56v77q0 166 142 166q63 0 103 -21q26 -13 35.5 -27.5t9.5 -36.5z" />
<glyph horiz-adv-x="812" d="M346 11v594q0 18 -27.5 33t-72.5 15q-55 0 -79 -33.5t-24 -99.5v-72h141q7 0 12 -5t5 -12q0 -18 -17 -18h-141v-402q0 -9 -6.5 -15t-15.5 -6t-15.5 6t-6.5 15v402h-56q-17 0 -17 18q0 7 5 12t12 5h56v77q0 166 142 166q64 0 104 -21q26 -13 35 -27t9 -37v-259 q22 50 58 77q44 33 113 33q83 0 128 -39q55 -48 55 -155v-252q0 -9 -6.5 -15t-15.5 -6t-15.5 6t-6.5 15v245q0 93 -43 133q-35 32 -104 32q-90 0 -134 -70q-29 -46 -29 -111v-229q0 -9 -6.5 -15t-15.5 -6t-15 6t-6 15z" />
<glyph horiz-adv-x="718" d="M346 11v594q0 18 -27.5 33t-72.5 15q-55 0 -79 -33.5t-24 -99.5v-72h141q7 0 12 -5t5 -12q0 -18 -17 -18h-141v-402q0 -9 -6.5 -15t-15.5 -6t-15.5 6t-6.5 15v402h-56q-17 0 -17 18q0 7 5 12t12 5h56v77q0 166 142 166q63 0 103 -21q26 -13 35.5 -27.5t9.5 -36.5v-397 l259 241q9 7 16 7q9 0 14 -6t5 -14q0 -7 -6 -15l-187 -171l202 -228q5 -7 5 -12q0 -9 -6.5 -15t-15.5 -6q-12 0 -19 11l-196 223l-71 -66v-147q0 -9 -6.5 -15t-15.5 -6t-15 6t-6 15z" />
<glyph horiz-adv-x="592" d="M389 606v-158h163q7 0 12 -5t5 -12t-5 -12.5t-12 -5.5h-163v-270q0 -58 23 -87t78 -29q30 0 62 17q6 3 13 8t11.5 7.5t8.5 2.5q7 0 12 -5t5 -12q0 -18 -40 -37q-34 -18 -79 -18q-137 0 -137 150v273h-203v-402q0 -9 -6.5 -15t-15.5 -6t-15.5 6t-6.5 15v402h-56 q-17 0 -17 18q0 7 5 12t12 5h56v77q0 166 142 166q63 0 103 -21q26 -13 35.5 -27.5t9.5 -36.5zM346 448v157q0 18 -27.5 33t-72.5 15q-55 0 -79 -33.5t-24 -99.5v-72h203z" />
<glyph horiz-adv-x="562" d="M276 -192q86 0 131 54q42 49 42 137v57q-69 -66 -175 -66q-103 0 -161 63q-60 65 -60 172q0 93 54 158q61 74 173 74q107 0 161 -65q52 -63 52 -179v-213q0 -96 -52 -160q-56 -68 -164 -68q-72 0 -133 23q-27 10 -36.5 17.5t-9.5 17.5q0 8 5.5 14t14.5 6q7 0 29 -11.5 t43 -17.5q36 -13 86 -13zM278 26q98 0 171 70v115q0 106 -43 157q-43 52 -126 52q-93 0 -143 -68q-40 -52 -40 -128q0 -89 47 -144q49 -54 134 -54z" />
<glyph horiz-adv-x="491" d="M422 439q0 -11 -11 -21l-178 -175q84 -9 141 -58q72 -64 72 -170q0 -25 -22 -25q-19 0 -21 19q0 94 -65 151q-54 47 -140 52l-78 -78v-123q0 -9 -6.5 -15t-15.5 -6t-15.5 6t-6.5 15v657q0 9 6.5 15t15.5 6t15.5 -6t6.5 -15v-482l258 257q16 14 24 14q20 0 20 -18z" />
<glyph horiz-adv-x="802" d="M379 11v242q0 90 -37 127q-35 35 -96 35q-85 0 -115 -61q-18 -39 -18 -101v-242q0 -9 -6.5 -15t-15.5 -6t-15.5 6t-6.5 15v249q0 76 27 124q40 73 150 73q120 0 155 -104q35 104 155 104q111 0 151 -73q26 -47 26 -124v-249q0 -9 -6 -15t-15 -6t-15.5 6t-6.5 15v242 q0 63 -19 101q-30 61 -115 61q-60 0 -95 -35q-38 -37 -38 -127v-242q0 -9 -6.5 -15t-15.5 -6t-15.5 6t-6.5 15z" />
<glyph horiz-adv-x="535" d="M69 11v249q0 75 30 124q44 73 169 73t169 -73q29 -47 29 -124v-249q0 -9 -6 -15t-16 -6q-9 0 -15 6t-6 15v242q0 60 -22 101q-35 61 -133 61q-99 0 -134 -61q-21 -39 -21 -101v-242q0 -9 -6.5 -15t-15.5 -6t-15.5 6t-6.5 15z" />
<glyph horiz-adv-x="535" d="M69 11v249q0 75 30 124q44 73 169 73t169 -73q29 -47 29 -124v-249q0 -9 -6 -15t-16 -6q-9 0 -15 6t-6 15v242q0 60 -22 101q-35 61 -133 61q-99 0 -134 -61q-21 -39 -21 -101v-242q0 -9 -6.5 -15t-15.5 -6t-15.5 6t-6.5 15zM424 682q0 -16 -21 -35q-25 -23 -67 -23 q-26 0 -72 27q-40 26 -65 26q-21 0 -34.5 -10.5t-21 -21t-15.5 -10.5q-16 0 -16 17q0 14 20 34q26 24 67 24q32 0 74 -25q42 -27 64 -27q16 0 28.5 6.5t18 14t12 14t11.5 6.5q17 0 17 -17z" />
<glyph horiz-adv-x="562" d="M288 -10q-106 0 -175 65v-265q0 -9 -6.5 -15t-15.5 -6t-15.5 6t-6.5 15v427q0 114 52 176q54 64 161 64q113 0 173 -73q54 -65 54 -157q0 -108 -59 -173q-58 -64 -162 -64zM113 218v-121q36 -36 75 -54t95 -18q85 0 136 56q46 53 46 145q0 75 -40 127q-53 67 -144 67 q-83 0 -125 -51q-43 -49 -43 -151z" />
<glyph horiz-adv-x="557" d="M444 -210v265q-69 -65 -175 -65q-104 0 -162 64q-59 65 -59 173q0 92 54 157q60 73 173 73q107 0 161 -64q52 -62 52 -176v-427q0 -9 -6.5 -15t-15.5 -6t-15.5 6t-6.5 15zM274 25q56 0 94 17.5t76 54.5v121q0 102 -43 151q-42 51 -125 51q-91 0 -144 -67 q-40 -52 -40 -127q0 -92 46 -145q51 -56 136 -56z" />
<glyph horiz-adv-x="354" d="M250 418q-86 0 -117 -58q-20 -39 -20 -98v-251q0 -8 -6.5 -14.5t-15.5 -6.5t-15.5 6.5t-6.5 14.5v253q0 75 28 121q44 72 154 72q41 0 73 -12q38 -13 38 -30q0 -8 -6 -13.5t-14 -5.5q-4 0 -8.5 1.5t-13 5t-16.5 6.5q-24 9 -54 9z" />
<glyph horiz-adv-x="371" d="M258 457q50 0 80.5 -22t30.5 -61q0 -29 -17 -45.5t-38 -16.5q-17 0 -17 13q0 7 5.5 10.5t11.5 5.5t11.5 9t5.5 19q0 26 -22.5 39t-56.5 13q-58 0 -94 -49q-38 -52 -38 -128v-233q0 -9 -6.5 -15t-15.5 -6t-15.5 6t-6.5 15v425q0 9 6.5 15t15.5 6t15.5 -6t6.5 -15v-67h1 q16 42 52.5 65t84.5 23z" />
<glyph horiz-adv-x="919" d="M521 414v-361q53 -27 120 -27q79 0 131 55q50 50 50 144q0 91 -56 142q-59 54 -156 54q-51 0 -89 -7zM207 457q29 0 49 -5q-41 41 -41 109q0 60 42 99.5t115 39.5q78 0 113.5 -55t35.5 -145v-50q47 7 85 7q117 0 188 -62q72 -64 72 -170q0 -104 -58 -167 q-65 -68 -164 -68q-71 0 -123 26v-226q0 -9 -6.5 -15t-15.5 -6t-15.5 6t-6.5 15v709q0 167 -108 167q-54 0 -85 -32t-31 -78q0 -87 62 -120q29 -17 29 -26q0 -18 -17 -18q-5 0 -37 13q-37 15 -80 15q-116 0 -116 -77q0 -47 59 -73q17 -7 58.5 -22t56.5 -22q44 -20 67 -44.5 t23 -65.5q0 -60 -42 -93t-114 -33q-77 0 -130 30q-32 16 -32 34q0 7 5.5 13t12.5 6q4 0 8 -1.5t7 -3.5t9 -6.5l10 -7.5q43 -28 109 -28q53 0 82 22.5t29 64.5q0 32 -18 49.5t-56 34.5q-13 6 -54.5 20.5t-60.5 23.5q-74 33 -74 102q0 54 41 84t117 30z" />
<glyph horiz-adv-x="718" d="M345 437l160 -394h3l160 395q8 19 22 19q22 0 22 -20q0 -7 -6 -21l-168 -399q-11 -27 -33 -27q-21 0 -32 27l-114 275l-115 -275q-11 -27 -33 -27t-33 27l-167 399q-5 13 -5 20q0 21 23 21q15 0 22 -20l160 -394h3l124 299l-31 74q-5 13 -5 20q0 21 21 21q15 0 22 -20z " />
<glyph horiz-adv-x="790" d="M69 188v248q0 9 6.5 15t15.5 6t15.5 -6t6.5 -15v-248q0 -65 19 -103q27 -57 110 -57q84 0 112 60q19 38 19 100v248q0 9 6.5 15t15.5 6t15.5 -6t6.5 -15v-248q0 -61 18 -100q28 -60 113 -60q80 0 110 57q20 39 20 103v248q0 9 6 15t15 6t15.5 -6t6.5 -15v-248 q0 -76 -25 -125q-38 -73 -145 -73q-96 0 -135 64q-15 23 -21 43q-8 -21 -22 -43q-38 -64 -134 -64q-106 0 -146 74q-24 48 -24 124z" />
<glyph horiz-adv-x="546" d="M69 184v252q0 9 6.5 15t15.5 6t15.5 -6t6.5 -15v-241q0 -93 43 -133q37 -32 103 -32q79 0 121.5 57t42.5 145v204q0 9 6.5 15t14.5 6q9 0 15.5 -6t6.5 -15v-452q0 -94 -45 -149q-54 -63 -159 -63q-70 0 -130 23q-27 10 -36.5 17.5t-9.5 17.5t6 16.5t15 6.5t29.5 -10.5 t53 -20.5t72.5 -10q82 0 125 48q37 41 37 121l-1 112q-48 -103 -171 -103q-85 0 -130 41q-53 46 -53 153z" />
<glyph horiz-adv-x="546" d="M69 184v252q0 9 6.5 15t15.5 6t15.5 -6t6.5 -15v-241q0 -93 43 -133q37 -32 103 -32q79 0 121.5 57t42.5 145v204q0 9 6.5 15t14.5 6q9 0 15.5 -6t6.5 -15v-452q0 -94 -45 -149q-54 -63 -159 -63q-70 0 -130 23q-27 10 -36.5 17.5t-9.5 17.5t6 16.5t15 6.5t29.5 -10.5 t53 -20.5t72.5 -10q82 0 125 48q37 41 37 121l-1 112q-48 -103 -171 -103q-85 0 -130 41q-53 46 -53 153zM207 585q0 3 4 13l88 155q7 15 19 15q8 0 13.5 -5t5.5 -13q0 -6 -6 -16l-91 -150q-7 -13 -17 -13q-16 0 -16 14z" />
<glyph horiz-adv-x="546" d="M69 184v252q0 9 6.5 15t15.5 6t15.5 -6t6.5 -15v-241q0 -93 43 -133q37 -32 103 -32q79 0 121.5 57t42.5 145v204q0 9 6.5 15t14.5 6q9 0 15.5 -6t6.5 -15v-452q0 -94 -45 -149q-54 -63 -159 -63q-70 0 -130 23q-27 10 -36.5 17.5t-9.5 17.5t6 16.5t15 6.5t29.5 -10.5 t53 -20.5t72.5 -10q82 0 125 48q37 41 37 121l-1 112q-48 -103 -171 -103q-85 0 -130 41q-53 46 -53 153zM185 643q-12 0 -20 8t-8 20q0 11 8 19t20 8q11 0 19.5 -8t8.5 -19q0 -12 -8.5 -20t-19.5 -8zM351 643q-12 0 -20 8t-8 20q0 11 8 19t20 8q11 0 19 -8t8 -19 q0 -12 -8 -20t-19 -8z" />
</font>
</defs>
</svg>
